STARTFONT 2.3
FONT -FontForge-Rajdhani-Book-R-Normal--24-240-72-72-P-147-ISO10646-1
SIZE 24 72 72  2
FONTBOUNDINGBOX 59 29 -10 -8
COMMENT "Generated by fontforge, http://fontforge.sourceforge.net"
COMMENT "Copyright (c) 2014 Indian Type Foundry (info@indiantypefoundry.com)"
STARTPROPERTIES 41
FOUNDRY "FontForge"
FAMILY_NAME "Rajdhani"
WEIGHT_NAME "Book"
SLANT "R"
SETWIDTH_NAME "Normal"
ADD_STYLE_NAME ""
PIXEL_SIZE 24
POINT_SIZE 240
RESOLUTION_X 72
RESOLUTION_Y 72
SPACING "P"
AVERAGE_WIDTH 147
CHARSET_REGISTRY "ISO10646"
CHARSET_ENCODING "1"
FONTNAME_REGISTRY ""
CHARSET_COLLECTIONS "ISO8859-2 ISO8859-9 ISO8859-4 ISO10646-1"
BITS_PER_PIXEL 2
FONT_NAME "Rajdhani-Regular"
FACE_NAME "Rajdhani Regular"
COPYRIGHT "Copyright (c) 2014 Indian Type Foundry (info@indiantypefoundry.com)"
FONT_VERSION "1.201;PS 1.0;hotconv 1.0.78;makeotf.lib2.5.61930; ttfautohint (v1.1) -l 7 -r 28 -G 50 -x 13 -D latn -f deva -w G"
FONT_ASCENT 19
FONT_DESCENT 5
UNDERLINE_POSITION -2
UNDERLINE_THICKNESS 2
X_HEIGHT 11
CAP_HEIGHT 14
DEFAULT_CHAR 3
RAW_ASCENT 800
RAW_DESCENT 200
NORM_SPACE 6
RELATIVE_WEIGHT 40
RELATIVE_SETWIDTH 50
SUPERSCRIPT_X 0
SUPERSCRIPT_Y 8
SUPERSCRIPT_SIZE 14
SUBSCRIPT_X 0
SUBSCRIPT_Y 1
SUBSCRIPT_SIZE 14
AVG_LOWERCASE_WIDTH 108
AVG_UPPERCASE_WIDTH 125
ENDPROPERTIES
CHARS 1043
STARTCHAR NULL.dup1
ENCODING 0
SWIDTH 0 0
DWIDTH 0 0
BBX 1 1 0 0
BITMAP
00
ENDCHAR
STARTCHAR CR
ENCODING 13
SWIDTH 0 0
DWIDTH 0 0
BBX 1 1 0 0
BITMAP
00
ENDCHAR
STARTCHAR space
ENCODING 32
SWIDTH 267 0
DWIDTH 6 0
BBX 1 1 0 0
BITMAP
00
ENDCHAR
STARTCHAR exclam
ENCODING 33
SWIDTH 237 0
DWIDTH 6 0
BBX 2 15 2 0
BITMAP
A0
E0
E0
E0
A0
90
90
90
90
90
00
00
90
90
90
ENDCHAR
STARTCHAR quotedbl
ENCODING 34
SWIDTH 330 0
DWIDTH 8 0
BBX 6 5 1 10
BITMAP
6090
6090
6090
6090
5080
ENDCHAR
STARTCHAR numbersign
ENCODING 35
SWIDTH 677 0
DWIDTH 16 0
BBX 14 15 1 0
BITMAP
001C0240
00180340
00240300
00300600
0FFFFFE0
00A00D00
00D01800
01C02800
01803400
02403000
BFFFFF40
06009000
0900C000
0C018000
1C024000
ENDCHAR
STARTCHAR dollar
ENCODING 36
SWIDTH 504 0
DWIDTH 12 0
BBX 10 21 1 -3
BITMAP
001000
007000
007000
0BFE00
2902C0
7000D0
700090
700040
700000
380000
1FFE40
0006C0
0000D0
000090
700090
7000D0
2802C0
0BFE00
007000
007000
001000
ENDCHAR
STARTCHAR percent
ENCODING 37
SWIDTH 717 0
DWIDTH 17 0
BBX 15 15 1 0
BITMAP
2FD00900
A0701800
90242400
90243000
90249000
A070C000
2FD18000
00030000
00060BE0
00092418
0018300C
0024300C
0030300C
00903418
00C01BE0
ENDCHAR
STARTCHAR ampersand
ENCODING 38
SWIDTH 597 0
DWIDTH 14 0
BBX 12 15 1 0
BITMAP
01BE40
0742C0
0A00D0
0D00A0
090090
0A0000
034000
1BD000
38BFFF
702D00
700B00
7002C0
7000E0
2802A8
0BFE0A
ENDCHAR
STARTCHAR quotesingle
ENCODING 39
SWIDTH 186 0
DWIDTH 4 0
BBX 2 5 1 10
BITMAP
60
60
60
60
20
ENDCHAR
STARTCHAR parenleft
ENCODING 40
SWIDTH 283 0
DWIDTH 7 0
BBX 4 18 1 -3
BITMAP
1B
34
60
90
90
90
90
90
90
90
90
90
90
90
90
60
34
1F
ENDCHAR
STARTCHAR parenright
ENCODING 41
SWIDTH 283 0
DWIDTH 7 0
BBX 5 18 1 -3
BITMAP
B400
1A00
0300
0300
0340
0340
0340
0340
0340
0340
0340
0340
0340
0340
0300
0300
0A00
B800
ENDCHAR
STARTCHAR asterisk
ENCODING 42
SWIDTH 406 0
DWIDTH 10 0
BBX 7 6 1 9
BITMAP
0240
1244
6A78
0140
09A0
1820
ENDCHAR
STARTCHAR plus
ENCODING 43
SWIDTH 523 0
DWIDTH 13 0
BBX 10 9 1 3
BITMAP
006000
007000
007000
007000
7FFFE0
007000
007000
007000
006000
ENDCHAR
STARTCHAR comma
ENCODING 44
SWIDTH 191 0
DWIDTH 5 0
BBX 2 6 1 -3
BITMAP
70
70
70
60
50
40
ENDCHAR
STARTCHAR hyphen
ENCODING 45
SWIDTH 312 0
DWIDTH 7 0
BBX 6 1 1 7
BITMAP
FFD0
ENDCHAR
STARTCHAR period
ENCODING 46
SWIDTH 191 0
DWIDTH 5 0
BBX 2 3 1 0
BITMAP
70
70
70
ENDCHAR
STARTCHAR slash
ENCODING 47
SWIDTH 396 0
DWIDTH 10 0
BBX 7 15 1 0
BITMAP
001C
0028
0034
0070
0090
00C0
0280
0340
0700
0A00
0D00
1C00
2800
3400
6000
ENDCHAR
STARTCHAR zero
ENCODING 48
SWIDTH 514 0
DWIDTH 12 0
BBX 10 15 1 0
BITMAP
0BFE40
3801D0
7000A0
600060
600060
600060
600060
600060
600060
600060
600060
600060
7000A0
3801D0
0BFE40
ENDCHAR
STARTCHAR one
ENCODING 49
SWIDTH 317 0
DWIDTH 8 0
BBX 5 15 1 0
BITMAP
0780
7A80
D280
0280
0280
0280
0280
0280
0280
0280
0280
0280
0280
0280
0280
ENDCHAR
STARTCHAR two
ENCODING 50
SWIDTH 478 0
DWIDTH 11 0
BBX 9 15 1 0
BITMAP
1BFE00
740780
A001C0
A001C0
5001C0
000280
000740
002D00
01E000
074000
2D0000
700000
A00000
A00000
BFFFC0
ENDCHAR
STARTCHAR three
ENCODING 51
SWIDTH 496 0
DWIDTH 12 0
BBX 10 15 1 0
BITMAP
1BFE00
380280
7000D0
6000D0
5000D0
0000D0
000280
00BE00
000680
0000D0
5000D0
6000D0
7000D0
380280
1BFE00
ENDCHAR
STARTCHAR four
ENCODING 52
SWIDTH 520 0
DWIDTH 12 0
BBX 11 15 1 0
BITMAP
000780
000E80
002A80
007280
00D280
028280
030280
0A0280
1C0280
340280
A00280
FFFFF8
000280
000280
000280
ENDCHAR
STARTCHAR five
ENCODING 53
SWIDTH 482 0
DWIDTH 12 0
BBX 10 15 1 0
BITMAP
7FFFC0
600000
600000
600000
600000
6BFE00
790680
1000C0
0000D0
0000D0
5000D0
6000D0
7000C0
380680
0BFE00
ENDCHAR
STARTCHAR six
ENCODING 54
SWIDTH 497 0
DWIDTH 12 0
BBX 10 15 1 0
BITMAP
1BFF80
340000
600000
A00000
A00000
A00000
BFFE00
A00680
A000D0
A000D0
A00090
A000D0
6000D0
3402C0
1BFE00
ENDCHAR
STARTCHAR seven
ENCODING 55
SWIDTH 380 0
DWIDTH 9 0
BBX 9 15 0 0
BITMAP
BFFF80
000340
000700
000A00
000D00
001C00
002800
003000
00A000
00D000
01C000
028000
034000
070000
090000
ENDCHAR
STARTCHAR eight
ENCODING 56
SWIDTH 519 0
DWIDTH 12 0
BBX 10 15 1 0
BITMAP
0BFF40
3801D0
700060
600070
600070
700060
3801D0
1FFF80
2901D0
700060
600070
600070
700060
3801D0
1BFF40
ENDCHAR
STARTCHAR nine
ENCODING 57
SWIDTH 497 0
DWIDTH 12 0
BBX 10 15 1 0
BITMAP
1BFE00
340680
A000D0
A000D0
A000D0
A000D0
A000D0
7400D0
1FFFD0
0000D0
0000D0
0000D0
0000D0
000280
3FFE00
ENDCHAR
STARTCHAR colon
ENCODING 58
SWIDTH 191 0
DWIDTH 5 0
BBX 2 12 1 0
BITMAP
70
70
70
00
00
00
00
00
00
70
70
70
ENDCHAR
STARTCHAR semicolon
ENCODING 59
SWIDTH 191 0
DWIDTH 5 0
BBX 2 14 1 -2
BITMAP
70
70
70
00
00
00
00
00
50
70
70
60
60
50
ENDCHAR
STARTCHAR less
ENCODING 60
SWIDTH 513 0
DWIDTH 12 0
BBX 10 8 1 4
BITMAP
000050
001B90
01F400
2E4000
740000
1B9000
006E40
0002E0
ENDCHAR
STARTCHAR equal
ENCODING 61
SWIDTH 531 0
DWIDTH 13 0
BBX 10 5 1 5
BITMAP
7FFFF0
000000
000000
000000
7FFFF0
ENDCHAR
STARTCHAR greater
ENCODING 62
SWIDTH 531 0
DWIDTH 13 0
BBX 9 8 2 4
BITMAP
900000
B90000
06E400
001B80
0006C0
007900
1B9000
E40000
ENDCHAR
STARTCHAR question
ENCODING 63
SWIDTH 473 0
DWIDTH 11 0
BBX 9 15 1 0
BITMAP
0BF900
290700
300280
700280
600280
000740
001D00
007400
00A000
009000
005000
000000
009000
00E000
009000
ENDCHAR
STARTCHAR at
ENCODING 64
SWIDTH 753 0
DWIDTH 18 0
BBX 14 16 2 -1
BITMAP
01BFFE40
0A4001D0
34000030
60000030
902FF420
C0E42420
C1802420
C2802420
C2802420
C2802420
C1802430
C0D074A0
A07FAF80
34000000
1E000000
02FFF800
ENDCHAR
STARTCHAR A
ENCODING 65
SWIDTH 533 0
DWIDTH 13 0
BBX 12 15 0 0
BITMAP
002D00
003A00
007700
00A340
00D280
01C1C0
0280D0
0340A0
070070
0A0034
0FFFF8
1D001C
28000D
34000A
700007
ENDCHAR
STARTCHAR B
ENCODING 66
SWIDTH 546 0
DWIDTH 13 0
BBX 10 15 2 0
BITMAP
FFFE00
D00680
D000C0
D000D0
D000D0
D000C0
D00280
FFFE00
D00680
D000D0
D00090
D00090
D000D0
D002C0
FFFE00
ENDCHAR
STARTCHAR C
ENCODING 67
SWIDTH 542 0
DWIDTH 13 0
BBX 11 15 1 0
BITMAP
0BFF90
2900B0
300024
700028
700014
700000
700000
700000
700000
700000
700014
700028
300024
2900B0
0BFF90
ENDCHAR
STARTCHAR D
ENCODING 68
SWIDTH 557 0
DWIDTH 13 0
BBX 10 15 2 0
BITMAP
FFFE40
D002C0
D00090
D000A0
D000A0
D000A0
D000A0
D000A0
D000A0
D000A0
D000A0
D000A0
D00090
D002C0
FFFE40
ENDCHAR
STARTCHAR E
ENCODING 69
SWIDTH 481 0
DWIDTH 12 0
BBX 8 15 2 0
BITMAP
FFFF
D000
D000
D000
D000
D000
D000
FFFD
D000
D000
D000
D000
D000
D000
FFFF
ENDCHAR
STARTCHAR F
ENCODING 70
SWIDTH 459 0
DWIDTH 11 0
BBX 8 15 2 0
BITMAP
FFFF
D000
D000
D000
D000
D000
D000
FFFD
D000
D000
D000
D000
D000
D000
D000
ENDCHAR
STARTCHAR G
ENCODING 71
SWIDTH 539 0
DWIDTH 13 0
BBX 10 15 1 0
BITMAP
0BFF80
2901A0
300070
700030
700020
700000
700000
701FF0
700070
700030
700030
700030
300070
2901A0
0BFF80
ENDCHAR
STARTCHAR H
ENCODING 72
SWIDTH 570 0
DWIDTH 14 0
BBX 10 15 2 0
BITMAP
D000A0
D000A0
D000A0
D000A0
D000A0
D000A0
D000A0
FFFFE0
D000A0
D000A0
D000A0
D000A0
D000A0
D000A0
D000A0
ENDCHAR
STARTCHAR I
ENCODING 73
SWIDTH 230 0
DWIDTH 6 0
BBX 2 15 2 0
BITMAP
90
D0
D0
D0
D0
D0
D0
D0
D0
D0
D0
D0
D0
D0
90
ENDCHAR
STARTCHAR J
ENCODING 74
SWIDTH 499 0
DWIDTH 12 0
BBX 9 15 1 0
BITMAP
0000C0
0000C0
0000C0
0000C0
0000C0
0000C0
0000C0
0000C0
0000C0
8000C0
C000C0
C000C0
D001C0
B40780
2FFE00
ENDCHAR
STARTCHAR K
ENCODING 75
SWIDTH 530 0
DWIDTH 13 0
BBX 10 15 2 0
BITMAP
D001C0
D00340
D00A00
D02800
D07000
D1D000
D38000
DAC000
E8A000
F03400
D01D00
D00A00
D00280
D001D0
D00070
ENDCHAR
STARTCHAR L
ENCODING 76
SWIDTH 451 0
DWIDTH 11 0
BBX 9 15 2 0
BITMAP
D00000
D00000
D00000
D00000
D00000
D00000
D00000
D00000
D00000
D00000
D00000
D00000
D00000
D00000
FFFF40
ENDCHAR
STARTCHAR M
ENCODING 77
SWIDTH 696 0
DWIDTH 17 0
BBX 13 15 2 0
BITMAP
F0000780
F4000B80
E8000E80
DD002A80
D6003680
D3006280
D280D280
D0C1C280
D0924280
D0770280
D02E0280
D0180280
D0000280
D0000280
D0000280
ENDCHAR
STARTCHAR N
ENCODING 78
SWIDTH 579 0
DWIDTH 14 0
BBX 10 15 2 0
BITMAP
D00070
F00070
F80070
DD0070
DA0070
D34070
D1C070
D0A070
D03470
D01870
D00D70
D00770
D002F0
D000F0
D00070
ENDCHAR
STARTCHAR O
ENCODING 79
SWIDTH 553 0
DWIDTH 13 0
BBX 11 15 1 0
BITMAP
0BFF80
2900B0
300034
700024
700024
700024
700024
700024
700024
700024
700024
700024
300034
2900B0
0BFF90
ENDCHAR
STARTCHAR P
ENCODING 80
SWIDTH 524 0
DWIDTH 13 0
BBX 10 15 2 0
BITMAP
FFFE00
D00680
D001C0
D000D0
D000D0
D000D0
D000C0
D00280
FFFE00
D00000
D00000
D00000
D00000
D00000
D00000
ENDCHAR
STARTCHAR Q
ENCODING 81
SWIDTH 556 0
DWIDTH 13 0
BBX 11 18 1 -3
BITMAP
0BFF90
2900B0
340034
300028
700028
700028
700028
700028
700028
700028
700028
300028
340034
2900B0
0BFF90
000A00
000340
0001C0
ENDCHAR
STARTCHAR R
ENCODING 82
SWIDTH 534 0
DWIDTH 13 0
BBX 10 15 2 0
BITMAP
FFFE00
D00780
D001C0
D000C0
D000C0
D000C0
D001C0
D00280
FFFE00
D02800
D00D00
D00A00
D00340
D00280
D000D0
ENDCHAR
STARTCHAR S
ENCODING 83
SWIDTH 562 0
DWIDTH 13 0
BBX 10 15 2 0
BITMAP
2FFE40
B402C0
D000D0
D00090
D00000
E00000
790000
06F900
001B80
0000D0
4000A0
D000A0
D000D0
B402C0
2FFE40
ENDCHAR
STARTCHAR T
ENCODING 84
SWIDTH 420 0
DWIDTH 10 0
BBX 10 15 0 0
BITMAP
BFFFE0
00A000
00A000
00A000
00A000
00A000
00A000
00A000
00A000
00A000
00A000
00A000
00A000
00A000
00A000
ENDCHAR
STARTCHAR U
ENCODING 85
SWIDTH 552 0
DWIDTH 13 0
BBX 10 15 2 0
BITMAP
C000D0
C000D0
C000D0
C000D0
C000D0
C000D0
C000D0
C000D0
C000D0
C000D0
C000D0
C000D0
D000D0
B40680
2FFE00
ENDCHAR
STARTCHAR V
ENCODING 86
SWIDTH 500 0
DWIDTH 12 0
BBX 12 15 0 0
BITMAP
70000D
34001C
280028
1C0034
0D0070
0A00A0
060090
0300C0
024180
018240
00C300
00D700
00AA00
007D00
003C00
ENDCHAR
STARTCHAR W
ENCODING 87
SWIDTH 794 0
DWIDTH 19 0
BBX 18 15 1 0
BITMAP
C001D000D0
D002E001C0
A003700280
A003340280
7006240340
3409180700
240C0C0700
281C0D0A00
1C280A0900
0C24060D00
0D30031C00
0A60025800
06A001A800
07D001F400
03C000F000
ENDCHAR
STARTCHAR X
ENCODING 88
SWIDTH 504 0
DWIDTH 12 0
BBX 10 15 1 0
BITMAP
A00070
7000D0
280280
0D0700
070900
029C00
00F400
00F000
02A800
034D00
0A0A00
1C0340
3401C0
7000A0
D00070
ENDCHAR
STARTCHAR Y
ENCODING 89
SWIDTH 493 0
DWIDTH 12 0
BBX 11 15 0 0
BITMAP
70001C
280028
1C0070
0A00A0
0701C0
028240
01C700
00A900
003C00
002800
002800
002800
002800
002800
002400
ENDCHAR
STARTCHAR Z
ENCODING 90
SWIDTH 482 0
DWIDTH 12 0
BBX 10 15 1 0
BITMAP
BFFFD0
0001C0
000380
000B00
001D00
002800
007000
00D000
028000
074000
0E0000
2C0000
340000
A00000
FFFFE0
ENDCHAR
STARTCHAR bracketleft
ENCODING 91
SWIDTH 287 0
DWIDTH 7 0
BBX 5 18 1 -3
BITMAP
7F40
6000
6000
6000
6000
6000
6000
6000
6000
6000
6000
6000
6000
6000
6000
6000
6000
7F40
ENDCHAR
STARTCHAR backslash
ENCODING 92
SWIDTH 396 0
DWIDTH 10 0
BBX 7 15 1 0
BITMAP
6000
3400
2800
1C00
0D00
0A00
0700
0340
0280
00C0
0090
0070
0034
0028
001C
ENDCHAR
STARTCHAR bracketright
ENCODING 93
SWIDTH 287 0
DWIDTH 7 0
BBX 4 18 1 -3
BITMAP
BF
03
03
03
03
03
03
03
03
03
03
03
03
03
03
03
03
BF
ENDCHAR
STARTCHAR asciicircum
ENCODING 94
SWIDTH 465 0
DWIDTH 11 0
BBX 9 7 1 8
BITMAP
01E000
037400
0A1800
0C0D00
280700
700240
500140
ENDCHAR
STARTCHAR underscore
ENCODING 95
SWIDTH 372 0
DWIDTH 9 0
BBX 9 1 0 -2
BITMAP
FFFFC0
ENDCHAR
STARTCHAR grave
ENCODING 96
SWIDTH 269 0
DWIDTH 6 0
BBX 3 3 2 14
BITMAP
D0
70
18
ENDCHAR
STARTCHAR a
ENCODING 97
SWIDTH 502 0
DWIDTH 12 0
BBX 10 12 1 0
BITMAP
0BFFD0
3800D0
7000D0
6000D0
6000D0
6000D0
6000D0
6000D0
6000D0
7000D0
3806D0
0BFDD0
ENDCHAR
STARTCHAR b
ENCODING 98
SWIDTH 504 0
DWIDTH 12 0
BBX 10 17 1 0
BITMAP
700000
700000
700000
700000
700000
76FE40
7902C0
740090
7000A0
7000A0
7000A0
7000A0
7000A0
7000A0
700090
7002C0
7FFE40
ENDCHAR
STARTCHAR c
ENCODING 99
SWIDTH 394 0
DWIDTH 9 0
BBX 8 12 1 0
BITMAP
0BFE
3800
7000
6000
6000
6000
6000
6000
6000
7000
3800
0BFE
ENDCHAR
STARTCHAR d
ENCODING 100
SWIDTH 504 0
DWIDTH 12 0
BBX 10 17 1 0
BITMAP
0000D0
0000D0
0000D0
0000D0
0000D0
0BFDD0
3806D0
7000D0
6000D0
6000D0
6000D0
6000D0
6000D0
6000D0
7000D0
3806D0
0BFDD0
ENDCHAR
STARTCHAR e
ENCODING 101
SWIDTH 492 0
DWIDTH 12 0
BBX 10 12 1 0
BITMAP
0BFE00
380280
7000D0
6000D0
600090
6000D0
7FFFD0
600000
600000
700000
380000
0BFFD0
ENDCHAR
STARTCHAR f
ENCODING 102
SWIDTH 303 0
DWIDTH 7 0
BBX 6 17 1 0
BITMAP
02E0
0A00
0D00
0C00
0C00
FFE0
1D00
0C00
0C00
0C00
0C00
0C00
0C00
0C00
0C00
0C00
0C00
ENDCHAR
STARTCHAR g
ENCODING 103
SWIDTH 506 0
DWIDTH 12 0
BBX 10 15 1 -3
BITMAP
0BFFD0
2800D0
7000D0
7000D0
7000D0
7000D0
7000D0
7000D0
7000D0
3802D0
1BFED0
0000D0
0000D0
0002C0
2FFE00
ENDCHAR
STARTCHAR h
ENCODING 104
SWIDTH 507 0
DWIDTH 12 0
BBX 10 17 1 0
BITMAP
700000
700000
700000
700000
700000
76FE40
7902C0
7400D0
700090
700090
700090
700090
700090
700090
700090
700090
700090
ENDCHAR
STARTCHAR i
ENCODING 105
SWIDTH 210 0
DWIDTH 5 0
BBX 1 17 2 0
BITMAP
C0
C0
C0
00
00
C0
C0
C0
C0
C0
C0
C0
C0
C0
C0
C0
C0
ENDCHAR
STARTCHAR j
ENCODING 106
SWIDTH 210 0
DWIDTH 5 0
BBX 5 20 -2 -3
BITMAP
00C0
00C0
00C0
0000
0000
00C0
00C0
00C0
00C0
00C0
00C0
00C0
00C0
00C0
00C0
00C0
00C0
01C0
0680
7E00
ENDCHAR
STARTCHAR k
ENCODING 107
SWIDTH 431 0
DWIDTH 10 0
BBX 9 17 1 0
BITMAP
700000
700000
700000
700000
700000
700340
700A00
701C00
703400
70A000
71C000
70D000
707000
702800
700D00
700740
700280
ENDCHAR
STARTCHAR l
ENCODING 108
SWIDTH 210 0
DWIDTH 5 0
BBX 1 17 2 0
BITMAP
C0
C0
C0
C0
C0
C0
C0
C0
C0
C0
C0
C0
C0
C0
C0
C0
C0
ENDCHAR
STARTCHAR m
ENCODING 109
SWIDTH 769 0
DWIDTH 18 0
BBX 16 12 1 0
BITMAP
76FD1BE4
7907A41D
7401C00A
7001C006
7001C006
7001C006
7001C006
7001C006
7001C006
7001C006
7001C006
7001C006
ENDCHAR
STARTCHAR n
ENCODING 110
SWIDTH 507 0
DWIDTH 12 0
BBX 10 12 1 0
BITMAP
76FE40
7902C0
7400D0
700090
700090
700090
700090
700090
700090
700090
700090
700090
ENDCHAR
STARTCHAR o
ENCODING 111
SWIDTH 496 0
DWIDTH 12 0
BBX 10 12 1 0
BITMAP
0BFE00
380280
7000D0
6000D0
600090
600090
600090
600090
6000D0
7000D0
380280
0BFE00
ENDCHAR
STARTCHAR p
ENCODING 112
SWIDTH 504 0
DWIDTH 12 0
BBX 10 15 1 -3
BITMAP
76FE40
7902C0
740090
7000A0
7000A0
7000A0
7000A0
7000A0
7000A0
740090
7902C0
77FE40
700000
700000
700000
ENDCHAR
STARTCHAR q
ENCODING 113
SWIDTH 502 0
DWIDTH 12 0
BBX 10 15 1 -3
BITMAP
0BFFD0
3800D0
7000D0
6000D0
6000D0
6000D0
6000D0
6000D0
6000D0
7001D0
3806D0
0BFDD0
0000D0
0000D0
0000D0
ENDCHAR
STARTCHAR r
ENCODING 114
SWIDTH 313 0
DWIDTH 8 0
BBX 6 12 1 0
BITMAP
76F0
7900
7400
7000
7000
7000
7000
7000
7000
7000
7000
7000
ENDCHAR
STARTCHAR s
ENCODING 115
SWIDTH 431 0
DWIDTH 10 0
BBX 8 12 1 0
BITMAP
2FFD
B400
9000
A000
7800
0B90
006D
000A
0007
0007
001A
BFF8
ENDCHAR
STARTCHAR t
ENCODING 116
SWIDTH 347 0
DWIDTH 8 0
BBX 8 15 0 0
BITMAP
0500
0600
0600
7FFC
0A00
0600
0600
0600
0600
0600
0600
0600
0700
0380
00BD
ENDCHAR
STARTCHAR u
ENCODING 117
SWIDTH 507 0
DWIDTH 12 0
BBX 10 12 1 0
BITMAP
700090
700090
700090
700090
700090
700090
700090
700090
7000D0
7000D0
2906D0
0BFD90
ENDCHAR
STARTCHAR v
ENCODING 118
SWIDTH 416 0
DWIDTH 10 0
BBX 10 12 0 0
BITMAP
600090
3000C0
240180
180240
1C0300
0D0600
0A0A00
070D00
035C00
02A800
01F400
00F000
ENDCHAR
STARTCHAR w
ENCODING 119
SWIDTH 683 0
DWIDTH 16 0
BBX 16 12 0 0
BITMAP
6002C006
3002D00A
3403900D
2806601C
1C093028
0D0C2434
091C2830
06181860
03240C90
027009D0
02E007C0
01E00380
ENDCHAR
STARTCHAR x
ENCODING 120
SWIDTH 413 0
DWIDTH 10 0
BBX 9 12 0 0
BITMAP
3401C0
1C0340
0D0A00
070D00
02A800
00F000
01F000
026800
070D00
0D0700
280280
7401C0
ENDCHAR
STARTCHAR y
ENCODING 121
SWIDTH 459 0
DWIDTH 11 0
BBX 11 15 0 -3
BITMAP
700034
340070
1800A0
0C00D0
090180
070240
034700
028A00
01CD00
00EC00
00B800
003400
007000
01D000
2F4000
ENDCHAR
STARTCHAR z
ENCODING 122
SWIDTH 405 0
DWIDTH 10 0
BBX 8 12 1 0
BITMAP
FFFE
000D
0028
0070
00E0
02C0
0740
0A00
1C00
3400
A000
FFFF
ENDCHAR
STARTCHAR braceleft
ENCODING 123
SWIDTH 298 0
DWIDTH 7 0
BBX 5 18 1 -3
BITMAP
0780
0D00
1800
1800
1800
1800
1800
2400
E000
6400
1800
1800
1800
1800
1800
1800
0D00
0780
ENDCHAR
STARTCHAR bar
ENCODING 124
SWIDTH 207 0
DWIDTH 5 0
BBX 1 15 2 0
BITMAP
C0
C0
C0
C0
C0
C0
C0
C0
C0
C0
C0
C0
C0
C0
C0
ENDCHAR
STARTCHAR braceright
ENCODING 125
SWIDTH 298 0
DWIDTH 7 0
BBX 5 18 1 -3
BITMAP
E000
2800
1C00
0C00
0C00
0C00
0C00
0D00
0780
0A00
0C00
0C00
0C00
0C00
0C00
1C00
2800
E000
ENDCHAR
STARTCHAR asciitilde
ENCODING 126
SWIDTH 523 0
DWIDTH 13 0
BBX 9 1 2 7
BITMAP
BFFF80
ENDCHAR
STARTCHAR uni00A0
ENCODING 160
SWIDTH 267 0
DWIDTH 6 0
BBX 1 1 0 0
BITMAP
00
ENDCHAR
STARTCHAR exclamdown
ENCODING 161
SWIDTH 237 0
DWIDTH 6 0
BBX 2 15 2 0
BITMAP
90
90
90
00
00
90
90
90
90
90
A0
E0
E0
E0
A0
ENDCHAR
STARTCHAR cent
ENCODING 162
SWIDTH 414 0
DWIDTH 10 0
BBX 8 17 1 -2
BITMAP
0010
0060
0060
0BFF
3800
7000
6000
6000
6000
6000
6000
6000
7000
3800
0BFF
0060
0060
ENDCHAR
STARTCHAR sterling
ENCODING 163
SWIDTH 528 0
DWIDTH 13 0
BBX 10 15 1 0
BITMAP
06FF40
0E01D0
1C0060
180060
180000
180000
180000
FFFC00
1C0000
180000
180000
180000
180000
240000
FFFFF0
ENDCHAR
STARTCHAR yen
ENCODING 165
SWIDTH 499 0
DWIDTH 12 0
BBX 10 15 1 0
BITMAP
D00070
A000A0
7401C0
280280
1C0700
0A0A00
070C00
FFAFF0
01F000
00A000
FFFFF0
00A000
00A000
00A000
00A000
ENDCHAR
STARTCHAR brokenbar
ENCODING 166
SWIDTH 201 0
DWIDTH 5 0
BBX 1 15 2 0
BITMAP
C0
C0
C0
C0
C0
C0
00
00
00
C0
C0
C0
C0
C0
C0
ENDCHAR
STARTCHAR section
ENCODING 167
SWIDTH 454 0
DWIDTH 11 0
BBX 9 15 1 0
BITMAP
1FFE00
740000
A00000
A00000
B90000
ABF800
A01B00
600240
380240
1BEA40
001B40
000340
000340
000700
7FF900
ENDCHAR
STARTCHAR dieresis
ENCODING 168
SWIDTH 345 0
DWIDTH 8 0
BBX 6 3 1 14
BITMAP
6060
6060
6060
ENDCHAR
STARTCHAR copyright
ENCODING 169
SWIDTH 723 0
DWIDTH 17 0
BBX 15 15 1 0
BITMAP
0BFFFF90
28000074
30000024
602FE018
60642818
60901818
60900418
60900018
60900418
60900818
60602818
601BE018
30000024
28000074
0BFFFF90
ENDCHAR
STARTCHAR guillemotleft
ENCODING 171
SWIDTH 431 0
DWIDTH 10 0
BBX 8 8 1 2
BITMAP
0246
0A1D
2874
60D0
7090
1C24
0709
0142
ENDCHAR
STARTCHAR registered
ENCODING 174
SWIDTH 439 0
DWIDTH 11 0
BBX 8 8 1 9
BITMAP
1FF8
2406
53E2
5222
53E2
5252
2116
1FFC
ENDCHAR
STARTCHAR macron
ENCODING 175
SWIDTH 358 0
DWIDTH 9 0
BBX 6 1 1 14
BITMAP
7FF0
ENDCHAR
STARTCHAR degree
ENCODING 176
SWIDTH 298 0
DWIDTH 7 0
BBX 4 5 2 12
BITMAP
BC
89
89
89
FC
ENDCHAR
STARTCHAR plusminus
ENCODING 177
SWIDTH 523 0
DWIDTH 13 0
BBX 10 9 1 3
BITMAP
006000
007000
007000
7FFFE0
007000
007000
006000
000000
7FFFE0
ENDCHAR
STARTCHAR acute
ENCODING 180
SWIDTH 269 0
DWIDTH 6 0
BBX 4 3 1 14
BITMAP
0E
28
60
ENDCHAR
STARTCHAR paragraph
ENCODING 182
SWIDTH 513 0
DWIDTH 12 0
BBX 10 15 1 0
BITMAP
2FFFD0
BF40D0
BF40D0
BF40D0
BF40D0
BF40D0
7F40D0
0740D0
0340D0
0340D0
0340D0
0340D0
0340D0
0340D0
0340D0
ENDCHAR
STARTCHAR periodcentered
ENCODING 183
SWIDTH 207 0
DWIDTH 5 0
BBX 2 3 1 6
BITMAP
70
70
70
ENDCHAR
STARTCHAR cedilla
ENCODING 184
SWIDTH 257 0
DWIDTH 6 0
BBX 4 5 1 -4
BITMAP
18
34
79
06
7D
ENDCHAR
STARTCHAR guillemotright
ENCODING 187
SWIDTH 431 0
DWIDTH 10 0
BBX 8 8 1 2
BITMAP
5080
2860
0A18
0246
034A
0D28
34A0
5080
ENDCHAR
STARTCHAR questiondown
ENCODING 191
SWIDTH 473 0
DWIDTH 11 0
BBX 9 15 1 0
BITMAP
00C000
00D000
00C000
000000
004000
00C000
01C000
028000
0A0000
280000
700140
700280
300280
280700
0BF900
ENDCHAR
STARTCHAR Agrave
ENCODING 192
SWIDTH 532 0
DWIDTH 13 0
BBX 12 20 0 0
BITMAP
014000
00A000
003400
001400
000000
002D00
003A00
007700
00A340
00D280
01C1C0
0280D0
0340A0
070070
0A0034
0FFFF8
1D001C
28000D
34000A
700007
ENDCHAR
STARTCHAR Aacute
ENCODING 193
SWIDTH 532 0
DWIDTH 13 0
BBX 12 20 0 0
BITMAP
000040
000280
000600
000400
000000
002D00
003A00
007700
00A340
00D280
01C1C0
0280D0
0340A0
070070
0A0034
0FFFF8
1D001C
28000D
34000A
700007
ENDCHAR
STARTCHAR Acircumflex
ENCODING 194
SWIDTH 532 0
DWIDTH 13 0
BBX 12 20 0 0
BITMAP
000400
002A00
006240
004140
000000
002D00
003A00
007700
00A340
00D280
01C1C0
0280D0
0340A0
070070
0A0034
0FFFF8
1D001C
28000D
34000A
700007
ENDCHAR
STARTCHAR Atilde
ENCODING 195
SWIDTH 532 0
DWIDTH 13 0
BBX 12 20 0 0
BITMAP
008740
008980
008880
00A480
000000
002D00
003A00
007700
00A340
00D280
01C1C0
0280D0
0340A0
070070
0A0034
0FFFF8
1D001C
28000D
34000A
700007
ENDCHAR
STARTCHAR Adieresis
ENCODING 196
SWIDTH 532 0
DWIDTH 13 0
BBX 12 20 0 0
BITMAP
00C1C0
00C1C0
00C1C0
000000
000000
002D00
003A00
007700
00A340
00D280
01C1C0
0280D0
0340A0
070070
0A0034
0FFFF8
1D001C
28000D
34000A
700007
ENDCHAR
STARTCHAR Aring
ENCODING 197
SWIDTH 532 0
DWIDTH 13 0
BBX 12 21 0 0
BITMAP
002E00
009240
008140
009240
007E00
000000
002D00
003A00
007700
00A340
00D280
01C1C0
0280D0
0340A0
070070
0A0034
0FFFF8
1D001C
28000D
34000A
700007
ENDCHAR
STARTCHAR AE
ENCODING 198
SWIDTH 773 0
DWIDTH 19 0
BBX 17 15 0 0
BITMAP
0000FFFFC0
0002F40000
0003740000
000A340000
001D340000
0028340000
0070340000
00E03FFF40
01C0340000
0340340000
0BFFF40000
0D00340000
2800340000
7000340000
A0003FFFC0
ENDCHAR
STARTCHAR Ccedilla
ENCODING 199
SWIDTH 542 0
DWIDTH 13 0
BBX 11 19 1 -4
BITMAP
0BFF90
2900B0
300024
700028
700014
700000
700000
700000
700000
700000
700014
700028
300024
2900B0
0BFF90
002400
006800
000500
007D00
ENDCHAR
STARTCHAR Egrave
ENCODING 200
SWIDTH 481 0
DWIDTH 12 0
BBX 8 20 2 0
BITMAP
1400
0E00
0340
0140
0000
FFFF
D000
D000
D000
D000
D000
D000
FFFD
D000
D000
D000
D000
D000
D000
FFFF
ENDCHAR
STARTCHAR Eacute
ENCODING 201
SWIDTH 481 0
DWIDTH 12 0
BBX 8 20 2 0
BITMAP
0014
00B0
00D0
0140
0000
FFFF
D000
D000
D000
D000
D000
D000
FFFD
D000
D000
D000
D000
D000
D000
FFFF
ENDCHAR
STARTCHAR Ecircumflex
ENCODING 202
SWIDTH 481 0
DWIDTH 12 0
BBX 8 20 2 0
BITMAP
0140
0690
0960
0410
0000
FFFF
D000
D000
D000
D000
D000
D000
FFFD
D000
D000
D000
D000
D000
D000
FFFF
ENDCHAR
STARTCHAR Edieresis
ENCODING 203
SWIDTH 481 0
DWIDTH 12 0
BBX 8 20 2 0
BITMAP
2828
2828
2828
0000
0000
FFFF
D000
D000
D000
D000
D000
D000
FFFD
D000
D000
D000
D000
D000
D000
FFFF
ENDCHAR
STARTCHAR Igrave
ENCODING 204
SWIDTH 230 0
DWIDTH 6 0
BBX 4 20 0 0
BITMAP
50
70
28
04
00
09
0D
0D
0D
0D
0D
0D
0D
0D
0D
0D
0D
0D
0D
09
ENDCHAR
STARTCHAR Iacute
ENCODING 205
SWIDTH 231 0
DWIDTH 6 0
BBX 4 20 2 0
BITMAP
05
2C
70
50
00
90
D0
D0
D0
D0
D0
D0
D0
D0
D0
D0
D0
D0
D0
90
ENDCHAR
STARTCHAR Icircumflex
ENCODING 206
SWIDTH 229 0
DWIDTH 6 0
BBX 5 20 0 0
BITMAP
0500
1B00
3180
5040
0000
0900
0D00
0D00
0D00
0D00
0D00
0D00
0D00
0D00
0D00
0D00
0D00
0D00
0D00
0900
ENDCHAR
STARTCHAR Idieresis
ENCODING 207
SWIDTH 230 0
DWIDTH 6 0
BBX 6 20 0 0
BITMAP
90D0
90D0
90D0
0000
0000
0900
0D00
0D00
0D00
0D00
0D00
0D00
0D00
0D00
0D00
0D00
0D00
0D00
0D00
0900
ENDCHAR
STARTCHAR Eth
ENCODING 208
SWIDTH 514 0
DWIDTH 12 0
BBX 12 15 0 0
BITMAP
0FFFE4
0D001C
0D000A
0D000A
0D000A
0D000A
0D000A
7FFD0A
0D000A
0D000A
0D000A
0D000A
0D000A
0D001C
0FFFE4
ENDCHAR
STARTCHAR Ntilde
ENCODING 209
SWIDTH 579 0
DWIDTH 14 0
BBX 10 20 2 0
BITMAP
082C00
086500
099600
078600
000000
D00070
F00070
F80070
DD0070
DA0070
D34070
D1C070
D0A070
D03470
D01870
D00D70
D00770
D002F0
D000F0
D00070
ENDCHAR
STARTCHAR Ograve
ENCODING 210
SWIDTH 553 0
DWIDTH 13 0
BBX 11 20 1 0
BITMAP
014000
01C000
00A000
001000
000000
0BFF80
2900B0
300034
700024
700024
700024
700024
700024
700024
700024
700024
700024
300034
2900B0
0BFF90
ENDCHAR
STARTCHAR Oacute
ENCODING 211
SWIDTH 553 0
DWIDTH 13 0
BBX 11 20 1 0
BITMAP
000100
000A00
001800
001000
000000
0BFF80
2900B0
300034
700024
700024
700024
700024
700024
700024
700024
700024
700024
300034
2900B0
0BFF90
ENDCHAR
STARTCHAR Ocircumflex
ENCODING 212
SWIDTH 553 0
DWIDTH 13 0
BBX 11 20 1 0
BITMAP
001000
00A800
018900
014100
000000
0BFF80
2900B0
300034
700024
700024
700024
700024
700024
700024
700024
700024
700024
300034
2900B0
0BFF90
ENDCHAR
STARTCHAR Otilde
ENCODING 213
SWIDTH 553 0
DWIDTH 13 0
BBX 11 20 1 0
BITMAP
020E00
022600
022240
02D240
000000
0BFF80
2900B0
300034
700024
700024
700024
700024
700024
700024
700024
700024
700024
300034
2900B0
0BFF90
ENDCHAR
STARTCHAR Odieresis
ENCODING 214
SWIDTH 553 0
DWIDTH 13 0
BBX 11 20 1 0
BITMAP
034300
034340
034300
000000
000000
0BFF80
2900B0
300034
700024
700024
700024
700024
700024
700024
700024
700024
700024
300034
2900B0
0BFF90
ENDCHAR
STARTCHAR multiply
ENCODING 215
SWIDTH 493 0
DWIDTH 12 0
BBX 8 7 2 4
BITMAP
A01D
2874
0BD0
07C0
1EA0
7828
5009
ENDCHAR
STARTCHAR Oslash
ENCODING 216
SWIDTH 559 0
DWIDTH 13 0
BBX 11 15 1 0
BITMAP
0BFF98
290078
340074
3000B8
300268
300628
300C28
302428
30A028
318028
370028
390028
380024
7900B0
9BFF90
ENDCHAR
STARTCHAR Ugrave
ENCODING 217
SWIDTH 552 0
DWIDTH 13 0
BBX 10 20 2 0
BITMAP
050000
074000
018000
004000
000000
C000D0
C000D0
C000D0
C000D0
C000D0
C000D0
C000D0
C000D0
C000D0
C000D0
C000D0
C000D0
D000D0
B40680
2FFE00
ENDCHAR
STARTCHAR Uacute
ENCODING 218
SWIDTH 552 0
DWIDTH 13 0
BBX 10 20 2 0
BITMAP
000400
002800
006000
004000
000000
C000D0
C000D0
C000D0
C000D0
C000D0
C000D0
C000D0
C000D0
C000D0
C000D0
C000D0
C000D0
D000D0
B40680
2FFE00
ENDCHAR
STARTCHAR Ucircumflex
ENCODING 219
SWIDTH 552 0
DWIDTH 13 0
BBX 10 20 2 0
BITMAP
004000
02A000
062400
050400
000000
C000D0
C000D0
C000D0
C000D0
C000D0
C000D0
C000D0
C000D0
C000D0
C000D0
C000D0
C000D0
D000D0
B40680
2FFE00
ENDCHAR
STARTCHAR Udieresis
ENCODING 220
SWIDTH 552 0
DWIDTH 13 0
BBX 10 20 2 0
BITMAP
0D0C00
0D0D00
0D0C00
000000
000000
C000D0
C000D0
C000D0
C000D0
C000D0
C000D0
C000D0
C000D0
C000D0
C000D0
C000D0
C000D0
D000D0
B40680
2FFE00
ENDCHAR
STARTCHAR Yacute
ENCODING 221
SWIDTH 493 0
DWIDTH 12 0
BBX 11 20 0 0
BITMAP
000140
000B00
000D00
001400
000000
70001C
280028
1C0070
0A00A0
0701C0
028240
01C700
00A900
003C00
002800
002800
002800
002800
002800
002400
ENDCHAR
STARTCHAR Thorn
ENCODING 222
SWIDTH 501 0
DWIDTH 12 0
BBX 9 15 2 0
BITMAP
700000
700000
700000
7FF800
701A00
700340
700340
700340
700340
700340
700B00
7FF800
700000
700000
700000
ENDCHAR
STARTCHAR germandbls
ENCODING 223
SWIDTH 540 0
DWIDTH 13 0
BBX 10 15 2 0
BITMAP
2FFD00
A40780
D001C0
C001C0
C000C0
C001C0
C00780
C0FE00
C00780
C000C0
C000D0
C000D0
C000C0
C00680
C2FE00
ENDCHAR
STARTCHAR agrave
ENCODING 224
SWIDTH 502 0
DWIDTH 12 0
BBX 10 17 1 0
BITMAP
028000
00D000
007000
001000
000000
0BFFD0
3800D0
7000D0
6000D0
6000D0
6000D0
6000D0
6000D0
6000D0
7000D0
3806D0
0BFDD0
ENDCHAR
STARTCHAR aacute
ENCODING 225
SWIDTH 502 0
DWIDTH 12 0
BBX 10 17 1 0
BITMAP
000A00
001C00
003400
001000
000000
0BFFD0
3800D0
7000D0
6000D0
6000D0
6000D0
6000D0
6000D0
6000D0
7000D0
3806D0
0BFDD0
ENDCHAR
STARTCHAR acircumflex
ENCODING 226
SWIDTH 502 0
DWIDTH 12 0
BBX 10 17 1 0
BITMAP
00B400
00D800
024900
010100
000000
0BFFD0
3800D0
7000D0
6000D0
6000D0
6000D0
6000D0
6000D0
6000D0
7000D0
3806D0
0BFDD0
ENDCHAR
STARTCHAR atilde
ENCODING 227
SWIDTH 504 0
DWIDTH 12 0
BBX 10 17 1 0
BITMAP
021E00
022600
022200
019200
000000
0BFFD0
3800D0
7000D0
6000D0
6000D0
6000D0
6000D0
6000D0
6000D0
7000D0
3806D0
0BFDD0
ENDCHAR
STARTCHAR adieresis
ENCODING 228
SWIDTH 502 0
DWIDTH 12 0
BBX 10 17 1 0
BITMAP
030700
030700
030700
000000
000000
0BFFD0
3800D0
7000D0
6000D0
6000D0
6000D0
6000D0
6000D0
6000D0
7000D0
3806D0
0BFDD0
ENDCHAR
STARTCHAR aring
ENCODING 229
SWIDTH 502 0
DWIDTH 12 0
BBX 10 17 1 0
BITMAP
01F800
024800
020800
02F800
000000
0BFFD0
3800D0
7000D0
6000D0
6000D0
6000D0
6000D0
6000D0
6000D0
7000D0
3806D0
0BFDD0
ENDCHAR
STARTCHAR ae
ENCODING 230
SWIDTH 795 0
DWIDTH 19 0
BBX 17 12 1 0
BITMAP
1FFE1FF900
0006B40700
0001D00240
0000D00280
0000D00280
0BFFD00280
3800FFFF80
7000D00000
6000D00000
7000D00000
3806B40000
1BFD2FFF80
ENDCHAR
STARTCHAR ccedilla
ENCODING 231
SWIDTH 394 0
DWIDTH 9 0
BBX 8 16 1 -4
BITMAP
0BFE
3800
7000
6000
6000
6000
6000
6000
6000
7000
3800
0BFE
0090
01A4
0018
01F4
ENDCHAR
STARTCHAR egrave
ENCODING 232
SWIDTH 492 0
DWIDTH 12 0
BBX 10 17 1 0
BITMAP
074000
028000
00D000
001000
000000
0BFE00
380280
7000D0
6000D0
600090
6000D0
7FFFD0
600000
600000
700000
380000
0BFFD0
ENDCHAR
STARTCHAR eacute
ENCODING 233
SWIDTH 492 0
DWIDTH 12 0
BBX 10 17 1 0
BITMAP
001D00
003400
006000
004000
000000
0BFE00
380280
7000D0
6000D0
600090
6000D0
7FFFD0
600000
600000
700000
380000
0BFFD0
ENDCHAR
STARTCHAR ecircumflex
ENCODING 234
SWIDTH 492 0
DWIDTH 12 0
BBX 10 17 1 0
BITMAP
00A000
01A400
030C00
010400
000000
0BFE00
380280
7000D0
6000D0
600090
6000D0
7FFFD0
600000
600000
700000
380000
0BFFD0
ENDCHAR
STARTCHAR edieresis
ENCODING 235
SWIDTH 492 0
DWIDTH 12 0
BBX 10 17 1 0
BITMAP
0A0900
0A0A00
0A0900
000000
000000
0BFE00
380280
7000D0
6000D0
600090
6000D0
7FFFD0
600000
600000
700000
380000
0BFFD0
ENDCHAR
STARTCHAR igrave
ENCODING 236
SWIDTH 210 0
DWIDTH 5 0
BBX 3 17 0 0
BITMAP
D0
70
28
04
00
0C
0C
0C
0C
0C
0C
0C
0C
0C
0C
0C
0C
ENDCHAR
STARTCHAR iacute
ENCODING 237
SWIDTH 208 0
DWIDTH 5 0
BBX 3 17 2 0
BITMAP
1C
34
A0
40
00
C0
C0
C0
C0
C0
C0
C0
C0
C0
C0
C0
C0
ENDCHAR
STARTCHAR icircumflex
ENCODING 238
SWIDTH 210 0
DWIDTH 5 0
BBX 5 17 0 0
BITMAP
1D00
3700
6240
4040
0000
0C00
0C00
0C00
0C00
0C00
0C00
0C00
0C00
0C00
0C00
0C00
0C00
ENDCHAR
STARTCHAR idieresis
ENCODING 239
SWIDTH 210 0
DWIDTH 5 0
BBX 5 17 0 0
BITMAP
C0C0
C0C0
C0C0
0000
0000
0C00
0C00
0C00
0C00
0C00
0C00
0C00
0C00
0C00
0C00
0C00
0C00
ENDCHAR
STARTCHAR eth
ENCODING 240
SWIDTH 488 0
DWIDTH 12 0
BBX 10 17 1 0
BITMAP
050200
074A00
01F400
01F000
075C00
080A00
000280
0BF9C0
3906D0
7001D0
6000D0
6000D0
6000D0
6000D0
7001C0
380680
0BFE00
ENDCHAR
STARTCHAR ntilde
ENCODING 241
SWIDTH 507 0
DWIDTH 12 0
BBX 10 17 1 0
BITMAP
052D00
056600
07C200
000000
000000
76FE40
7902C0
7400D0
700090
700090
700090
700090
700090
700090
700090
700090
700090
ENDCHAR
STARTCHAR ograve
ENCODING 242
SWIDTH 496 0
DWIDTH 12 0
BBX 10 17 1 0
BITMAP
0B0000
028000
00C000
004000
000000
0BFE00
380280
7000D0
6000D0
600090
600090
600090
600090
6000D0
7000D0
380280
0BFE00
ENDCHAR
STARTCHAR oacute
ENCODING 243
SWIDTH 496 0
DWIDTH 12 0
BBX 10 17 1 0
BITMAP
000E00
002800
003000
000000
000000
0BFE00
380280
7000D0
6000D0
600090
600090
600090
600090
6000D0
7000D0
380280
0BFE00
ENDCHAR
STARTCHAR ocircumflex
ENCODING 244
SWIDTH 496 0
DWIDTH 12 0
BBX 10 17 1 0
BITMAP
00A000
01A400
030C00
010400
000000
0BFE00
380280
7000D0
6000D0
600090
600090
600090
600090
6000D0
7000D0
380280
0BFE00
ENDCHAR
STARTCHAR otilde
ENCODING 245
SWIDTH 496 0
DWIDTH 12 0
BBX 10 17 1 0
BITMAP
083C00
089500
07C500
000000
000000
0BFE00
380280
7000D0
6000D0
600090
600090
600090
600090
6000D0
7000D0
380280
0BFE00
ENDCHAR
STARTCHAR odieresis
ENCODING 246
SWIDTH 496 0
DWIDTH 12 0
BBX 10 17 1 0
BITMAP
0A0900
0A0A00
0A0900
000000
000000
0BFE00
380280
7000D0
6000D0
600090
600090
600090
600090
6000D0
7000D0
380280
0BFE00
ENDCHAR
STARTCHAR divide
ENCODING 247
SWIDTH 510 0
DWIDTH 12 0
BBX 10 9 1 3
BITMAP
006000
006000
000000
000000
7FFFD0
000000
000000
006000
006000
ENDCHAR
STARTCHAR oslash
ENCODING 248
SWIDTH 521 0
DWIDTH 13 0
BBX 11 12 1 0
BITMAP
0BFE44
2901E8
3400E0
3002E0
300AA0
3024A0
3090A0
3240A0
3D00A0
3400A0
E901D0
4BFE40
ENDCHAR
STARTCHAR ugrave
ENCODING 249
SWIDTH 507 0
DWIDTH 12 0
BBX 10 17 1 0
BITMAP
070000
028000
00D000
001000
000000
700090
700090
700090
700090
700090
700090
700090
700090
7000D0
7000D0
2906D0
0BFD90
ENDCHAR
STARTCHAR uacute
ENCODING 250
SWIDTH 507 0
DWIDTH 12 0
BBX 10 17 1 0
BITMAP
000E00
002800
003000
000000
000000
700090
700090
700090
700090
700090
700090
700090
700090
7000D0
7000D0
2906D0
0BFD90
ENDCHAR
STARTCHAR ucircumflex
ENCODING 251
SWIDTH 507 0
DWIDTH 12 0
BBX 10 17 1 0
BITMAP
00A000
01A400
030C00
010400
000000
700090
700090
700090
700090
700090
700090
700090
700090
7000D0
7000D0
2906D0
0BFD90
ENDCHAR
STARTCHAR udieresis
ENCODING 252
SWIDTH 507 0
DWIDTH 12 0
BBX 10 17 1 0
BITMAP
060A00
0A0A00
060A00
000000
000000
700090
700090
700090
700090
700090
700090
700090
700090
7000D0
7000D0
2906D0
0BFD90
ENDCHAR
STARTCHAR yacute
ENCODING 253
SWIDTH 459 0
DWIDTH 11 0
BBX 11 20 0 -3
BITMAP
000700
000D00
002800
001000
000000
700034
340070
1800A0
0C00D0
090180
070240
034700
028A00
01CD00
00EC00
00B800
003400
007000
01D000
2F4000
ENDCHAR
STARTCHAR thorn
ENCODING 254
SWIDTH 508 0
DWIDTH 12 0
BBX 9 20 2 -3
BITMAP
C00000
C00000
C00000
C00000
C00000
DBF900
E40700
D00240
C00280
C00280
C00280
C00280
C00280
C00280
D00240
E40700
DBF900
C00000
C00000
C00000
ENDCHAR
STARTCHAR ydieresis
ENCODING 255
SWIDTH 459 0
DWIDTH 11 0
BBX 11 20 0 -3
BITMAP
030300
030300
030300
000000
000000
700034
340070
1800A0
0C00D0
090180
070240
034700
028A00
01CD00
00EC00
00B800
003400
007000
01D000
2F4000
ENDCHAR
STARTCHAR Amacron
ENCODING 256
SWIDTH 532 0
DWIDTH 13 0
BBX 12 19 0 0
BITMAP
01FFC0
000000
000000
000000
002D00
003A00
007700
00A340
00D280
01C1C0
0280D0
0340A0
070070
0A0034
0FFFF8
1D001C
28000D
34000A
700007
ENDCHAR
STARTCHAR amacron
ENCODING 257
SWIDTH 502 0
DWIDTH 12 0
BBX 10 15 1 0
BITMAP
03FF40
000000
000000
0BFFD0
3800D0
7000D0
6000D0
6000D0
6000D0
6000D0
6000D0
6000D0
7000D0
3806D0
0BFDD0
ENDCHAR
STARTCHAR Abreve
ENCODING 258
SWIDTH 532 0
DWIDTH 13 0
BBX 12 20 0 0
BITMAP
004040
00C180
006A00
000000
000000
002D00
003A00
007700
00A340
00D280
01C1C0
0280D0
0340A0
070070
0A0034
0FFFF8
1D001C
28000D
34000A
700007
ENDCHAR
STARTCHAR abreve
ENCODING 259
SWIDTH 502 0
DWIDTH 12 0
BBX 10 17 1 0
BITMAP
030200
030200
024600
00A800
000000
0BFFD0
3800D0
7000D0
6000D0
6000D0
6000D0
6000D0
6000D0
6000D0
7000D0
3806D0
0BFDD0
ENDCHAR
STARTCHAR Aogonek
ENCODING 260
SWIDTH 532 0
DWIDTH 13 0
BBX 12 17 0 -2
BITMAP
002D00
003A00
007700
00A340
00D280
01C1C0
0280D0
0340A0
070070
0A0034
0FFFF8
1D001C
28000D
34000A
700007
000008
00002D
ENDCHAR
STARTCHAR aogonek
ENCODING 261
SWIDTH 502 0
DWIDTH 12 0
BBX 10 15 1 -3
BITMAP
0BFFD0
3800D0
7000D0
6000D0
6000D0
6000D0
6000D0
6000D0
6000D0
7000D0
3806D0
0BFDD0
000240
000600
000B80
ENDCHAR
STARTCHAR Cacute
ENCODING 262
SWIDTH 542 0
DWIDTH 13 0
BBX 11 20 1 0
BITMAP
000100
000A00
001800
001000
000000
0BFF90
2900B0
300024
700028
700014
700000
700000
700000
700000
700000
700014
700028
300024
2900B0
0BFF90
ENDCHAR
STARTCHAR cacute
ENCODING 263
SWIDTH 394 0
DWIDTH 9 0
BBX 8 17 1 0
BITMAP
002C
0074
0090
0040
0000
0BFE
3800
7000
6000
6000
6000
6000
6000
6000
7000
3800
0BFE
ENDCHAR
STARTCHAR Cdotaccent
ENCODING 266
SWIDTH 542 0
DWIDTH 13 0
BBX 11 20 1 0
BITMAP
002400
003400
003400
000000
000000
0BFF90
2900B0
300024
700028
700014
700000
700000
700000
700000
700000
700014
700028
300024
2900B0
0BFF90
ENDCHAR
STARTCHAR cdotaccent
ENCODING 267
SWIDTH 394 0
DWIDTH 9 0
BBX 8 17 1 0
BITMAP
00C0
00C0
00C0
0000
0000
0BFE
3800
7000
6000
6000
6000
6000
6000
6000
7000
3800
0BFE
ENDCHAR
STARTCHAR Ccaron
ENCODING 268
SWIDTH 542 0
DWIDTH 13 0
BBX 11 20 1 0
BITMAP
014100
00CA00
00A800
001400
000000
0BFF90
2900B0
300024
700028
700014
700000
700000
700000
700000
700000
700014
700028
300024
2900B0
0BFF90
ENDCHAR
STARTCHAR ccaron
ENCODING 269
SWIDTH 394 0
DWIDTH 9 0
BBX 8 17 1 0
BITMAP
0618
0324
01A0
0040
0000
0BFE
3800
7000
6000
6000
6000
6000
6000
6000
7000
3800
0BFE
ENDCHAR
STARTCHAR Dcaron
ENCODING 270
SWIDTH 557 0
DWIDTH 13 0
BBX 10 20 2 0
BITMAP
040400
062400
02A000
004000
000000
FFFE40
D002C0
D00090
D000A0
D000A0
D000A0
D000A0
D000A0
D000A0
D000A0
D000A0
D000A0
D00090
D002C0
FFFE40
ENDCHAR
STARTCHAR dcaron
ENCODING 271
SWIDTH 534 0
DWIDTH 13 0
BBX 12 17 1 0
BITMAP
0000D7
0000D7
0000D7
0000D6
0000D5
0BFDD5
3802D0
7000D0
6000D0
6000D0
6000D0
6000D0
6000D0
6000D0
7000D0
3806D0
0BFDD0
ENDCHAR
STARTCHAR Dcroat
ENCODING 272
SWIDTH 514 0
DWIDTH 12 0
BBX 12 15 0 0
BITMAP
0FFFE4
0D001C
0D000A
0D000A
0D000A
0D000A
7FFD0A
0D000A
0D000A
0D000A
0D000A
0D000A
0D000A
0D001C
0FFFE4
ENDCHAR
STARTCHAR dcroat
ENCODING 273
SWIDTH 539 0
DWIDTH 13 0
BBX 12 17 1 0
BITMAP
0000D0
0000D0
0000D0
01FFFD
0000D0
0000D0
0BF9D0
2906D0
7000D0
6000D0
6000D0
6000D0
6000D0
6000D0
7000D0
3806D0
0BFDD0
ENDCHAR
STARTCHAR Emacron
ENCODING 274
SWIDTH 481 0
DWIDTH 12 0
BBX 8 19 2 0
BITMAP
2FF8
0000
0000
0000
FFFF
D000
D000
D000
D000
D000
D000
FFFD
D000
D000
D000
D000
D000
D000
FFFF
ENDCHAR
STARTCHAR emacron
ENCODING 275
SWIDTH 492 0
DWIDTH 12 0
BBX 10 15 1 0
BITMAP
0BFE00
000000
000000
0BFE00
380280
7000D0
6000D0
600090
6000D0
7FFFD0
600000
600000
700000
380000
0BFFD0
ENDCHAR
STARTCHAR Ebreve
ENCODING 276
SWIDTH 481 0
DWIDTH 12 0
BBX 8 20 2 0
BITMAP
1410
1820
0A90
0000
0000
FFFF
D000
D000
D000
D000
D000
D000
FFFD
D000
D000
D000
D000
D000
D000
FFFF
ENDCHAR
STARTCHAR ebreve
ENCODING 277
SWIDTH 492 0
DWIDTH 12 0
BBX 10 17 1 0
BITMAP
050900
050900
060800
01A400
000000
0BFE00
380280
7000D0
6000D0
600090
6000D0
7FFFD0
600000
600000
700000
380000
0BFFD0
ENDCHAR
STARTCHAR Edotaccent
ENCODING 278
SWIDTH 496 0
DWIDTH 12 0
BBX 8 20 2 0
BITMAP
0140
0280
0280
0000
0000
FFFF
D000
D000
D000
D000
D000
D000
FFFD
D000
D000
D000
D000
D000
D000
FFFF
ENDCHAR
STARTCHAR edotaccent
ENCODING 279
SWIDTH 492 0
DWIDTH 12 0
BBX 10 17 1 0
BITMAP
00A000
00A000
009000
000000
000000
0BFE00
380280
7000D0
6000D0
600090
6000D0
7FFFD0
600000
600000
700000
380000
0BFFD0
ENDCHAR
STARTCHAR Eogonek
ENCODING 280
SWIDTH 481 0
DWIDTH 12 0
BBX 8 17 2 -2
BITMAP
FFFF
D000
D000
D000
D000
D000
D000
FFFD
D000
D000
D000
D000
D000
D000
FFFF
0020
00B8
ENDCHAR
STARTCHAR eogonek
ENCODING 281
SWIDTH 492 0
DWIDTH 12 0
BBX 10 15 1 -3
BITMAP
0BFE00
380280
7000D0
6000D0
600090
6000D0
7FFFD0
600000
600000
700000
380000
0BFFD0
000900
001800
002E00
ENDCHAR
STARTCHAR Ecaron
ENCODING 282
SWIDTH 481 0
DWIDTH 12 0
BBX 8 20 2 0
BITMAP
0410
0960
0690
0140
0000
FFFF
D000
D000
D000
D000
D000
D000
FFFD
D000
D000
D000
D000
D000
D000
FFFF
ENDCHAR
STARTCHAR ecaron
ENCODING 283
SWIDTH 492 0
DWIDTH 12 0
BBX 10 17 1 0
BITMAP
030C00
025800
00F000
005000
000000
0BFE00
380280
7000D0
6000D0
600090
6000D0
7FFFD0
600000
600000
700000
380000
0BFFD0
ENDCHAR
STARTCHAR Gcircumflex
ENCODING 284
SWIDTH 539 0
DWIDTH 13 0
BBX 10 20 1 0
BITMAP
001000
00A800
018900
010100
000000
0BFF80
2901A0
300070
700030
700020
700000
700000
701FF0
700070
700030
700030
700030
300070
2901A0
0BFF80
ENDCHAR
STARTCHAR gcircumflex
ENCODING 285
SWIDTH 506 0
DWIDTH 12 0
BBX 10 20 1 -3
BITMAP
007400
00DC00
028900
010100
000000
0BFFD0
2800D0
7000D0
7000D0
7000D0
7000D0
7000D0
7000D0
7000D0
3802D0
1BFED0
0000D0
0000D0
0002C0
2FFE00
ENDCHAR
STARTCHAR Gbreve
ENCODING 286
SWIDTH 539 0
DWIDTH 13 0
BBX 10 20 1 0
BITMAP
010100
020200
01A900
000000
000000
0BFF80
2901A0
300070
700030
700020
700000
700000
701FF0
700070
700030
700030
700030
300070
2901A0
0BFF80
ENDCHAR
STARTCHAR gbreve
ENCODING 287
SWIDTH 506 0
DWIDTH 12 0
BBX 10 20 1 -3
BITMAP
020200
024300
00A900
000000
000000
0BFFD0
2800D0
7000D0
7000D0
7000D0
7000D0
7000D0
7000D0
7000D0
3802D0
1BFED0
0000D0
0000D0
0002C0
2FFE00
ENDCHAR
STARTCHAR Gdotaccent
ENCODING 288
SWIDTH 539 0
DWIDTH 13 0
BBX 10 20 1 0
BITMAP
003000
003000
003000
000000
000000
0BFF80
2901A0
300070
700030
700020
700000
700000
701FF0
700070
700030
700030
700030
300070
2901A0
0BFF80
ENDCHAR
STARTCHAR gdotaccent
ENCODING 289
SWIDTH 506 0
DWIDTH 12 0
BBX 10 20 1 -3
BITMAP
003400
003400
002000
000000
000000
0BFFD0
2800D0
7000D0
7000D0
7000D0
7000D0
7000D0
7000D0
7000D0
3802D0
1BFED0
0000D0
0000D0
0002C0
2FFE00
ENDCHAR
STARTCHAR uni0122
ENCODING 290
SWIDTH 539 0
DWIDTH 13 0
BBX 10 21 1 -6
BITMAP
0BFF80
2901A0
300070
700030
700020
700000
700000
701FF0
700070
700030
700030
700030
300070
2901A0
0BFF80
000000
002400
002400
002400
002000
001000
ENDCHAR
STARTCHAR uni0123
ENCODING 291
SWIDTH 506 0
DWIDTH 12 0
BBX 10 22 1 -3
BITMAP
001000
002000
003000
003000
003000
000000
000000
0BFFD0
2800D0
7000D0
7000D0
7000D0
7000D0
7000D0
7000D0
7000D0
3802D0
1BFED0
0000D0
0000D0
0002C0
2FFE00
ENDCHAR
STARTCHAR hcircumflex
ENCODING 293
SWIDTH 507 0
DWIDTH 12 0
BBX 10 18 1 0
BITMAP
006400
708900
714500
700000
700000
700000
76FE40
7902C0
7400D0
700090
700090
700090
700090
700090
700090
700090
700090
700090
ENDCHAR
STARTCHAR Hbar
ENCODING 294
SWIDTH 523 0
DWIDTH 13 0
BBX 14 15 0 0
BITMAP
0D000600
0D000600
0D000600
7FFFFFD0
0D000A00
0D000600
0D000600
0FFFFE00
0D000A00
0D000600
0D000600
0D000600
0D000600
0D000600
0D000600
ENDCHAR
STARTCHAR hbar
ENCODING 295
SWIDTH 544 0
DWIDTH 13 0
BBX 12 17 0 0
BITMAP
060000
070000
070000
7FFF00
070000
070000
076FE0
079068
07000D
07000D
07000D
07000D
07000D
07000D
07000D
07000D
060009
ENDCHAR
STARTCHAR Itilde
ENCODING 296
SWIDTH 230 0
DWIDTH 6 0
BBX 6 20 0 0
BITMAP
8280
8590
8850
7850
0000
0900
0D00
0D00
0D00
0D00
0D00
0D00
0D00
0D00
0D00
0D00
0D00
0D00
0D00
0900
ENDCHAR
STARTCHAR itilde
ENCODING 297
SWIDTH 210 0
DWIDTH 5 0
BBX 5 17 0 0
BITMAP
8780
8D80
B880
0000
0000
0C00
0C00
0C00
0C00
0C00
0C00
0C00
0C00
0C00
0C00
0C00
0C00
ENDCHAR
STARTCHAR Imacron
ENCODING 298
SWIDTH 230 0
DWIDTH 6 0
BBX 6 19 0 0
BITMAP
FFD0
0000
0000
0000
0900
0D00
0D00
0D00
0D00
0D00
0D00
0D00
0D00
0D00
0D00
0D00
0D00
0D00
0900
ENDCHAR
STARTCHAR imacron
ENCODING 299
SWIDTH 208 0
DWIDTH 5 0
BBX 7 15 -1 0
BITMAP
7FF4
0000
0000
0300
0300
0300
0300
0300
0300
0300
0300
0300
0300
0300
0300
ENDCHAR
STARTCHAR Ibreve
ENCODING 300
SWIDTH 231 0
DWIDTH 6 0
BBX 5 20 0 0
BITMAP
4040
50C0
2A40
0000
0000
0900
0D00
0D00
0D00
0D00
0D00
0D00
0D00
0D00
0D00
0D00
0D00
0D00
0D00
0900
ENDCHAR
STARTCHAR ibreve
ENCODING 301
SWIDTH 211 0
DWIDTH 5 0
BBX 5 17 0 0
BITMAP
8080
8080
9180
2A00
0000
0C00
0C00
0C00
0C00
0C00
0C00
0C00
0C00
0C00
0C00
0C00
0C00
ENDCHAR
STARTCHAR Iogonek
ENCODING 302
SWIDTH 230 0
DWIDTH 6 0
BBX 3 17 1 -2
BITMAP
24
34
34
34
34
34
34
34
34
34
34
34
34
34
34
50
F0
ENDCHAR
STARTCHAR iogonek
ENCODING 303
SWIDTH 210 0
DWIDTH 5 0
BBX 3 20 0 -3
BITMAP
0C
0C
0C
00
00
0C
0C
0C
0C
0C
0C
0C
0C
0C
0C
0C
0C
14
20
78
ENDCHAR
STARTCHAR Idotaccent
ENCODING 304
SWIDTH 230 0
DWIDTH 6 0
BBX 2 19 2 0
BITMAP
90
D0
90
00
90
D0
D0
D0
D0
D0
D0
D0
D0
D0
D0
D0
D0
D0
90
ENDCHAR
STARTCHAR dotlessi
ENCODING 305
SWIDTH 212 0
DWIDTH 5 0
BBX 1 12 2 0
BITMAP
C0
C0
C0
C0
C0
C0
C0
C0
C0
C0
C0
C0
ENDCHAR
STARTCHAR IJ
ENCODING 306
SWIDTH 721 0
DWIDTH 17 0
BBX 14 15 2 0
BITMAP
90000090
90000090
90000090
90000090
90000090
90000090
90000090
90000090
90000090
90500090
90A00090
90A00090
90A000D0
907402C0
901BFE00
ENDCHAR
STARTCHAR ij
ENCODING 307
SWIDTH 419 0
DWIDTH 10 0
BBX 6 20 2 -3
BITMAP
C030
C030
C030
0000
0000
C030
C030
C030
C030
C030
C030
C030
C030
C030
C030
C030
C030
0070
01A0
1F80
ENDCHAR
STARTCHAR Jcircumflex
ENCODING 308
SWIDTH 494 0
DWIDTH 12 0
BBX 11 20 1 0
BITMAP
000040
0002A0
000624
000414
000000
0000C0
0000C0
0000C0
0000C0
0000C0
0000C0
0000C0
0000C0
0000C0
8000C0
C000C0
C000C0
D001C0
B40780
2FFE00
ENDCHAR
STARTCHAR jcircumflex
ENCODING 309
SWIDTH 209 0
DWIDTH 5 0
BBX 7 20 -2 -3
BITMAP
01D0
0370
0624
0404
0000
00C0
00C0
00C0
00C0
00C0
00C0
00C0
00C0
00C0
00C0
00C0
00C0
01C0
0680
7E00
ENDCHAR
STARTCHAR uni0136
ENCODING 310
SWIDTH 530 0
DWIDTH 13 0
BBX 10 20 2 -5
BITMAP
D001C0
D00340
D00A00
D02800
D07000
D1D000
D38000
DAC000
E8A000
F03400
D01D00
D00A00
D00280
D001D0
D00070
005000
00A000
00A000
009000
008000
ENDCHAR
STARTCHAR uni0137
ENCODING 311
SWIDTH 431 0
DWIDTH 10 0
BBX 9 23 1 -6
BITMAP
700000
700000
700000
700000
700000
700340
700A00
701C00
703400
70A000
71C000
70D000
707000
702800
700D00
700740
700280
000000
00D000
00D000
00C000
008000
004000
ENDCHAR
STARTCHAR Lacute
ENCODING 313
SWIDTH 451 0
DWIDTH 11 0
BBX 9 20 2 0
BITMAP
050000
280000
700000
400000
000000
D00000
D00000
D00000
D00000
D00000
D00000
D00000
D00000
D00000
D00000
D00000
D00000
D00000
D00000
FFFF40
ENDCHAR
STARTCHAR lacute
ENCODING 314
SWIDTH 207 0
DWIDTH 5 0
BBX 3 21 2 0
BITMAP
04
28
60
40
C0
C0
C0
C0
C0
C0
C0
C0
C0
C0
C0
C0
C0
C0
C0
C0
C0
ENDCHAR
STARTCHAR uni013B
ENCODING 315
SWIDTH 451 0
DWIDTH 11 0
BBX 9 21 2 -6
BITMAP
D00000
D00000
D00000
D00000
D00000
D00000
D00000
D00000
D00000
D00000
D00000
D00000
D00000
D00000
FFFF40
000000
028000
028000
028000
024000
010000
ENDCHAR
STARTCHAR uni013C
ENCODING 316
SWIDTH 211 0
DWIDTH 5 0
BBX 1 23 2 -6
BITMAP
C0
C0
C0
C0
C0
C0
C0
C0
C0
C0
C0
C0
C0
C0
C0
C0
C0
00
C0
C0
C0
80
40
ENDCHAR
STARTCHAR Lcaron
ENCODING 317
SWIDTH 451 0
DWIDTH 11 0
BBX 9 15 2 0
BITMAP
D02800
D02800
D02800
D02400
D02000
D01000
D00000
D00000
D00000
D00000
D00000
D00000
D00000
D00000
FFFF40
ENDCHAR
STARTCHAR lcaron
ENCODING 318
SWIDTH 274 0
DWIDTH 7 0
BBX 5 17 2 0
BITMAP
C340
C340
C300
C300
C200
C100
C000
C000
C000
C000
C000
C000
C000
C000
C000
C000
C000
ENDCHAR
STARTCHAR Ldot
ENCODING 319
SWIDTH 500 0
DWIDTH 12 0
BBX 9 15 2 0
BITMAP
D00000
D00000
D00000
D00000
D00000
D00000
D07000
D07000
D07000
D00000
D00000
D00000
D00000
D00000
FFFF40
ENDCHAR
STARTCHAR ldot
ENCODING 320
SWIDTH 314 0
DWIDTH 8 0
BBX 5 17 2 0
BITMAP
C000
D000
D000
D000
D000
D000
D000
D000
D240
D380
D240
D000
D000
D000
D000
D000
C000
ENDCHAR
STARTCHAR Lslash
ENCODING 321
SWIDTH 504 0
DWIDTH 12 0
BBX 11 15 0 0
BITMAP
090000
090000
090000
092000
0AE000
1E0000
AD0000
090000
090000
090000
090000
090000
090000
090000
0BFFF4
ENDCHAR
STARTCHAR lslash
ENCODING 322
SWIDTH 296 0
DWIDTH 7 0
BBX 7 17 0 0
BITMAP
0300
0300
0300
0300
0300
0364
07D0
2F40
6700
0300
0300
0300
0300
0300
0300
0300
0300
ENDCHAR
STARTCHAR Nacute
ENCODING 323
SWIDTH 579 0
DWIDTH 14 0
BBX 10 20 2 0
BITMAP
000500
001D00
002400
001000
000000
D00070
F00070
F80070
DD0070
DA0070
D34070
D1C070
D0A070
D03470
D01870
D00D70
D00770
D002F0
D000F0
D00070
ENDCHAR
STARTCHAR nacute
ENCODING 324
SWIDTH 507 0
DWIDTH 12 0
BBX 10 17 1 0
BITMAP
000A00
001C00
003400
001000
000000
76FE40
7902C0
7400D0
700090
700090
700090
700090
700090
700090
700090
700090
700090
ENDCHAR
STARTCHAR uni0145
ENCODING 325
SWIDTH 579 0
DWIDTH 14 0
BBX 10 21 2 -6
BITMAP
D00070
F00070
F80070
DD0070
DA0070
D34070
D1C070
D0A070
D03470
D01870
D00D70
D00770
D002F0
D000F0
D00070
000000
00A000
00A000
009000
008000
004000
ENDCHAR
STARTCHAR uni0146
ENCODING 326
SWIDTH 505 0
DWIDTH 12 0
BBX 10 18 1 -6
BITMAP
76FE40
7902C0
7400D0
700090
700090
700090
700090
700090
700090
700090
700090
700090
000000
006000
006000
006000
005000
004000
ENDCHAR
STARTCHAR Ncaron
ENCODING 327
SWIDTH 579 0
DWIDTH 14 0
BBX 10 20 2 0
BITMAP
010400
025800
01A400
005000
000000
D00070
F00070
F80070
DD0070
DA0070
D34070
D1C070
D0A070
D03470
D01870
D00D70
D00770
D002F0
D000F0
D00070
ENDCHAR
STARTCHAR ncaron
ENCODING 328
SWIDTH 507 0
DWIDTH 12 0
BBX 10 17 1 0
BITMAP
030900
019800
00E400
001000
000000
76FE40
7902C0
7400D0
700090
700090
700090
700090
700090
700090
700090
700090
700090
ENDCHAR
STARTCHAR Eng
ENCODING 330
SWIDTH 519 0
DWIDTH 12 0
BBX 10 18 2 -3
BITMAP
D00070
F00070
F80070
DD0070
D70070
D34070
D1C070
D0A070
D03470
D01870
D00D70
D00770
D002F0
D000F0
D00070
000060
0001D0
001F40
ENDCHAR
STARTCHAR eng
ENCODING 331
SWIDTH 507 0
DWIDTH 12 0
BBX 10 15 1 -3
BITMAP
76FE40
7902C0
7400D0
700090
700090
700090
700090
700090
700090
700090
700090
700090
0000D0
0002C0
003E40
ENDCHAR
STARTCHAR Omacron
ENCODING 332
SWIDTH 553 0
DWIDTH 13 0
BBX 11 19 1 0
BITMAP
03FF40
000000
000000
000000
0BFF80
2900B0
300034
700024
700024
700024
700024
700024
700024
700024
700024
700024
300034
2900B0
0BFF90
ENDCHAR
STARTCHAR omacron
ENCODING 333
SWIDTH 496 0
DWIDTH 12 0
BBX 10 15 1 0
BITMAP
0BFE00
000000
000000
0BFE00
380280
7000D0
6000D0
600090
600090
600090
600090
6000D0
7000D0
380280
0BFE00
ENDCHAR
STARTCHAR Obreve
ENCODING 334
SWIDTH 553 0
DWIDTH 13 0
BBX 11 20 1 0
BITMAP
010100
024300
00A900
000000
000000
0BFF80
2900B0
300034
700024
700024
700024
700024
700024
700024
700024
700024
700024
300034
2900B0
0BFF90
ENDCHAR
STARTCHAR obreve
ENCODING 335
SWIDTH 496 0
DWIDTH 12 0
BBX 10 17 1 0
BITMAP
050500
060900
020800
01A400
000000
0BFE00
380280
7000D0
6000D0
600090
600090
600090
600090
6000D0
7000D0
380280
0BFE00
ENDCHAR
STARTCHAR Ohungarumlaut
ENCODING 336
SWIDTH 553 0
DWIDTH 13 0
BBX 11 20 1 0
BITMAP
0034D0
00A280
008200
000000
000000
0BFF80
2900B0
300034
700024
700024
700024
700024
700024
700024
700024
700024
700024
300034
2900B0
0BFF90
ENDCHAR
STARTCHAR ohungarumlaut
ENCODING 337
SWIDTH 496 0
DWIDTH 12 0
BBX 10 17 1 0
BITMAP
006280
00C300
024900
000000
000000
0BFE00
380280
7000D0
6000D0
600090
600090
600090
600090
6000D0
7000D0
380280
0BFE00
ENDCHAR
STARTCHAR OE
ENCODING 338
SWIDTH 775 0
DWIDTH 19 0
BBX 16 15 1 0
BITMAP
0BFFFFFE
2901D000
3400C000
3000C000
7000C000
7000C000
7000C000
7000FFFC
7000D000
7000C000
7000C000
3000C000
3400C000
2901D000
0BFFFFFE
ENDCHAR
STARTCHAR oe
ENCODING 339
SWIDTH 812 0
DWIDTH 19 0
BBX 17 12 1 0
BITMAP
0BFE1BFD00
3802B40740
7000E00180
6000D001C0
6000D001C0
6000D001C0
6000FFFFC0
6000D00000
6000D00000
7000D00000
3802B40000
0BFE1BFF80
ENDCHAR
STARTCHAR Racute
ENCODING 340
SWIDTH 534 0
DWIDTH 13 0
BBX 10 20 2 0
BITMAP
001400
007000
00D000
014000
000000
FFFE00
D00780
D001C0
D000C0
D000C0
D000C0
D001C0
D00280
FFFE00
D02800
D00D00
D00A00
D00340
D00280
D000D0
ENDCHAR
STARTCHAR racute
ENCODING 341
SWIDTH 313 0
DWIDTH 8 0
BBX 6 17 1 0
BITMAP
01C0
0340
0A00
0400
0000
76F0
7900
7400
7000
7000
7000
7000
7000
7000
7000
7000
7000
ENDCHAR
STARTCHAR uni0156
ENCODING 342
SWIDTH 534 0
DWIDTH 13 0
BBX 10 21 2 -6
BITMAP
FFFE00
D00780
D001C0
D000C0
D000C0
D000C0
D001C0
D00280
FFFE00
D02800
D00D00
D00A00
D00340
D00280
D000D0
000000
01C000
01C000
01C000
018000
014000
ENDCHAR
STARTCHAR uni0157
ENCODING 343
SWIDTH 313 0
DWIDTH 8 0
BBX 6 18 1 -6
BITMAP
76F0
7900
7400
7000
7000
7000
7000
7000
7000
7000
7000
7000
0000
7000
7000
7000
6000
5000
ENDCHAR
STARTCHAR Rcaron
ENCODING 344
SWIDTH 534 0
DWIDTH 13 0
BBX 10 20 2 0
BITMAP
041000
092000
029000
014000
000000
FFFE00
D00780
D001C0
D000C0
D000C0
D000C0
D001C0
D00280
FFFE00
D02800
D00D00
D00A00
D00340
D00280
D000D0
ENDCHAR
STARTCHAR rcaron
ENCODING 345
SWIDTH 313 0
DWIDTH 8 0
BBX 6 17 1 0
BITMAP
3090
1980
0A40
0100
0000
76F0
7900
7400
7000
7000
7000
7000
7000
7000
7000
7000
7000
ENDCHAR
STARTCHAR Sacute
ENCODING 346
SWIDTH 562 0
DWIDTH 13 0
BBX 10 20 2 0
BITMAP
000400
002800
006000
004000
000000
2FFE40
B402C0
D000D0
D00090
D00000
E00000
790000
06F900
001B80
0000D0
4000A0
D000A0
D000D0
B402C0
2FFE40
ENDCHAR
STARTCHAR sacute
ENCODING 347
SWIDTH 427 0
DWIDTH 10 0
BBX 8 17 1 0
BITMAP
0074
00D0
0180
0100
0000
2FFD
B400
9000
A000
7800
0B90
006D
000A
0007
0007
001A
BFF8
ENDCHAR
STARTCHAR Scircumflex
ENCODING 348
SWIDTH 562 0
DWIDTH 13 0
BBX 10 20 2 0
BITMAP
005000
01B000
031800
050400
000000
2FFE40
B402C0
D000D0
D00090
D00000
E00000
790000
06F900
001B80
0000D0
4000A0
D000A0
D000D0
B402C0
2FFE40
ENDCHAR
STARTCHAR scircumflex
ENCODING 349
SWIDTH 427 0
DWIDTH 10 0
BBX 8 17 1 0
BITMAP
0280
0690
0C30
0410
0000
2FFD
B400
9000
A000
7800
0B90
006D
000A
0007
0007
001A
BFF8
ENDCHAR
STARTCHAR uni015E
ENCODING 350
SWIDTH 562 0
DWIDTH 13 0
BBX 10 19 2 -4
BITMAP
2FFE40
B402C0
D000D0
D00090
D00000
E00000
790000
06F900
001B80
0000D0
4000A0
D000A0
D000D0
B402C0
2FFE40
009000
01E400
001800
00F400
ENDCHAR
STARTCHAR uni015F
ENCODING 351
SWIDTH 427 0
DWIDTH 10 0
BBX 8 16 1 -4
BITMAP
2FFD
B400
9000
A000
7800
0B90
006D
000A
0007
0007
001A
BFF8
0180
03D0
0070
02E0
ENDCHAR
STARTCHAR Scaron
ENCODING 352
SWIDTH 562 0
DWIDTH 13 0
BBX 10 20 2 0
BITMAP
050400
032800
02B000
005000
000000
2FFE40
B402C0
D000D0
D00090
D00000
E00000
790000
06F900
001B80
0000D0
4000A0
D000A0
D000D0
B402C0
2FFE40
ENDCHAR
STARTCHAR scaron
ENCODING 353
SWIDTH 427 0
DWIDTH 10 0
BBX 8 17 1 0
BITMAP
0C24
0960
0380
0140
0000
2FFD
B400
9000
A000
7800
0B90
006D
000A
0007
0007
001A
BFF8
ENDCHAR
STARTCHAR uni0162
ENCODING 354
SWIDTH 420 0
DWIDTH 10 0
BBX 10 20 0 -5
BITMAP
BFFFE0
00A000
00A000
00A000
00A000
00A000
00A000
00A000
00A000
00A000
00A000
00A000
00A000
00A000
00A000
005000
00A000
00A000
009000
008000
ENDCHAR
STARTCHAR uni0163
ENCODING 355
SWIDTH 347 0
DWIDTH 8 0
BBX 8 20 0 -5
BITMAP
0500
0600
0600
7FFC
0A00
0600
0600
0600
0600
0600
0600
0600
0700
0380
00BD
0050
00A0
00A0
0090
0080
ENDCHAR
STARTCHAR Tcaron
ENCODING 356
SWIDTH 420 0
DWIDTH 10 0
BBX 10 20 0 0
BITMAP
010400
024800
00A400
005000
000000
BFFFE0
00A000
00A000
00A000
00A000
00A000
00A000
00A000
00A000
00A000
00A000
00A000
00A000
00A000
00A000
ENDCHAR
STARTCHAR tcaron
ENCODING 357
SWIDTH 396 0
DWIDTH 10 0
BBX 10 15 0 0
BITMAP
0100D0
0600D0
0600D0
7FFCC0
0A0080
060040
060000
060000
060000
060000
060000
060000
070000
038000
00BD00
ENDCHAR
STARTCHAR Tbar
ENCODING 358
SWIDTH 501 0
DWIDTH 12 0
BBX 10 15 0 0
BITMAP
7FFFE0
006000
006000
006000
006000
006000
1FFF80
00A000
006000
006000
006000
006000
006000
006000
006000
ENDCHAR
STARTCHAR tbar
ENCODING 359
SWIDTH 350 0
DWIDTH 8 0
BBX 8 15 0 0
BITMAP
0500
0600
0600
7FFC
0700
0600
0600
0600
7FFC
0B00
0600
0600
0700
0380
01BD
ENDCHAR
STARTCHAR Utilde
ENCODING 360
SWIDTH 552 0
DWIDTH 13 0
BBX 10 20 2 0
BITMAP
083800
089800
088900
0B4900
000000
C000D0
C000D0
C000D0
C000D0
C000D0
C000D0
C000D0
C000D0
C000D0
C000D0
C000D0
C000D0
D000D0
B40680
2FFE00
ENDCHAR
STARTCHAR utilde
ENCODING 361
SWIDTH 507 0
DWIDTH 12 0
BBX 10 17 1 0
BITMAP
082D00
096600
07C600
000000
000000
700090
700090
700090
700090
700090
700090
700090
700090
7000D0
7000D0
2906D0
0BFD90
ENDCHAR
STARTCHAR Umacron
ENCODING 362
SWIDTH 552 0
DWIDTH 13 0
BBX 10 19 2 0
BITMAP
0FFD00
000000
000000
000000
C000D0
C000D0
C000D0
C000D0
C000D0
C000D0
C000D0
C000D0
C000D0
C000D0
C000D0
C000D0
D000D0
B40680
2FFE00
ENDCHAR
STARTCHAR umacron
ENCODING 363
SWIDTH 507 0
DWIDTH 12 0
BBX 10 15 1 0
BITMAP
0BFE00
000000
000000
700090
700090
700090
700090
700090
700090
700090
700090
7000D0
7000D0
2906D0
0BFD90
ENDCHAR
STARTCHAR Ubreve
ENCODING 364
SWIDTH 552 0
DWIDTH 13 0
BBX 10 20 2 0
BITMAP
040400
090C00
02A400
000000
000000
C000D0
C000D0
C000D0
C000D0
C000D0
C000D0
C000D0
C000D0
C000D0
C000D0
C000D0
C000D0
D000D0
B40680
2FFE00
ENDCHAR
STARTCHAR ubreve
ENCODING 365
SWIDTH 507 0
DWIDTH 12 0
BBX 10 17 1 0
BITMAP
060500
060500
020800
01A400
000000
700090
700090
700090
700090
700090
700090
700090
700090
7000D0
7000D0
2906D0
0BFD90
ENDCHAR
STARTCHAR Uring
ENCODING 366
SWIDTH 552 0
DWIDTH 13 0
BBX 10 21 2 0
BITMAP
02E000
061400
050800
061800
02F000
000000
C000D0
C000D0
C000D0
C000D0
C000D0
C000D0
C000D0
C000D0
C000D0
C000D0
C000D0
C000D0
D000D0
B40680
2FFE00
ENDCHAR
STARTCHAR uring
ENCODING 367
SWIDTH 507 0
DWIDTH 12 0
BBX 10 17 1 0
BITMAP
02F400
061800
051800
03F400
000000
700090
700090
700090
700090
700090
700090
700090
700090
7000D0
7000D0
2906D0
0BFD90
ENDCHAR
STARTCHAR Uhungarumlaut
ENCODING 368
SWIDTH 552 0
DWIDTH 13 0
BBX 10 20 2 0
BITMAP
00D340
024900
061800
000000
000000
C000D0
C000D0
C000D0
C000D0
C000D0
C000D0
C000D0
C000D0
C000D0
C000D0
C000D0
C000D0
D000D0
B40680
2FFE00
ENDCHAR
STARTCHAR uhungarumlaut
ENCODING 369
SWIDTH 507 0
DWIDTH 12 0
BBX 10 17 1 0
BITMAP
006280
00C300
024900
000000
000000
700090
700090
700090
700090
700090
700090
700090
700090
7000D0
7000D0
2906D0
0BFD90
ENDCHAR
STARTCHAR Uogonek
ENCODING 370
SWIDTH 552 0
DWIDTH 13 0
BBX 10 17 2 -2
BITMAP
C000D0
C000D0
C000D0
C000D0
C000D0
C000D0
C000D0
C000D0
C000D0
C000D0
C000D0
C000D0
D000D0
B40680
2FFE00
008000
02E000
ENDCHAR
STARTCHAR uogonek
ENCODING 371
SWIDTH 503 0
DWIDTH 12 0
BBX 10 15 1 -3
BITMAP
700090
700090
700090
700090
700090
700090
700090
700090
7000D0
7000D0
2906D0
0BFDD0
000140
000200
000780
ENDCHAR
STARTCHAR Wcircumflex
ENCODING 372
SWIDTH 795 0
DWIDTH 19 0
BBX 18 20 1 0
BITMAP
0000400000
0002A00000
0006240000
0004040000
0000000000
C001D000D0
D002E001C0
A003700280
A003340280
7006240340
3409180700
240C0C0700
281C0D0A00
1C280A0900
0C24060D00
0D30031C00
0A60025800
06A001A800
07D001F400
03C000F000
ENDCHAR
STARTCHAR wcircumflex
ENCODING 373
SWIDTH 682 0
DWIDTH 16 0
BBX 16 17 0 0
BITMAP
0002C000
00066000
00093000
00041000
00000000
6002C006
3002D00A
3403900D
2806601C
1C093028
0D0C2434
091C2830
06181860
03240C90
027009D0
02E007C0
01E00380
ENDCHAR
STARTCHAR Ycircumflex
ENCODING 374
SWIDTH 493 0
DWIDTH 12 0
BBX 11 20 0 0
BITMAP
001400
006800
00C600
014100
000000
70001C
280028
1C0070
0A00A0
0701C0
028240
01C700
00A900
003C00
002800
002800
002800
002800
002800
002400
ENDCHAR
STARTCHAR ycircumflex
ENCODING 375
SWIDTH 459 0
DWIDTH 11 0
BBX 11 20 0 -3
BITMAP
007800
009C00
018600
010100
000000
700034
340070
1800A0
0C00D0
090180
070240
034700
028A00
01CD00
00EC00
00B800
003400
007000
01D000
2F4000
ENDCHAR
STARTCHAR Ydieresis
ENCODING 376
SWIDTH 493 0
DWIDTH 12 0
BBX 11 20 0 0
BITMAP
028240
028240
028240
000000
000000
70001C
280028
1C0070
0A00A0
0701C0
028240
01C700
00A900
003C00
002800
002800
002800
002800
002800
002400
ENDCHAR
STARTCHAR Zacute
ENCODING 377
SWIDTH 482 0
DWIDTH 12 0
BBX 10 20 1 0
BITMAP
000500
001D00
003400
001000
000000
BFFFD0
0001C0
000380
000B00
001D00
002800
007000
00D000
028000
074000
0E0000
2C0000
340000
A00000
FFFFE0
ENDCHAR
STARTCHAR zacute
ENCODING 378
SWIDTH 405 0
DWIDTH 10 0
BBX 8 17 1 0
BITMAP
0028
0070
0090
0040
0000
FFFE
000D
0028
0070
00E0
02C0
0740
0A00
1C00
3400
A000
FFFF
ENDCHAR
STARTCHAR Zdotaccent
ENCODING 379
SWIDTH 482 0
DWIDTH 12 0
BBX 10 20 1 0
BITMAP
006000
007000
007000
000000
000000
BFFFD0
0001C0
000380
000B00
001D00
002800
007000
00D000
028000
074000
0E0000
2C0000
340000
A00000
FFFFE0
ENDCHAR
STARTCHAR zdotaccent
ENCODING 380
SWIDTH 405 0
DWIDTH 10 0
BBX 8 17 1 0
BITMAP
01C0
01C0
0180
0000
0000
FFFE
000D
0028
0070
00E0
02C0
0740
0A00
1C00
3400
A000
FFFF
ENDCHAR
STARTCHAR Zcaron
ENCODING 381
SWIDTH 482 0
DWIDTH 12 0
BBX 10 20 1 0
BITMAP
010500
024C00
00E400
005000
000000
BFFFD0
0001C0
000380
000B00
001D00
002800
007000
00D000
028000
074000
0E0000
2C0000
340000
A00000
FFFFE0
ENDCHAR
STARTCHAR zcaron
ENCODING 382
SWIDTH 405 0
DWIDTH 10 0
BBX 8 17 1 0
BITMAP
0924
0630
0290
0040
0000
FFFE
000D
0028
0070
00E0
02C0
0740
0A00
1C00
3400
A000
FFFF
ENDCHAR
STARTCHAR florin
ENCODING 402
SWIDTH 494 0
DWIDTH 12 0
BBX 12 20 0 -3
BITMAP
00007D
0001D0
000340
000700
000A00
000900
000D00
02FFF0
002C00
002800
003400
003400
007000
006000
00A000
00D000
00C000
018000
074000
B90000
ENDCHAR
STARTCHAR AEacute
ENCODING 508
SWIDTH 773 0
DWIDTH 19 0
BBX 17 20 0 0
BITMAP
0000014000
0000074000
00000D0000
0000040000
0000000000
0000FFFFC0
0002F40000
0003740000
000A340000
001D340000
0028340000
0070340000
00E03FFF40
01C0340000
0340340000
0BFFF40000
0D00340000
2800340000
7000340000
A0003FFFC0
ENDCHAR
STARTCHAR aeacute
ENCODING 509
SWIDTH 795 0
DWIDTH 19 0
BBX 17 17 1 0
BITMAP
00001D0000
0000280000
0000600000
0000400000
0000000000
1FFE1FF900
0006B40700
0001D00240
0000D00280
0000D00280
0BFFD00280
3800FFFF80
7000D00000
6000D00000
7000D00000
3806B40000
1BFD2FFF80
ENDCHAR
STARTCHAR Oslashacute
ENCODING 510
SWIDTH 558 0
DWIDTH 13 0
BBX 11 20 1 0
BITMAP
000100
000A00
001800
001000
000000
0BFF98
290078
340074
3000B8
300268
300628
300C28
302428
30A028
318028
370028
390028
380024
7900B0
9BFF90
ENDCHAR
STARTCHAR oslashacute
ENCODING 511
SWIDTH 521 0
DWIDTH 13 0
BBX 11 17 1 0
BITMAP
000B00
001D00
002400
001000
000000
0BFE44
2901E8
3400E0
3002E0
300AA0
3024A0
3090A0
3240A0
3D00A0
3400A0
E901D0
4BFE40
ENDCHAR
STARTCHAR uni0218
ENCODING 536
SWIDTH 562 0
DWIDTH 13 0
BBX 10 21 2 -6
BITMAP
2FFE40
B402C0
D000D0
D00090
D00000
E00000
790000
06F900
001B80
0000D0
4000A0
D000A0
D000D0
B402C0
2FFE40
000000
00A000
00A000
009000
008000
004000
ENDCHAR
STARTCHAR uni0219
ENCODING 537
SWIDTH 427 0
DWIDTH 10 0
BBX 8 17 1 -5
BITMAP
2FFD
B400
9000
A000
7800
0B90
006D
000A
0007
0007
001A
BFF8
0080
01C0
01C0
0180
0140
ENDCHAR
STARTCHAR circumflex
ENCODING 710
SWIDTH 326 0
DWIDTH 8 0
BBX 5 3 1 14
BITMAP
0A00
2640
60C0
ENDCHAR
STARTCHAR caron
ENCODING 711
SWIDTH 326 0
DWIDTH 8 0
BBX 5 3 1 14
BITMAP
60C0
2640
0A00
ENDCHAR
STARTCHAR uni02C9
ENCODING 713
SWIDTH 358 0
DWIDTH 9 0
BBX 6 1 1 14
BITMAP
7FF0
ENDCHAR
STARTCHAR breve
ENCODING 728
SWIDTH 332 0
DWIDTH 8 0
BBX 6 3 1 14
BITMAP
5050
6090
1A40
ENDCHAR
STARTCHAR dotaccent
ENCODING 729
SWIDTH 183 0
DWIDTH 4 0
BBX 2 3 1 14
BITMAP
60
60
60
ENDCHAR
STARTCHAR ring
ENCODING 730
SWIDTH 297 0
DWIDTH 7 0
BBX 4 4 1 13
BITMAP
7E
92
82
7E
ENDCHAR
STARTCHAR ogonek
ENCODING 731
SWIDTH 243 0
DWIDTH 6 0
BBX 3 3 1 -3
BITMAP
08
20
78
ENDCHAR
STARTCHAR tilde
ENCODING 732
SWIDTH 369 0
DWIDTH 9 0
BBX 6 3 1 14
BITMAP
52D0
5660
3D20
ENDCHAR
STARTCHAR hungarumlaut
ENCODING 733
SWIDTH 377 0
DWIDTH 9 0
BBX 7 3 1 14
BITMAP
0D34
2490
6180
ENDCHAR
STARTCHAR Mu
ENCODING 924
SWIDTH 527 0
DWIDTH 13 0
BBX 9 16 2 -3
BITMAP
400140
D00280
D00280
D00280
D00280
D00280
D00280
D00280
D00280
D00280
D00280
E00780
EFFA80
D00000
D00000
D00000
ENDCHAR
STARTCHAR Pi
ENCODING 928
SWIDTH 605 0
DWIDTH 15 0
BBX 13 16 1 -1
BITMAP
FFFFFF80
0A007000
06007000
06007000
06007000
06007000
06007000
06007000
06007000
06007000
06007000
06007000
06007000
06007000
06007000
05001000
ENDCHAR
STARTCHAR Sigma
ENCODING 931
SWIDTH 481 0
DWIDTH 12 0
BBX 9 15 1 0
BITMAP
BFFFC0
740000
280000
0D0000
070000
028000
00D000
00A000
00D000
028000
074000
0E0000
2C0000
740000
BFFFC0
ENDCHAR
STARTCHAR uni0901
ENCODING 2305
SWIDTH 0 0
DWIDTH 0 0
BBX 8 4 -7 17
BITMAP
01C0
6003
7007
2FFD
ENDCHAR
STARTCHAR uni0902
ENCODING 2306
SWIDTH 0 0
DWIDTH 0 0
BBX 2 1 -4 18
BITMAP
60
ENDCHAR
STARTCHAR uni0903
ENCODING 2307
SWIDTH 247 0
DWIDTH 6 0
BBX 2 8 2 2
BITMAP
A0
00
00
00
00
00
00
A0
ENDCHAR
STARTCHAR uni0905
ENCODING 2309
SWIDTH 598 0
DWIDTH 14 0
BBX 14 15 1 0
BITMAP
7F900FE0
00700D00
00240C00
00280C00
00280C00
00740C00
2FD00C00
01B00C00
002FFC00
00280C00
00280C00
00240C00
00700C00
FFD00C00
00000C00
ENDCHAR
STARTCHAR uni0906
ENCODING 2310
SWIDTH 828 0
DWIDTH 20 0
BBX 20 15 1 0
BITMAP
7F900FFFFD
00700C0280
00240C0180
00280C0180
00240C0180
00700C0180
2FD00C0180
01A00C0180
002FFC0180
00281C0180
00280C0180
00240C0180
00700C0180
FFD00C0180
00000C0180
ENDCHAR
STARTCHAR uni0907
ENCODING 2311
SWIDTH 478 0
DWIDTH 11 0
BBX 13 16 -1 -1
BITMAP
7FFFFF80
00003400
00003400
00003400
01BFF400
03400000
07000000
03400000
01FFE000
00006800
00001C00
06001C00
07001C00
07402800
07BFE000
06000000
ENDCHAR
STARTCHAR uni0908
ENCODING 2312
SWIDTH 478 0
DWIDTH 11 0
BBX 13 22 -1 -1
BITMAP
0000BF00
00029000
00034000
00034000
00034000
00024000
7FFFFF80
00003400
00003400
00003400
01BFF400
03400000
07000000
03400000
01FFE000
00006800
00001C00
06001C00
07001C00
07402800
07BFE000
06000000
ENDCHAR
STARTCHAR uni0909
ENCODING 2313
SWIDTH 471 0
DWIDTH 11 0
BBX 13 15 -1 0
BITMAP
7FFFFF80
00006000
00002400
00002800
00002800
00002400
00007000
001FD000
00007400
00002800
09001800
0D001800
09002800
07407400
01FFD000
ENDCHAR
STARTCHAR uni090A
ENCODING 2314
SWIDTH 661 0
DWIDTH 16 0
BBX 18 15 -1 0
BITMAP
7FFFFFFFD0
0000700000
0000240000
0000280000
0000280000
0000240000
0000600000
001FFFE400
0000741E00
0400280700
0D00180300
0900180300
0900280700
0740700A00
01FFD0B800
ENDCHAR
STARTCHAR uni090B
ENCODING 2315
SWIDTH 753 0
DWIDTH 18 0
BBX 20 15 -1 0
BITMAP
7FFFFFFFFD
0000280000
0000280000
0000280000
0000280000
01BFA806D0
0390782DD0
060029A0D0
06002F40D0
05002D0BD0
0000B82800
0007A83000
001D283000
00B0282800
0280281BE0
ENDCHAR
STARTCHAR uni090C
ENCODING 2316
SWIDTH 676 0
DWIDTH 16 0
BBX 18 20 -1 -5
BITMAP
7FFFFFFFE0
0000001C00
0000000C00
0000000C00
00BE1B9C00
0296B47C00
0300E01C00
0700900C00
0700900C00
0700900C00
0700000C00
0700000C00
0380000C00
01BE000C00
000001BC00
0000034000
0000070000
0000070000
0000034190
000001BF80
ENDCHAR
STARTCHAR uni090D
ENCODING 2317
SWIDTH 521 0
DWIDTH 13 0
BBX 14 20 -1 1
BITMAP
00C00900
00C00D00
00A01C00
002FE400
00000000
00000000
7FFFFFF0
02400700
02400700
02400700
02400700
02400700
02400A00
0242F800
02400000
02400000
02400000
02800000
01D00000
007FFD00
ENDCHAR
STARTCHAR uni090E
ENCODING 2318
SWIDTH 522 0
DWIDTH 13 0
BBX 14 20 -1 1
BITMAP
001C0000
000C0000
000B4000
0001E400
00001D00
00000700
7FFFFFF0
02400700
02400700
02400700
02400700
02400700
02400A00
0242F800
02400000
02400000
02400000
02800000
01D00000
007FFD00
ENDCHAR
STARTCHAR uni090F
ENCODING 2319
SWIDTH 526 0
DWIDTH 13 0
BBX 14 14 -1 1
BITMAP
7FFFFFF0
02400700
02400700
02400700
02400700
02400700
02400A00
0242F800
02400000
02400000
02400000
02800000
01D00000
007FFD00
ENDCHAR
STARTCHAR uni0910
ENCODING 2320
SWIDTH 526 0
DWIDTH 13 0
BBX 14 20 -1 1
BITMAP
00034000
0001C000
0000A000
00003400
00001C00
00000A00
7FFFFFF0
02400700
02400700
02400700
02400700
02400700
02400A00
0242F800
02400000
02400000
02400000
02800000
01D00000
007FFD00
ENDCHAR
STARTCHAR uni0911
ENCODING 2321
SWIDTH 829 0
DWIDTH 20 0
BBX 20 20 1 0
BITMAP
00001800C0
00000D01C0
000007FF40
0000000000
0000000000
7F900FFFFD
00700D0180
00240C0180
00280C0180
00280C0180
00740C0180
2FD00C0180
01B00C0180
002FFC0180
00280C0180
00280C0180
00240C0180
00700C0180
FFD00C0180
00000C0180
ENDCHAR
STARTCHAR uni0912
ENCODING 2322
SWIDTH 828 0
DWIDTH 20 0
BBX 20 21 1 0
BITMAP
0000060000
0000070000
0000029000
0000007800
0000000B40
0000000280
7F900FFFFD
00700D0280
00240C0180
00280C0180
00280C0180
00740C0180
2FD00C0180
01B00C0180
002FFC0180
00280C0180
00280C0180
00240C0180
00700C0180
FFD00C0180
00000C0180
ENDCHAR
STARTCHAR uni0913
ENCODING 2323
SWIDTH 829 0
DWIDTH 20 0
BBX 20 21 1 0
BITMAP
000001C000
000000A000
0000003400
0000001C00
0000000A00
0000000240
7F900FFFFD
00700D0180
00240C0180
00280C0180
00280C0180
00740C0180
2FD00C0180
01B00C0180
002FFC0180
00280C0180
00280C0180
00240C0180
00700C0180
FFD00C0180
00000C0180
ENDCHAR
STARTCHAR uni0914
ENCODING 2324
SWIDTH 829 0
DWIDTH 20 0
BBX 20 21 1 0
BITMAP
0000028180
000000D180
0000007180
0000002980
0000000A80
0000000280
7F900FFFFD
00700D0180
00240C0180
00280C0180
00280C0180
00740C0180
2FD00C0180
01B00C0180
002FFC0180
00280C0180
00280C0180
00240C0180
00700C0180
FFD00C0180
00000C0180
ENDCHAR
STARTCHAR uni0915
ENCODING 2325
SWIDTH 725 0
DWIDTH 17 0
BBX 19 15 -1 0
BITMAP
7FFFFFFFF8
0000340000
0000340000
00BD36F900
03903D0740
0700340180
06003401C0
0A003401C0
0A003401C0
0A003401C0
0600340180
0340B40740
01BFB4FD00
0000340000
0000340000
ENDCHAR
STARTCHAR uni0916
ENCODING 2326
SWIDTH 696 0
DWIDTH 17 0
BBX 18 15 -1 0
BITMAP
7FFFFFFFF0
000D000A00
000C000A00
000C000A00
000C0B8A00
000C290A00
0028700A00
0FE4700A00
0E00600A00
0700700A00
0280381E00
00D01BEA00
0074000A00
0028000A00
0009000900
ENDCHAR
STARTCHAR uni0917
ENCODING 2327
SWIDTH 494 0
DWIDTH 12 0
BBX 13 15 -1 0
BITMAP
7FFFFFC0
00D02800
00902800
00902800
00902800
00902800
00902800
00D02800
01C02800
1F402800
00002800
00002800
00002800
00002800
00001800
ENDCHAR
STARTCHAR uni0918
ENCODING 2328
SWIDTH 559 0
DWIDTH 13 0
BBX 15 15 -1 0
BITMAP
7FFFFFF8
03800340
07000340
07000340
07000340
03400340
01FE0340
02800340
07000340
07000340
07000340
03400B40
01BFF740
00000340
00000340
ENDCHAR
STARTCHAR uni0919
ENCODING 2329
SWIDTH 505 0
DWIDTH 12 0
BBX 14 15 -1 0
BITMAP
7FFFFFD0
00003400
00003400
00003400
01BFF000
03400000
07000340
03400000
01FFE000
00006800
00001C00
01001C00
07001C00
03402800
01FFE000
ENDCHAR
STARTCHAR uni091A
ENCODING 2330
SWIDTH 563 0
DWIDTH 14 0
BBX 15 15 -1 0
BITMAP
7FFFFFFC
00000340
00000340
00000340
00000340
1FFF8340
00E00340
01800340
01800340
01800340
00D00B40
007FFB40
00000340
00000340
00000240
ENDCHAR
STARTCHAR uni091B
ENCODING 2331
SWIDTH 581 0
DWIDTH 14 0
BBX 16 14 -1 1
BITMAP
7FFFFFFD
02800280
03000280
07000280
07003F40
03000680
028000C0
00FD00D0
029000D0
030000D0
070000D0
030000C0
03800280
01BFFE00
ENDCHAR
STARTCHAR uni091C
ENCODING 2332
SWIDTH 547 0
DWIDTH 13 0
BBX 15 15 -1 0
BITMAP
7FFFFFF4
00000700
00000700
00000700
00000700
07FFFF00
001D0700
000A0700
00060700
00060700
000A0700
001D0700
1FF80700
00000700
00000700
ENDCHAR
STARTCHAR uni091D
ENCODING 2333
SWIDTH 664 0
DWIDTH 16 0
BBX 18 15 -1 0
BITMAP
7FFFFFFFD0
0000901800
0000901800
01BFD01800
0380001800
0700001800
0700001800
0340001800
01FFFFF800
0000B02800
0600301800
0700301800
0740701800
07BFD01800
0600001400
ENDCHAR
STARTCHAR uni091E
ENCODING 2334
SWIDTH 592 0
DWIDTH 14 0
BBX 16 15 -1 0
BITMAP
7FFFFFFE
000001C0
000000C0
000000C0
0BE400C0
001900C0
000600C0
000301C0
0003FFC0
000301C0
000700C0
000A00C0
0FF800C0
000000C0
000000C0
ENDCHAR
STARTCHAR uni091F
ENCODING 2335
SWIDTH 485 0
DWIDTH 12 0
BBX 13 14 -1 1
BITMAP
7FFFFFC0
00003000
00003000
00003000
00BFF000
02900000
07000000
06000000
06000000
06000900
06000900
07000D00
03801C00
00BFE400
ENDCHAR
STARTCHAR uni0920
ENCODING 2336
SWIDTH 512 0
DWIDTH 12 0
BBX 14 14 -1 1
BITMAP
7FFFFFE0
00002400
00002400
00003400
00BFE000
02906800
07000D00
06000900
06000900
06000900
06000900
07000900
03801C00
01BFE400
ENDCHAR
STARTCHAR uni0921
ENCODING 2337
SWIDTH 475 0
DWIDTH 11 0
BBX 13 15 -1 0
BITMAP
7FFFFF80
00003400
00003400
00003400
01BFF000
03800000
03000000
07000000
03400000
01FFE000
00006800
00001C00
07001C00
03402800
01FFE000
ENDCHAR
STARTCHAR uni0922
ENCODING 2338
SWIDTH 485 0
DWIDTH 12 0
BBX 13 14 -1 1
BITMAP
7FFFFFC0
00003400
00003400
00003400
00BFF400
02900000
07000000
06000000
0601F800
06035D00
06060900
07010900
02801D00
00BFF400
ENDCHAR
STARTCHAR uni0923
ENCODING 2339
SWIDTH 681 0
DWIDTH 16 0
BBX 18 15 -1 0
BITMAP
7FFFFFFFE0
0300700D00
0300700C00
0300700C00
0300700C00
0300700C00
0300700C00
0300700C00
0340600C00
0280900C00
00BF800C00
0000000C00
0000000C00
0000000C00
0000000C00
ENDCHAR
STARTCHAR uni0924
ENCODING 2340
SWIDTH 496 0
DWIDTH 12 0
BBX 14 15 -1 0
BITMAP
7FFFFFD0
00001800
00001800
00001800
00001800
00BFF800
03902800
07001800
06001800
06001800
06001800
06001800
07001800
03401800
01B81800
ENDCHAR
STARTCHAR uni0925
ENCODING 2341
SWIDTH 593 0
DWIDTH 14 0
BBX 14 15 1 0
BITMAP
0BE00FE0
28280C00
341C0C00
341C0C00
00180C00
00280C00
7FE00C00
A0000C00
A0000C00
60001C00
38007C00
0BFFDC00
00000C00
00000C00
00000C00
ENDCHAR
STARTCHAR uni0926
ENCODING 2342
SWIDTH 489 0
DWIDTH 12 0
BBX 13 15 -1 0
BITMAP
7FFFFFC0
00002800
00002800
00002800
00BFF800
02900000
07000000
06000000
06000000
06000C00
07001C00
03802C00
01BFEC00
00001C00
00000C00
ENDCHAR
STARTCHAR uni0927
ENCODING 2343
SWIDTH 560 0
DWIDTH 13 0
BBX 15 15 -1 0
BITMAP
7FF87FF8
02800340
07000340
07000340
07000340
03400340
01FE0340
02800340
07000340
07000340
07000340
03400B40
01BFFB40
00000340
00000340
ENDCHAR
STARTCHAR uni0928
ENCODING 2344
SWIDTH 473 0
DWIDTH 11 0
BBX 13 15 -1 0
BITMAP
7FFFFF80
00003400
00003000
00003000
00003000
00003000
02FFF000
0A003000
0D003000
09003000
04003000
00003000
00003000
00003000
00003000
ENDCHAR
STARTCHAR uni0928093C
ENCODING 2345
SWIDTH 473 0
DWIDTH 11 0
BBX 13 15 -1 0
BITMAP
7FFFFF80
00003400
00003000
00003000
00003000
00003000
02FFF000
0A003000
0D003000
09003000
00003000
00003000
00003000
00003000
00602000
ENDCHAR
STARTCHAR uni092A
ENCODING 2346
SWIDTH 503 0
DWIDTH 12 0
BBX 14 15 -1 0
BITMAP
7FFFFFD0
03401C00
03001C00
03001C00
03001C00
03001C00
03001C00
03001C00
03401C00
02807C00
00BFEC00
00001C00
00001C00
00001C00
00001C00
ENDCHAR
STARTCHAR uni092B
ENCODING 2347
SWIDTH 739 0
DWIDTH 18 0
BBX 19 15 -1 0
BITMAP
7FFFFFFFFC
0340280000
0300280000
03002AF900
03002E4680
03002800C0
03002800D0
03402800D0
02807800D0
00BFA800D0
00002800C0
0000280280
000028BE00
0000280000
0000280000
ENDCHAR
STARTCHAR uni092C
ENCODING 2348
SWIDTH 491 0
DWIDTH 12 0
BBX 13 15 -1 0
BITMAP
7FFFFFC0
00002800
00002800
00BE2800
02902800
07C02800
06702800
061C2800
06062800
0601A800
06007800
03407800
01BFA800
00002800
00002800
ENDCHAR
STARTCHAR uni092D
ENCODING 2349
SWIDTH 491 0
DWIDTH 12 0
BBX 13 15 -1 0
BITMAP
7803FFC0
0A002800
03002800
03002800
03002800
03002800
03002800
03FFF800
03402800
03002800
03002800
00002800
00002800
00002800
00002800
ENDCHAR
STARTCHAR uni092E
ENCODING 2350
SWIDTH 490 0
DWIDTH 12 0
BBX 13 15 -1 0
BITMAP
7FFFFFC0
03002800
03002800
03002800
03002800
03002800
03002800
03FFF800
03402800
03002800
03002800
00002800
00002800
00002800
00002800
ENDCHAR
STARTCHAR uni092F
ENCODING 2351
SWIDTH 564 0
DWIDTH 14 0
BBX 15 15 -1 0
BITMAP
7FFFFFFC
00180340
000D0240
000D0240
001C0240
07F40240
06000240
06000240
06000340
07000340
02800B40
00BFF640
00000240
00000240
00000240
ENDCHAR
STARTCHAR uni0930
ENCODING 2352
SWIDTH 337 0
DWIDTH 8 0
BBX 10 15 -1 0
BITMAP
7FFFD0
000D00
000C00
000C00
000C00
000C00
002800
0FE400
0E0000
070000
028000
00D000
007000
002800
000D00
ENDCHAR
STARTCHAR uni0930093C
ENCODING 2353
SWIDTH 347 0
DWIDTH 8 0
BBX 10 16 -1 -1
BITMAP
7FFFE0
000900
000900
000900
000900
000D00
001C00
0FF400
0A0000
034000
01C000
009000
007000
002800
000D00
280500
ENDCHAR
STARTCHAR uni0932
ENCODING 2354
SWIDTH 676 0
DWIDTH 16 0
BBX 18 15 -1 0
BITMAP
7FFFFFFFE0
0000001C00
0000000C00
0000000C00
00BE1B9C00
0296B47C00
0300E01C00
0700900C00
0700900C00
0700900C00
0700000C00
0700000C00
0380000C00
01BE000C00
0000000C00
ENDCHAR
STARTCHAR uni0933
ENCODING 2355
SWIDTH 672 0
DWIDTH 16 0
BBX 18 14 -1 1
BITMAP
7FFFFFFFD0
0000028000
0000028000
0000028000
00BE0BE000
0291F86C00
0700A00D00
0600A00900
0600A00900
0600A00900
0600A00900
0700A00D00
0341F41C00
01BF5FE400
ENDCHAR
STARTCHAR uni0933093C
ENCODING 2356
SWIDTH 672 0
DWIDTH 16 0
BBX 18 16 -1 -1
BITMAP
7FFFFFFFD0
0000028000
0000028000
0000028000
00BE0BE000
0291F86C00
0700A00D00
0600A00900
0600A00900
0600A00900
0600A00900
0700A00D00
0341F41C00
01BF5FE400
0000000000
0028000000
ENDCHAR
STARTCHAR uni0935
ENCODING 2357
SWIDTH 484 0
DWIDTH 12 0
BBX 13 15 -1 0
BITMAP
7FFFFFC0
00002400
00002400
00BD2400
02902400
07002400
06002400
06002400
06002400
06002400
07003400
03407400
01BFA400
00002400
00002400
ENDCHAR
STARTCHAR uni0936
ENCODING 2358
SWIDTH 614 0
DWIDTH 15 0
BBX 14 15 1 0
BITMAP
1BE00BF0
34280A00
300C0A00
700C0A00
100C0A00
001C0A00
00280A00
FFE00A00
A0000A00
34000A00
1C000A00
0A000A00
03400A00
01C00A00
00A00A00
ENDCHAR
STARTCHAR uni0937
ENCODING 2359
SWIDTH 505 0
DWIDTH 12 0
BBX 14 15 -1 0
BITMAP
7FFFFFD0
03801C00
03D01C00
03741C00
031C1C00
03061C00
03019C00
0300AC00
03402C00
02803C00
00BFEC00
00001C00
00001C00
00001C00
00001C00
ENDCHAR
STARTCHAR uni0938
ENCODING 2360
SWIDTH 575 0
DWIDTH 14 0
BBX 15 15 -1 0
BITMAP
7FFFFFFC
00280280
00280280
00280280
00280280
00280280
00740280
0FFFFF80
0E000280
07000280
02800280
00D00280
00A00280
00340280
001C0280
ENDCHAR
STARTCHAR uni0939
ENCODING 2361
SWIDTH 481 0
DWIDTH 12 0
BBX 13 16 -1 -1
BITMAP
7FFFFFC0
00002400
00002400
00002400
01BFF400
03800000
03000000
03400000
01FF9000
02907400
03001800
07001800
07000400
03000000
02800000
00BFF400
ENDCHAR
STARTCHAR uni093C
ENCODING 2364
SWIDTH 0 0
DWIDTH 0 0
BBX 2 1 -4 -2
BITMAP
90
ENDCHAR
STARTCHAR uni093D
ENCODING 2365
SWIDTH 529 0
DWIDTH 13 0
BBX 9 15 2 0
BITMAP
1BFE00
280000
340000
340000
280000
1E0000
07D000
007800
000B00
000240
000280
000280
900280
380740
0BFD00
ENDCHAR
STARTCHAR uni093E
ENCODING 2366
SWIDTH 231 0
DWIDTH 6 0
BBX 7 15 -1 0
BITMAP
7FFC
0240
0240
0240
0240
0240
0240
0240
0240
0240
0240
0240
0240
0240
0240
ENDCHAR
STARTCHAR uni093F
ENCODING 2367
SWIDTH 231 0
DWIDTH 6 0
BBX 16 21 -1 0
BITMAP
007FFFF8
01D0000A
02400007
02400003
02400001
02400000
7FFC0000
02400000
02400000
02400000
02400000
02400000
02400000
02400000
02400000
02400000
02400000
02400000
02400000
02400000
02400000
ENDCHAR
STARTCHAR uni0940
ENCODING 2368
SWIDTH 231 0
DWIDTH 6 0
BBX 10 21 -4 0
BITMAP
1BE400
341C00
700D00
600900
100900
000900
01FFF0
000900
000900
000900
000900
000900
000900
000900
000900
000900
000900
000900
000900
000900
000900
ENDCHAR
STARTCHAR uni0941
ENCODING 2369
SWIDTH 0 0
DWIDTH 0 0
BBX 9 6 -8 -6
BITMAP
007E00
400240
D00180
600180
290240
0BFE00
ENDCHAR
STARTCHAR uni0942
ENCODING 2370
SWIDTH 0 0
DWIDTH 0 0
BBX 10 6 -7 -6
BITMAP
1BE400
341A00
300340
700180
3400D0
1F8050
ENDCHAR
STARTCHAR uni0943
ENCODING 2371
SWIDTH 0 0
DWIDTH 0 0
BBX 8 6 -7 -6
BITMAP
1B80
7400
6000
6001
741D
1FE4
ENDCHAR
STARTCHAR uni0945
ENCODING 2373
SWIDTH 0 0
DWIDTH 0 0
BBX 8 4 -7 17
BITMAP
1001
6003
740A
1FF8
ENDCHAR
STARTCHAR uni0946
ENCODING 2374
SWIDTH 0 0
DWIDTH 0 0
BBX 8 7 -9 14
BITMAP
6000
7000
2900
0790
00B4
0018
002D
ENDCHAR
STARTCHAR uni0947
ENCODING 2375
SWIDTH 0 0
DWIDTH 0 0
BBX 7 7 -8 14
BITMAP
7000
2800
0D00
0700
0280
00D0
0074
ENDCHAR
STARTCHAR uni0948
ENCODING 2376
SWIDTH 0 0
DWIDTH 0 0
BBX 7 7 -8 14
BITMAP
7060
2860
1D60
0A60
03A0
01E0
0074
ENDCHAR
STARTCHAR uni0949
ENCODING 2377
SWIDTH 231 0
DWIDTH 6 0
BBX 8 20 -1 0
BITMAP
C009
900D
6FF8
0000
0000
7FFC
0240
0240
0240
0240
0240
0240
0240
0240
0240
0240
0240
0240
0240
0240
ENDCHAR
STARTCHAR uni094A
ENCODING 2378
SWIDTH 231 0
DWIDTH 6 0
BBX 9 21 -3 0
BITMAP
D00000
A00000
780000
0B4000
01A000
003400
07FFC0
002400
002400
002400
002400
002400
002400
002400
002400
002400
002400
002400
002400
002400
002400
ENDCHAR
STARTCHAR uni094B
ENCODING 2379
SWIDTH 231 0
DWIDTH 6 0
BBX 8 21 -2 0
BITMAP
A000
3400
1C00
0A00
0340
01C0
1FFF
0090
0090
0090
0090
0090
0090
0090
0090
0090
0090
0090
0090
0090
0090
ENDCHAR
STARTCHAR uni094C
ENCODING 2380
SWIDTH 231 0
DWIDTH 6 0
BBX 8 21 -2 0
BITMAP
9090
7090
2890
0990
0290
01D0
1FFF
0090
0090
0090
0090
0090
0090
0090
0090
0090
0090
0090
0090
0090
0090
ENDCHAR
STARTCHAR uni094D
ENCODING 2381
SWIDTH 0 0
DWIDTH 0 0
BBX 4 4 -4 -5
BITMAP
70
28
0D
07
ENDCHAR
STARTCHAR uni0950
ENCODING 2384
SWIDTH 847 0
DWIDTH 20 0
BBX 18 18 1 1
BITMAP
0000024000
0000000000
0000000000
00000001C0
0BF802FE40
001A000000
0007000000
0003000000
000702FE00
000A0006C0
03F80000D0
001D000090
0007FE0090
5003470090
A003030090
A007030090
740A0341C0
1FF801FF40
ENDCHAR
STARTCHAR uni0951
ENCODING 2385
SWIDTH 0 0
DWIDTH 0 0
BBX 2 4 -4 17
BITMAP
60
60
60
60
ENDCHAR
STARTCHAR uni0952
ENCODING 2386
SWIDTH 0 0
DWIDTH 0 0
BBX 8 1 -10 -2
BITMAP
FFFE
ENDCHAR
STARTCHAR uni0953
ENCODING 2387
SWIDTH 0 0
DWIDTH 0 0
BBX 4 5 -6 16
BITMAP
D0
70
28
0D
05
ENDCHAR
STARTCHAR uni0954
ENCODING 2388
SWIDTH 0 0
DWIDTH 0 0
BBX 4 5 -3 16
BITMAP
0D
28
70
D0
40
ENDCHAR
STARTCHAR uni0915093C
ENCODING 2392
SWIDTH 725 0
DWIDTH 17 0
BBX 19 16 -1 -1
BITMAP
7FFFFFFFF8
0000340000
0000340000
00BD36F900
03903D0740
0700340180
06003401C0
0A003401C0
0A003401C0
0A003401C0
0600340180
0340B40740
01BFB4FD00
0000340000
0000340000
0060100000
ENDCHAR
STARTCHAR uni0916093C
ENCODING 2393
SWIDTH 696 0
DWIDTH 17 0
BBX 18 16 -1 -1
BITMAP
7FFFFFFFF0
000D000A00
000C000A00
000C000A00
000C0B8A00
000C290A00
0028700A00
0FE4700A00
0E00600A00
0700700A00
0280381E00
00D01BEA00
0070000A00
0028000A00
000D000A00
0904000400
ENDCHAR
STARTCHAR uni0917093C
ENCODING 2394
SWIDTH 494 0
DWIDTH 12 0
BBX 13 16 -1 -1
BITMAP
7FFFFFC0
00D02800
00902800
00902800
00902800
00902800
00902800
00D02800
01C02800
1F402800
00002800
00002800
00002800
00002800
00002800
02801400
ENDCHAR
STARTCHAR uni091C093C
ENCODING 2395
SWIDTH 547 0
DWIDTH 13 0
BBX 15 16 -1 -1
BITMAP
7FFFFFF4
00000700
00000700
00000700
00000700
07FFFF00
001D0700
000A0700
00060700
00060700
000A0700
001D0700
1FF80700
00000700
00000700
03400000
ENDCHAR
STARTCHAR uni0921093C
ENCODING 2396
SWIDTH 475 0
DWIDTH 11 0
BBX 13 18 -1 -3
BITMAP
7FFFFF80
00003400
00003400
00003400
01BFF000
03800000
03000000
07000000
03400000
01FFE000
00006800
00001C00
07001C00
03402800
01FFE000
00000000
00000000
00090000
ENDCHAR
STARTCHAR uni0922093C
ENCODING 2397
SWIDTH 485 0
DWIDTH 12 0
BBX 13 17 -1 -2
BITMAP
7FFFFFC0
00003400
00003400
00003400
00BFF400
02900000
07000000
06000000
0601F800
06035D00
06060900
07010900
02801D00
00BFF400
00000000
00000000
000A0000
ENDCHAR
STARTCHAR uni092B093C
ENCODING 2398
SWIDTH 739 0
DWIDTH 18 0
BBX 19 16 -1 -1
BITMAP
7FFFFFFFFC
0340280000
0300280000
03002AF900
03002E4680
03002800C0
03002800D0
03402800D0
02807800D0
00BFA800D0
00002800C0
0000280280
000028BE00
0000280000
0000280000
0090140000
ENDCHAR
STARTCHAR uni092F093C
ENCODING 2399
SWIDTH 564 0
DWIDTH 14 0
BBX 15 16 -1 -1
BITMAP
7FFFFFFC
00180340
000D0240
000D0240
001C0240
07F40240
06000240
06000240
06000340
07000340
02800B40
00BFF640
00000240
00000240
00000240
01800100
ENDCHAR
STARTCHAR uni0960
ENCODING 2400
SWIDTH 753 0
DWIDTH 18 0
BBX 20 18 -1 -3
BITMAP
7FFFFFFFFD
0000280000
0000280000
0000280000
0000280000
01BFA807D0
0340782DD0
060029E0D0
06002F5BD0
0000383400
0001E83000
0007683400
0028281FE0
00E0282900
0340183400
0000003000
0000002800
0000001FE0
ENDCHAR
STARTCHAR uni0961
ENCODING 2401
SWIDTH 676 0
DWIDTH 16 0
BBX 18 21 -1 -6
BITMAP
7FFFFFFFE0
0000001C00
0000000C00
0000000C00
0000000C00
00BE1B9C00
0292B46C00
0300A01C00
0700900C00
0700900C00
0700500C00
070001BC00
0700038000
0380070000
01BE070000
0000034000
000001FD00
0000034000
0000070000
0000034000
000001FE00
ENDCHAR
STARTCHAR uni0964
ENCODING 2404
SWIDTH 286 0
DWIDTH 7 0
BBX 2 15 3 0
BITMAP
A0
A0
A0
A0
A0
A0
A0
A0
A0
A0
A0
A0
A0
A0
A0
ENDCHAR
STARTCHAR uni0965
ENCODING 2405
SWIDTH 518 0
DWIDTH 12 0
BBX 7 15 3 0
BITMAP
A00C
A00C
A00C
A00C
A00C
A00C
A00C
A00C
A00C
A00C
A00C
A00C
A00C
A00C
A00C
ENDCHAR
STARTCHAR uni0966
ENCODING 2406
SWIDTH 519 0
DWIDTH 12 0
BBX 10 15 1 0
BITMAP
0BFE40
2801D0
7000A0
700060
600060
600060
600060
600060
600060
600060
600060
700060
7000A0
3801D0
1BFF40
ENDCHAR
STARTCHAR uni0967
ENCODING 2407
SWIDTH 288 0
DWIDTH 7 0
BBX 5 16 0 -1
BITMAP
02C0
1EC0
A4C0
00C0
00C0
00C0
00C0
00C0
00C0
00C0
00C0
00C0
00C0
00C0
00C0
0040
ENDCHAR
STARTCHAR uni0968
ENCODING 2408
SWIDTH 453 0
DWIDTH 11 0
BBX 9 15 1 0
BITMAP
1BFD00
740740
A00180
9001C0
500180
000280
000700
002800
01E000
074000
2C0000
700000
A00000
A00000
BFFFC0
ENDCHAR
STARTCHAR uni0969
ENCODING 2409
SWIDTH 489 0
DWIDTH 12 0
BBX 9 15 1 0
BITMAP
1BFE00
740680
A001C0
9000C0
5000C0
0001C0
000280
00FE00
000640
0001C0
5000C0
9000C0
A001C0
740280
1FFE00
ENDCHAR
STARTCHAR uni096A
ENCODING 2410
SWIDTH 453 0
DWIDTH 11 0
BBX 11 16 0 -1
BITMAP
000780
000AC0
001DC0
0035C0
00A1C0
01C1C0
0241C0
0601C0
0D01C0
2801C0
7001C0
BFFFF8
0001C0
0001C0
0001C0
000040
ENDCHAR
STARTCHAR uni096B
ENCODING 2411
SWIDTH 480 0
DWIDTH 12 0
BBX 10 15 1 0
BITMAP
7FFFC0
700000
600000
600000
600000
600000
6BFE00
740680
1000C0
0000D0
0000D0
6000D0
7000D0
3402C0
1BFE00
ENDCHAR
STARTCHAR uni096C
ENCODING 2412
SWIDTH 495 0
DWIDTH 12 0
BBX 10 15 1 0
BITMAP
0BFFC0
280000
700000
700000
600000
600000
66FE40
7902C0
700090
7000A0
6000A0
6000A0
7000A0
3801D0
1BFF40
ENDCHAR
STARTCHAR uni096D
ENCODING 2413
SWIDTH 380 0
DWIDTH 9 0
BBX 9 16 0 -1
BITMAP
BFFF80
000240
000700
000A00
000D00
001C00
002800
003400
007000
00A000
01C000
028000
034000
070000
0A0000
040000
ENDCHAR
STARTCHAR uni096E
ENCODING 2414
SWIDTH 523 0
DWIDTH 13 0
BBX 10 15 1 0
BITMAP
0BFF40
2801D0
700060
700070
700070
700060
3800D0
0FFF80
2901D0
700060
700070
600070
700060
3400D0
1BFF80
ENDCHAR
STARTCHAR uni096F
ENCODING 2415
SWIDTH 493 0
DWIDTH 12 0
BBX 9 15 1 0
BITMAP
1BFE00
740680
A000C0
9000C0
9000C0
9000C0
9000C0
7400C0
1FFFC0
0000C0
0000C0
0000C0
0000C0
000280
3FFE00
ENDCHAR
STARTCHAR uni0970
ENCODING 2416
SWIDTH 391 0
DWIDTH 9 0
BBX 8 8 1 4
BITMAP
1BE0
7468
D00D
C009
C009
D00D
A01C
2FE4
ENDCHAR
STARTCHAR uni0972
ENCODING 2418
SWIDTH 598 0
DWIDTH 14 0
BBX 15 20 1 0
BITMAP
00030024
00034070
0001FFD0
00000000
00000000
7F900FE0
00700D00
00240C00
00280C00
00280C00
00740C00
2FD00C00
01B00C00
002FFC00
00280C00
00280C00
00240C00
00700C00
FFD00C00
00000C00
ENDCHAR
STARTCHAR Wgrave
ENCODING 7808
SWIDTH 795 0
DWIDTH 19 0
BBX 18 20 1 0
BITMAP
0004000000
000A000000
0002400000
0000400000
0000000000
C001D000D0
D002E001C0
A003700280
A003340280
7006240340
3409180700
240C0C0700
281C0D0A00
1C280A0900
0C24060D00
0D30031C00
0A60025800
06A001A800
07D001F400
03C000F000
ENDCHAR
STARTCHAR wgrave
ENCODING 7809
SWIDTH 682 0
DWIDTH 16 0
BBX 16 17 0 0
BITMAP
001C0000
000A0000
00034000
00004000
00000000
6002C006
3002D00A
3403900D
2806601C
1C093028
0D0C2434
091C2830
06181860
03240C90
027009D0
02E007C0
01E00380
ENDCHAR
STARTCHAR Wacute
ENCODING 7810
SWIDTH 795 0
DWIDTH 19 0
BBX 18 20 1 0
BITMAP
0000050000
0000280000
0000700000
0000400000
0000000000
C001D000D0
D002E001C0
A003700280
A003340280
7006240340
3409180700
240C0C0700
281C0D0A00
1C280A0900
0C24060D00
0D30031C00
0A60025800
06A001A800
07D001F400
03C000F000
ENDCHAR
STARTCHAR wacute
ENCODING 7811
SWIDTH 682 0
DWIDTH 16 0
BBX 16 17 0 0
BITMAP
00002800
00007000
00009000
00004000
00000000
6002C006
3002D00A
3403900D
2806601C
1C093028
0D0C2434
091C2830
06181860
03240C90
027009D0
02E007C0
01E00380
ENDCHAR
STARTCHAR Wdieresis
ENCODING 7812
SWIDTH 795 0
DWIDTH 19 0
BBX 18 20 1 0
BITMAP
000C0C0000
000C0C0000
000C0C0000
0000000000
0000000000
C001D000D0
D002E001C0
A003700280
A003340280
7006240340
3409180700
240C0C0700
281C0D0A00
1C280A0900
0C24060D00
0D30031C00
0A60025800
06A001A800
07D001F400
03C000F000
ENDCHAR
STARTCHAR wdieresis
ENCODING 7813
SWIDTH 682 0
DWIDTH 16 0
BBX 16 17 0 0
BITMAP
00181800
00181800
00181800
00000000
00000000
6002C006
3002D00A
3403900D
2806601C
1C093028
0D0C2434
091C2830
06181860
03240C90
027009D0
02E007C0
01E00380
ENDCHAR
STARTCHAR uni1E9E
ENCODING 7838
SWIDTH 542 0
DWIDTH 13 0
BBX 10 15 2 0
BITMAP
2FFFC0
B401C0
D00340
C00600
C00D00
C02800
C03E40
C001D0
C000A0
C000A0
C000A0
C000A0
C00090
C001C0
C0FE40
ENDCHAR
STARTCHAR Ygrave
ENCODING 7922
SWIDTH 493 0
DWIDTH 12 0
BBX 11 20 0 0
BITMAP
014000
00D000
007000
001400
000000
70001C
280028
1C0070
0A00A0
0701C0
028240
01C700
00A900
003C00
002800
002800
002800
002800
002800
002400
ENDCHAR
STARTCHAR ygrave
ENCODING 7923
SWIDTH 459 0
DWIDTH 11 0
BBX 11 20 0 -3
BITMAP
02C000
00A000
003000
001000
000000
700034
340070
1800A0
0C00D0
090180
070240
034700
028A00
01CD00
00EC00
00B800
003400
007000
01D000
2F4000
ENDCHAR
STARTCHAR uni200B
ENCODING 8203
SWIDTH 0 0
DWIDTH 0 0
BBX 1 1 0 0
BITMAP
00
ENDCHAR
STARTCHAR uni200C
ENCODING 8204
SWIDTH 0 0
DWIDTH 0 0
BBX 2 25 -1 -5
BITMAP
50
A0
A0
A0
A0
A0
A0
A0
A0
A0
A0
A0
A0
A0
A0
A0
A0
A0
A0
A0
A0
A0
A0
A0
A0
ENDCHAR
STARTCHAR uni200D
ENCODING 8205
SWIDTH 0 0
DWIDTH 0 0
BBX 6 25 -3 -5
BITMAP
4010
A0A0
2A80
0F00
2FC0
AAA0
0A00
0A00
0A00
0A00
0A00
0A00
0A00
0A00
0A00
0A00
0A00
0A00
0A00
0A00
0A00
0A00
0A00
0A00
0A00
ENDCHAR
STARTCHAR endash
ENCODING 8211
SWIDTH 408 0
DWIDTH 10 0
BBX 8 1 1 7
BITMAP
FFFE
ENDCHAR
STARTCHAR emdash
ENCODING 8212
SWIDTH 537 0
DWIDTH 13 0
BBX 11 1 1 7
BITMAP
FFFFFC
ENDCHAR
STARTCHAR quoteleft
ENCODING 8216
SWIDTH 179 0
DWIDTH 4 0
BBX 2 6 1 10
BITMAP
10
20
60
60
60
60
ENDCHAR
STARTCHAR quoteright
ENCODING 8217
SWIDTH 179 0
DWIDTH 4 0
BBX 2 6 1 9
BITMAP
60
60
60
50
50
40
ENDCHAR
STARTCHAR quotesinglbase
ENCODING 8218
SWIDTH 187 0
DWIDTH 4 0
BBX 2 6 1 -2
BITMAP
70
70
60
60
50
40
ENDCHAR
STARTCHAR quotedblleft
ENCODING 8220
SWIDTH 329 0
DWIDTH 8 0
BBX 6 6 1 10
BITMAP
1010
2050
6090
6090
60D0
60D0
ENDCHAR
STARTCHAR quotedblright
ENCODING 8221
SWIDTH 329 0
DWIDTH 8 0
BBX 6 6 1 9
BITMAP
60D0
60D0
60D0
50C0
5080
4040
ENDCHAR
STARTCHAR quotedblbase
ENCODING 8222
SWIDTH 337 0
DWIDTH 8 0
BBX 6 6 1 -2
BITMAP
7090
7090
6090
6090
5080
4040
ENDCHAR
STARTCHAR dagger
ENCODING 8224
SWIDTH 427 0
DWIDTH 10 0
BBX 8 15 1 0
BITMAP
0180
0180
0180
0180
FFFF
0180
0180
0180
0180
0180
0180
0180
0180
0180
0140
ENDCHAR
STARTCHAR daggerdbl
ENCODING 8225
SWIDTH 427 0
DWIDTH 10 0
BBX 8 15 1 0
BITMAP
0180
0180
0180
0180
FFFF
0180
0180
0180
0180
0180
FFFF
0180
0180
0180
0180
ENDCHAR
STARTCHAR bullet
ENCODING 8226
SWIDTH 273 0
DWIDTH 7 0
BBX 3 4 2 6
BITMAP
B4
B4
B4
B4
ENDCHAR
STARTCHAR ellipsis
ENCODING 8230
SWIDTH 591 0
DWIDTH 14 0
BBX 12 3 1 0
BITMAP
70280A
70280A
70280A
ENDCHAR
STARTCHAR perthousand
ENCODING 8240
SWIDTH 1027 0
DWIDTH 25 0
BBX 23 15 1 0
BITMAP
2FD009000000
A07018000000
902424000000
902430000000
902490000000
A070C0000000
2FD180000000
000300000000
00060BE01BE0
000924183428
0018300C6018
0024300C6008
0030300C6018
009034183428
00C01BE01FE0
ENDCHAR
STARTCHAR guilsinglleft
ENCODING 8249
SWIDTH 290 0
DWIDTH 7 0
BBX 5 8 1 2
BITMAP
0240
0A00
2800
6000
7000
1C00
0700
0140
ENDCHAR
STARTCHAR guilsinglright
ENCODING 8250
SWIDTH 290 0
DWIDTH 7 0
BBX 5 8 1 2
BITMAP
5000
2800
0A00
0240
0340
0D00
3400
5000
ENDCHAR
STARTCHAR fraction
ENCODING 8260
SWIDTH 117 0
DWIDTH 3 0
BBX 13 15 -5 0
BITMAP
00000240
00000A00
00001800
00007000
0000D000
00024000
00060000
001C0000
00340000
00900000
01800000
07000000
0D000000
24000000
60000000
ENDCHAR
STARTCHAR Euro
ENCODING 8364
SWIDTH 523 0
DWIDTH 13 0
BBX 10 15 1 0
BITMAP
06FF40
0E01E0
1C0070
180060
180000
FFF800
1C0000
180000
FFF800
1C0000
180010
180070
1C0060
0E01D0
02FF40
ENDCHAR
STARTCHAR uni20B9
ENCODING 8377
SWIDTH 414 0
DWIDTH 10 0
BBX 8 15 1 0
BITMAP
FFFF
01D0
0090
FFFF
00A0
0090
01C0
FF40
A000
3400
1C00
0A00
0340
01C0
00A0
ENDCHAR
STARTCHAR trademark
ENCODING 8482
SWIDTH 591 0
DWIDTH 14 0
BBX 12 6 1 9
BITMAP
7FCD06
090A0E
090A56
0908A2
090852
080802
ENDCHAR
STARTCHAR uni2126
ENCODING 8486
SWIDTH 629 0
DWIDTH 15 0
BBX 13 15 1 0
BITMAP
06FFE400
1D001D00
28000A00
28000600
28000600
28000600
28000600
28000600
28000600
28000600
28000600
28000600
28000A00
0D001D00
FFE1FFC0
ENDCHAR
STARTCHAR partialdiff
ENCODING 8706
SWIDTH 481 0
DWIDTH 12 0
BBX 9 16 1 0
BITMAP
0F9000
016800
000B00
000240
000180
0001C0
0BF9C0
3907C0
7001C0
A000C0
A000C0
A000C0
A000C0
6001C0
340280
1FFE00
ENDCHAR
STARTCHAR uni2206
ENCODING 8710
SWIDTH 594 0
DWIDTH 14 0
BBX 13 15 1 0
BITMAP
002C0000
003D0000
00A60000
00D34000
01C28000
0281C000
0340D000
0600A000
09007000
1C002400
28001C00
34000D00
70000A00
A0000700
FFFFFF40
ENDCHAR
STARTCHAR minus
ENCODING 8722
SWIDTH 523 0
DWIDTH 13 0
BBX 10 1 1 7
BITMAP
7FFFE0
ENDCHAR
STARTCHAR approxequal
ENCODING 8776
SWIDTH 523 0
DWIDTH 13 0
BBX 10 6 1 5
BITMAP
2F9060
656FE0
000000
000000
2F9060
656FE0
ENDCHAR
STARTCHAR notequal
ENCODING 8800
SWIDTH 523 0
DWIDTH 13 0
BBX 10 11 1 2
BITMAP
000500
000900
000C00
7FFFE0
003400
007000
009000
7FFFE0
018000
024000
010000
ENDCHAR
STARTCHAR lessequal
ENCODING 8804
SWIDTH 523 0
DWIDTH 13 0
BBX 10 9 1 3
BITMAP
0001A0
006E40
2F9000
790000
1AE400
001B90
000060
000000
7FFFE0
ENDCHAR
STARTCHAR greaterequal
ENCODING 8805
SWIDTH 523 0
DWIDTH 13 0
BBX 10 9 1 3
BITMAP
790000
1AE400
001B90
0001F0
006E40
2F9000
640000
000000
7FFFE0
ENDCHAR
STARTCHAR uni25CC
ENCODING 9676
SWIDTH 701 0
DWIDTH 17 0
BBX 14 14 2 1
BITMAP
0038E000
0B38E000
0F000B00
00000B00
B0000000
B00002D0
000001D0
E0000000
E00002C0
000002C0
3C001D00
29D01D00
01D74000
00074000
ENDCHAR
STARTCHAR commaaccent
ENCODING 63171
SWIDTH 0 0
DWIDTH 0 0
BBX 2 5 4 -6
BITMAP
70
70
70
60
50
ENDCHAR
STARTCHAR .notdef
ENCODING -1
SWIDTH 600 0
DWIDTH 14 0
BBX 9 14 3 0
BITMAP
FFFF40
D00280
C00280
C00280
C00280
C00280
C00280
C00280
C00280
C00280
C00280
C00280
C00280
FFFF80
ENDCHAR
STARTCHAR .null
ENCODING -1
SWIDTH 0 0
DWIDTH 0 0
BBX 1 1 0 0
BITMAP
00
ENDCHAR
STARTCHAR nonmarkingreturn
ENCODING -1
SWIDTH 333 0
DWIDTH 8 0
BBX 1 1 0 0
BITMAP
00
ENDCHAR
STARTCHAR uni0915094D
ENCODING -1
SWIDTH 519 0
DWIDTH 12 0
BBX 17 15 -1 0
BITMAP
7FFFFFFF80
0000340000
0000340000
00BD36F900
03903D0740
0700340140
0600340000
0A00340000
0A00340000
0A00340000
0600340000
0340B40000
01BFB40000
0000340000
0000340000
ENDCHAR
STARTCHAR uni0916094D
ENCODING -1
SWIDTH 468 0
DWIDTH 11 0
BBX 15 15 -1 0
BITMAP
7FFFFFF8
000D0000
000C0000
000C0000
000C0B80
000C2900
00287000
0FE47000
0E006000
07007000
0280381C
00D01BE0
00740000
00280000
00090000
ENDCHAR
STARTCHAR uni0917094D
ENCODING -1
SWIDTH 264 0
DWIDTH 6 0
BBX 8 10 -1 5
BITMAP
7FFE
00D0
0090
0090
0090
0090
0090
00D0
01C0
1F40
ENDCHAR
STARTCHAR uni0918094D
ENCODING -1
SWIDTH 321 0
DWIDTH 8 0
BBX 12 13 -1 2
BITMAP
7FFFFE
038000
070000
070000
070000
034000
01FE00
028000
070000
070000
070000
03400A
01BFF8
ENDCHAR
STARTCHAR uni0919094D
ENCODING -1
SWIDTH 505 0
DWIDTH 12 0
BBX 14 20 -1 -5
BITMAP
7FFFFFD0
00003400
00003400
00003400
01BFF000
03400000
07000340
03400000
01FFE000
00006800
00001C00
01001C00
07001C00
03402800
01FFE000
00000000
00050000
00070000
00018000
00009000
ENDCHAR
STARTCHAR uni091A094D
ENCODING -1
SWIDTH 330 0
DWIDTH 8 0
BBX 12 12 -1 3
BITMAP
7FFFFE
000000
000000
000000
000000
1FFF80
00E000
018000
018000
018000
00D00A
007FF8
ENDCHAR
STARTCHAR uni091B094D
ENCODING -1
SWIDTH 581 0
DWIDTH 14 0
BBX 16 14 -1 1
BITMAP
7FFFFFFD
02800000
03000000
07003E00
07000280
030000C0
028000D0
00FD00D0
029000D0
030000D0
070000D0
030000C0
03800280
01BFFE00
ENDCHAR
STARTCHAR uni091C094D
ENCODING -1
SWIDTH 309 0
DWIDTH 7 0
BBX 11 13 -1 2
BITMAP
7FFFFC
000000
000000
000000
000000
07FFFC
001D00
000A00
000600
000600
000A00
001D00
1FF800
ENDCHAR
STARTCHAR uni091D094D
ENCODING -1
SWIDTH 432 0
DWIDTH 10 0
BBX 14 16 -1 -1
BITMAP
7FFFFFE0
00009000
00009000
01BFD000
03800000
07000000
07000000
03400000
01FFFFE0
0000B000
06003000
07003000
07407000
07BFD000
06000000
06000000
ENDCHAR
STARTCHAR uni091E094D
ENCODING -1
SWIDTH 359 0
DWIDTH 9 0
BBX 12 13 -1 2
BITMAP
7FFFFF
000000
000000
000000
0BE400
001900
000600
000300
0003FF
000300
000700
000A00
0FF800
ENDCHAR
STARTCHAR uni091F094D
ENCODING -1
SWIDTH 485 0
DWIDTH 12 0
BBX 13 20 -1 -5
BITMAP
7FFFFFC0
00003000
00003000
00003000
00BFF000
02900000
07000000
06000000
06000000
06000900
06000900
07000D00
03801C00
00BFE400
00000000
00000000
00070000
00028000
0000D000
00005000
ENDCHAR
STARTCHAR uni0920094D
ENCODING -1
SWIDTH 512 0
DWIDTH 12 0
BBX 14 20 -1 -5
BITMAP
7FFFFFE0
00002400
00002400
00003400
00BFE000
02906800
07000D00
06000900
06000900
06000900
06000900
07000900
03801C00
01BFE400
00000000
00000000
00060000
00028000
0000D000
00005000
ENDCHAR
STARTCHAR uni0921094D
ENCODING -1
SWIDTH 475 0
DWIDTH 11 0
BBX 13 20 -1 -5
BITMAP
7FFFFF80
00003400
00003400
00003400
01BFF000
03800000
03000000
07000000
03400000
01FFE000
00006800
00001C00
07001C00
03402800
01FFE000
00000000
00050000
00034000
0001C000
0000A000
ENDCHAR
STARTCHAR uni0922094D
ENCODING -1
SWIDTH 485 0
DWIDTH 12 0
BBX 13 20 -1 -5
BITMAP
7FFFFFC0
00003400
00003400
00003400
00BFF400
02900000
07000000
06000000
0601F800
06035D00
06060900
07010900
02801D00
00BFF400
00000000
00000000
00070000
00028000
0000D000
00005000
ENDCHAR
STARTCHAR uni0923094D
ENCODING -1
SWIDTH 454 0
DWIDTH 11 0
BBX 13 11 -1 4
BITMAP
7FFFFF40
03007000
03007000
03007000
03007000
03007000
03007000
03007000
03406000
02809000
00BF8000
ENDCHAR
STARTCHAR uni0924094D
ENCODING -1
SWIDTH 263 0
DWIDTH 6 0
BBX 10 15 -1 0
BITMAP
7FFFE0
000000
000000
000000
000000
00BFE0
039000
070000
060000
060000
060000
060000
070000
034000
01F800
ENDCHAR
STARTCHAR uni0925094D
ENCODING -1
SWIDTH 359 0
DWIDTH 9 0
BBX 11 12 1 3
BITMAP
0BE000
282800
341C00
341C00
001800
002800
7FE000
A00000
A00000
600000
380074
0BFFD0
ENDCHAR
STARTCHAR uni0926094D
ENCODING -1
SWIDTH 489 0
DWIDTH 12 0
BBX 13 19 -1 -4
BITMAP
7FFFFFC0
00002800
00002800
00002800
00BFF800
02900000
07000000
06000000
06000000
06000C00
07001C00
03802C00
01BFEC00
00001C00
00000C00
000A0000
00034000
0001C000
00005000
ENDCHAR
STARTCHAR uni0927094D
ENCODING -1
SWIDTH 321 0
DWIDTH 8 0
BBX 12 13 -1 2
BITMAP
7FF87F
038000
070000
070000
070000
034000
01FE00
028000
070000
070000
070000
03400A
01BFF8
ENDCHAR
STARTCHAR uni0928094D
ENCODING -1
SWIDTH 233 0
DWIDTH 6 0
BBX 9 11 -1 4
BITMAP
7FFFC0
000000
000000
000000
000000
000000
06FFC0
0D0000
0C0000
0D0000
040000
ENDCHAR
STARTCHAR uni092A094D
ENCODING -1
SWIDTH 269 0
DWIDTH 6 0
BBX 11 11 -1 4
BITMAP
7FFFF8
034000
030000
030000
030000
030000
030000
030000
034000
028074
00BFD0
ENDCHAR
STARTCHAR uni092B094D
ENCODING -1
SWIDTH 530 0
DWIDTH 13 0
BBX 17 15 -1 0
BITMAP
7FFFFFFFC0
0340280000
0300280000
03002AFE00
03002E4680
0300280040
0300280000
0340280000
0280780000
00BFA80000
0000280000
0000280000
0000280000
0000280000
0000280000
ENDCHAR
STARTCHAR uni092C094D
ENCODING -1
SWIDTH 265 0
DWIDTH 6 0
BBX 11 13 -1 2
BITMAP
7FFFF4
000000
000000
00BE00
029000
07C000
066000
061800
060604
060194
060074
034070
01BF90
ENDCHAR
STARTCHAR uni092D094D
ENCODING -1
SWIDTH 261 0
DWIDTH 6 0
BBX 10 11 -1 4
BITMAP
7803E0
0A0000
030000
030000
030000
030000
030000
03FFE0
034000
030000
030000
ENDCHAR
STARTCHAR uni092E094D
ENCODING -1
SWIDTH 261 0
DWIDTH 6 0
BBX 10 11 -1 4
BITMAP
7FFFE0
030000
030000
030000
030000
030000
030000
03FFE0
034000
030000
030000
ENDCHAR
STARTCHAR uni092F094D
ENCODING -1
SWIDTH 323 0
DWIDTH 8 0
BBX 12 12 -1 3
BITMAP
7FFFFC
001800
000D00
000D00
001C00
07F400
060000
060000
060000
070001
02801A
00BFF4
ENDCHAR
STARTCHAR uni0930094D
ENCODING -1
SWIDTH 337 0
DWIDTH 8 0
BBX 10 20 -1 -5
BITMAP
7FFFD0
000D00
000C00
000C00
000C00
000C00
002800
0FE400
0E0000
070000
028000
00D000
007000
002800
000D00
000000
009000
003400
001800
000900
ENDCHAR
STARTCHAR uni0932094D
ENCODING -1
SWIDTH 431 0
DWIDTH 10 0
BBX 15 14 -1 1
BITMAP
7FFFFFF4
00000000
00000000
00000000
00BE1B90
0296B464
0300E000
07009000
07009000
07009000
07000000
07000000
03800000
01BE0000
ENDCHAR
STARTCHAR uni0933094D
ENCODING -1
SWIDTH 677 0
DWIDTH 16 0
BBX 18 14 -1 1
BITMAP
7FFFFFFFE0
0000000000
0000000000
0000000000
00BE4BE000
0291F86800
0700A00D00
0600A00900
0600A00900
0600A00900
0600A00900
0700A00D00
0341F41C00
01BF5FE400
ENDCHAR
STARTCHAR uni0935094D
ENCODING -1
SWIDTH 255 0
DWIDTH 6 0
BBX 11 13 -1 2
BITMAP
7FFFF4
000000
000000
00BE00
029000
070000
060000
060000
060004
060014
060024
034070
01BF90
ENDCHAR
STARTCHAR uni0936094D
ENCODING -1
SWIDTH 378 0
DWIDTH 9 0
BBX 7 15 1 0
BITMAP
1BE0
3428
300C
700C
100C
001C
0028
FFE0
A000
3400
1C00
0A00
0340
01C0
00A0
ENDCHAR
STARTCHAR uni0937094D
ENCODING -1
SWIDTH 282 0
DWIDTH 7 0
BBX 11 11 -1 4
BITMAP
7FFFFC
038000
03D000
037400
031C00
030600
030180
0300A0
034028
028074
00BFD0
ENDCHAR
STARTCHAR uni0938094D
ENCODING -1
SWIDTH 338 0
DWIDTH 8 0
BBX 12 15 -1 0
BITMAP
7FFFFF
002800
002800
002800
002800
002800
007400
0FFFFE
0E0000
070000
028000
00D000
00A000
003400
001C00
ENDCHAR
STARTCHAR uni0939094D
ENCODING -1
SWIDTH 457 0
DWIDTH 11 0
BBX 15 16 -1 -1
BITMAP
7FFFFF80
00002400
00002400
00002400
01BFF400
03800000
03000000
03400000
00FFFFF4
02900000
03000000
07000000
07000000
03000000
02800000
00BFF400
ENDCHAR
STARTCHAR uni0915093C094D
ENCODING -1
SWIDTH 519 0
DWIDTH 12 0
BBX 17 16 -1 -1
BITMAP
7FFFFFFF80
0000340000
0000340000
00BD36F900
03903D0740
0700340140
0600340000
0A00340000
0A00340000
0A00340000
0600340000
0340B40000
01BFB40000
0000340000
0000340000
01C0100000
ENDCHAR
STARTCHAR uni0916093C094D
ENCODING -1
SWIDTH 463 0
DWIDTH 11 0
BBX 15 16 -1 -1
BITMAP
7FFFFFF8
000D0000
000C0000
000C0000
000C0B80
000C2900
00287000
0FE47000
0E006000
07007000
0280381C
00D01BE0
00700000
00280000
000D0000
06000000
ENDCHAR
STARTCHAR uni0917093C094D
ENCODING -1
SWIDTH 264 0
DWIDTH 6 0
BBX 8 15 -1 0
BITMAP
7FFE
00D0
0090
0090
0090
0090
0090
00D0
01C0
1F40
0000
0000
0000
0000
0280
ENDCHAR
STARTCHAR uni091C093C094D
ENCODING -1
SWIDTH 314 0
DWIDTH 8 0
BBX 11 17 -1 -2
BITMAP
7FFFFC
000000
000000
000000
000000
07FFFC
001D00
000A00
000600
000600
000A00
001D00
1FF800
000000
000000
000000
024000
ENDCHAR
STARTCHAR uni0928093C094D
ENCODING -1
SWIDTH 241 0
DWIDTH 6 0
BBX 9 15 0 0
BITMAP
FFFF40
000000
000000
000000
000000
000000
1BFF00
280000
340000
240000
000000
000000
000000
000000
034000
ENDCHAR
STARTCHAR uni092B093C094D
ENCODING -1
SWIDTH 530 0
DWIDTH 13 0
BBX 17 16 -1 -1
BITMAP
7FFFFFFFC0
0340280000
0300280000
03002AFE00
03002E4680
0300280040
0300280000
0340280000
0280780000
00BFA80000
0000280000
0000280000
0000280000
0000280000
0000280000
00A0140000
ENDCHAR
STARTCHAR uni092F093C094D
ENCODING -1
SWIDTH 325 0
DWIDTH 8 0
BBX 12 16 -1 -1
BITMAP
7FFFFC
001800
000D00
000D00
001C00
07F400
060000
060000
060000
070001
02801A
00BFF4
000000
000000
000000
006000
ENDCHAR
STARTCHAR uni09080902
ENCODING -1
SWIDTH 478 0
DWIDTH 11 0
BBX 13 22 -1 -1
BITMAP
0000BF00
00029000
00034000
00034C00
00034000
00024000
7FFFFF80
00003400
00003400
00003400
01BFF400
03400000
07000000
03400000
01FFE000
00006800
00001C00
06001C00
07001C00
07402800
07BFE000
06000000
ENDCHAR
STARTCHAR uni09300941
ENCODING -1
SWIDTH 533 0
DWIDTH 13 0
BBX 14 15 -1 0
BITMAP
7FFFFFF0
000D0000
000C0000
000C0000
000FF900
000D0700
002C0340
0FF40340
0E000340
07000700
02802D00
00D0A000
00700000
00280000
000D0000
ENDCHAR
STARTCHAR uni09300942
ENCODING -1
SWIDTH 645 0
DWIDTH 15 0
BBX 17 15 -1 0
BITMAP
7FFFFFFF80
000D000000
000C000000
000C000000
000C1BE000
000C386800
0028301C00
0FE4300C00
0E00001C00
0700002800
028001A000
00D00B4000
0070040000
0028000000
000D000000
ENDCHAR
STARTCHAR uni09390941
ENCODING -1
SWIDTH 495 0
DWIDTH 12 0
BBX 14 21 -1 -6
BITMAP
7FFFFFD0
00002400
00002400
00BFF400
02900000
03000000
03000000
02800000
00FF9000
02907400
03001800
07001800
07000400
03000000
02800000
00BFE400
00001C00
05000900
07400900
01D01C00
006FE400
ENDCHAR
STARTCHAR uni09390942
ENCODING -1
SWIDTH 492 0
DWIDTH 12 0
BBX 13 21 -1 -6
BITMAP
7FFFFFC0
00002400
00002400
00002400
00BFF400
02900000
03000000
03000000
02800000
00FFA000
02907400
03001800
07001800
03000000
02800000
00FF8000
01917400
02401800
02400D00
02800600
00BD0100
ENDCHAR
STARTCHAR uni09260943
ENCODING -1
SWIDTH 390 0
DWIDTH 9 0
BBX 11 14 -1 1
BITMAP
7FFFF8
000280
000240
00BF40
028000
030000
030000
034000
01FE00
028000
030000
030000
034000
01FFC0
ENDCHAR
STARTCHAR uni09390943
ENCODING -1
SWIDTH 519 0
DWIDTH 12 0
BBX 14 18 -1 -3
BITMAP
7FFFFFE0
00002400
00002400
00002400
01BFF400
03400000
07000000
03400000
01FFF900
02974700
07060240
060A0100
060A0000
06070000
0602FE00
07000000
03800000
01BFF400
ENDCHAR
STARTCHAR uni094D0930
ENCODING -1
SWIDTH 0 0
DWIDTH 0 0
BBX 8 5 -10 -4
BITMAP
0140
07D0
0D70
2828
6009
ENDCHAR
STARTCHAR uni0930094D.1
ENCODING -1
SWIDTH 192 0
DWIDTH 5 0
BBX 9 7 -2 8
BITMAP
1FFC00
000000
000000
000000
000040
A001C0
2FFE00
ENDCHAR
STARTCHAR uni0930094D.2
ENCODING -1
SWIDTH 0 0
DWIDTH 0 0
BBX 5 7 -4 14
BITMAP
1B40
3400
7000
6000
6000
7000
6000
ENDCHAR
STARTCHAR uni0930094D0902
ENCODING -1
SWIDTH 0 0
DWIDTH 0 0
BBX 5 7 -4 14
BITMAP
1B40
3400
7000
6240
6000
6000
6000
ENDCHAR
STARTCHAR uni093E0930094D
ENCODING -1
SWIDTH 231 0
DWIDTH 6 0
BBX 7 21 -1 0
BITMAP
00BC
0190
0240
0240
0240
0240
7FFC
0240
0240
0240
0240
0240
0240
0240
0240
0240
0240
0240
0240
0240
0240
ENDCHAR
STARTCHAR uni093E0930094D0902
ENCODING -1
SWIDTH 231 0
DWIDTH 6 0
BBX 7 21 -1 0
BITMAP
00BC
0290
0240
024C
0240
0240
7FFC
0240
0240
0240
0240
0240
0240
0240
0240
0240
0240
0240
0240
0240
0240
ENDCHAR
STARTCHAR uni0930094D.aMatraI
ENCODING -1
SWIDTH 0 0
DWIDTH 0 0
BBX 4 5 -1 15
BITMAP
2E
A0
C0
C0
C0
ENDCHAR
STARTCHAR uni0902.aMatraI
ENCODING -1
SWIDTH 0 0
DWIDTH 0 0
BBX 2 1 1 18
BITMAP
D0
ENDCHAR
STARTCHAR uni0930094D0902.aMatraI
ENCODING -1
SWIDTH 0 0
DWIDTH 0 0
BBX 4 5 -1 15
BITMAP
2E
A0
C0
C9
C0
ENDCHAR
STARTCHAR uni09400930094D
ENCODING -1
SWIDTH 231 0
DWIDTH 6 0
BBX 10 21 -4 0
BITMAP
1BE5F0
341E40
700D00
600900
100900
000900
01FFF0
000900
000900
000900
000900
000900
000900
000900
000900
000900
000900
000900
000900
000900
000900
ENDCHAR
STARTCHAR uni09400902
ENCODING -1
SWIDTH 231 0
DWIDTH 6 0
BBX 10 21 -4 0
BITMAP
1BE400
341C00
600D70
600900
000900
000900
01FFF0
000900
000900
000900
000900
000900
000900
000900
000900
000900
000900
000900
000900
000900
000900
ENDCHAR
STARTCHAR uni09400930094D0902
ENCODING -1
SWIDTH 231 0
DWIDTH 6 0
BBX 10 21 -4 0
BITMAP
1BE5F0
341E40
700D00
600930
100900
000900
01FFF0
000900
000900
000900
000900
000900
000900
000900
000900
000900
000900
000900
000900
000900
000900
ENDCHAR
STARTCHAR uni0940.aLong
ENCODING -1
SWIDTH 231 0
DWIDTH 6 0
BBX 16 21 -10 0
BITMAP
0BFFFE40
380001C0
700000D0
70000090
10000090
00000090
00001FFF
00000090
00000090
00000090
00000090
00000090
00000090
00000090
00000090
00000090
00000090
00000090
00000090
00000090
00000090
ENDCHAR
STARTCHAR uni09400930094D.aLong
ENCODING -1
SWIDTH 231 0
DWIDTH 6 0
BBX 16 21 -10 0
BITMAP
0BFFFE6F
380001E4
700000D0
70000090
10000090
00000090
00001FFF
00000090
00000090
00000090
00000090
00000090
00000090
00000090
00000090
00000090
00000090
00000090
00000090
00000090
00000090
ENDCHAR
STARTCHAR uni09400902.aLong
ENCODING -1
SWIDTH 231 0
DWIDTH 6 0
BBX 17 21 -10 0
BITMAP
1BFFFE4000
340001C000
700000D340
7000009000
0000009000
0000009000
00001FFF00
0000009000
0000009000
0000009000
0000009000
0000009000
0000009000
0000009000
0000009000
0000009000
0000009000
0000009000
0000009000
0000009000
0000009000
ENDCHAR
STARTCHAR uni09400930094D0902.aLong
ENCODING -1
SWIDTH 231 0
DWIDTH 6 0
BBX 16 21 -10 0
BITMAP
1BFFFE6F
380001E4
700000D0
70000093
10000090
00000090
00001FFF
00000090
00000090
00000090
00000090
00000090
00000090
00000090
00000090
00000090
00000090
00000090
00000090
00000090
00000090
ENDCHAR
STARTCHAR uni09470930094D
ENCODING -1
SWIDTH 0 0
DWIDTH 0 0
BBX 9 7 -8 14
BITMAP
741B40
283400
0D7000
076000
01E000
00A000
001000
ENDCHAR
STARTCHAR uni09470902
ENCODING -1
SWIDTH 0 0
DWIDTH 0 0
BBX 8 7 -8 14
BITMAP
7000
2800
0D00
0706
0280
00D0
0074
ENDCHAR
STARTCHAR uni09470901
ENCODING -1
SWIDTH 0 0
DWIDTH 0 0
BBX 13 7 -8 14
BITMAP
70009000
28200180
0D240180
07280340
028BFE00
00D00000
00740000
ENDCHAR
STARTCHAR uni09470930094D0902
ENCODING -1
SWIDTH 0 0
DWIDTH 0 0
BBX 9 7 -8 14
BITMAP
741B40
2C3400
0E7000
076240
01E000
00A000
001000
ENDCHAR
STARTCHAR uni09480930094D
ENCODING -1
SWIDTH 0 0
DWIDTH 0 0
BBX 9 6 -8 15
BITMAP
A1CB80
34D800
1CE000
06A000
02A000
00B000
ENDCHAR
STARTCHAR uni09480902
ENCODING -1
SWIDTH 0 0
DWIDTH 0 0
BBX 9 6 -8 15
BITMAP
706000
286000
0D6280
076000
01A000
007000
ENDCHAR
STARTCHAR uni09480901
ENCODING -1
SWIDTH 0 0
DWIDTH 0 0
BBX 15 6 -8 15
BITMAP
70600900
28630014
0D624024
0761FFE0
01A00000
00700000
ENDCHAR
STARTCHAR uni09480930094D0902
ENCODING -1
SWIDTH 0 0
DWIDTH 0 0
BBX 9 6 -8 15
BITMAP
A1CB80
34D800
1CE240
06A000
02A000
00B000
ENDCHAR
STARTCHAR uni094B0930094D
ENCODING -1
SWIDTH 231 0
DWIDTH 6 0
BBX 8 21 -2 0
BITMAP
A02F
3464
1C90
0A90
02D0
00D0
1FFF
0090
0090
0090
0090
0090
0090
0090
0090
0090
0090
0090
0090
0090
0090
ENDCHAR
STARTCHAR uni094B0902
ENCODING -1
SWIDTH 231 0
DWIDTH 6 0
BBX 8 21 -2 0
BITMAP
A000
3400
1C1C
0A00
0340
01C0
1FFF
0090
0090
0090
0090
0090
0090
0090
0090
0090
0090
0090
0090
0090
0090
ENDCHAR
STARTCHAR uni094B0930094D0902
ENCODING -1
SWIDTH 231 0
DWIDTH 6 0
BBX 8 21 -2 0
BITMAP
A02F
3464
1C90
0A93
02D0
00D0
1FFF
0090
0090
0090
0090
0090
0090
0090
0090
0090
0090
0090
0090
0090
0090
ENDCHAR
STARTCHAR uni094C0930094D
ENCODING -1
SWIDTH 231 0
DWIDTH 6 0
BBX 8 21 -2 0
BITMAP
C29B
A2A4
25A0
0DD0
06D0
02D0
1FFF
0090
0090
0090
0090
0090
0090
0090
0090
0090
0090
0090
0090
0090
0090
ENDCHAR
STARTCHAR uni094C0902
ENCODING -1
SWIDTH 231 0
DWIDTH 6 0
BBX 8 21 -2 0
BITMAP
9090
7090
2897
0990
0390
01D0
1FFF
0090
0090
0090
0090
0090
0090
0090
0090
0090
0090
0090
0090
0090
0090
ENDCHAR
STARTCHAR uni094C0930094D0902
ENCODING -1
SWIDTH 231 0
DWIDTH 6 0
BBX 8 21 -2 0
BITMAP
C29B
A2A4
25A0
0DD3
06D0
02D0
1FFF
0090
0090
0090
0090
0090
0090
0090
0090
0090
0090
0090
0090
0090
0090
ENDCHAR
STARTCHAR uni0915094D0937
ENCODING -1
SWIDTH 656 0
DWIDTH 16 0
BBX 15 15 1 0
BITMAP
02F802FC
0A070280
0C034240
1C024240
0C034240
0A070240
1BFFFF40
74000240
60000240
60034240
60034240
74074240
1FFB4240
00034240
00034140
ENDCHAR
STARTCHAR uni0915094D0937094D
ENCODING -1
SWIDTH 429 0
DWIDTH 10 0
BBX 12 15 1 0
BITMAP
02F800
0A0700
0C0340
1C0240
0C0340
0A0700
1BFFFF
740000
600000
600340
600340
740740
1FFB40
000340
000340
ENDCHAR
STARTCHAR uni0915094D0937094D092E
ENCODING -1
SWIDTH 933 0
DWIDTH 22 0
BBX 22 15 1 0
BITMAP
02F80FFFFFE0
0A0702800D00
0C0341800D00
1C0241800D00
0C0341800D00
0A0701800D00
1BFFFF800D00
740002FFFD00
600001800D00
600341800D00
600341400D00
740740000D00
1FFB40000D00
000340000D00
000340000800
ENDCHAR
STARTCHAR uni0915094D0937094D092E094D
ENCODING -1
SWIDTH 717 0
DWIDTH 17 0
BBX 19 15 1 0
BITMAP
02F80FFFFC
0A07028000
0C03418000
1C02418000
0C03418000
0A07018000
1BFFFF8000
740002FFF8
6000018000
6003418000
6003414000
7407400000
1FFB400000
0003400000
0003400000
ENDCHAR
STARTCHAR uni0915094D0937094D092E094D092F
ENCODING -1
SWIDTH 1283 0
DWIDTH 31 0
BBX 30 15 1 0
BITMAP
02F80FFFFFFFFFF0
0A07028000740A00
0C03418000280A00
1C02418000280A00
0C03418000280A00
0A07018000740A00
1BFFFF800FD00A00
740002FFFC000A00
600001801C000A00
600341800D000A00
600341400A002E00
7407400002FFEA00
1FFB400000000A00
0003400000000A00
0003400000000500
ENDCHAR
STARTCHAR uni0915094D0937094D092F
ENCODING -1
SWIDTH 989 0
DWIDTH 24 0
BBX 23 15 1 0
BITMAP
02F80BFFFFFC
0A07001C0280
0C0340090280
1C02400A0280
0C0340090280
0A07001D0280
1BFFFFF40280
340007000280
600007000280
600343000380
600342800B80
740740BFFA80
1FFB40000280
000340000280
000340000140
ENDCHAR
STARTCHAR uni0915094D0937094D0935
ENCODING -1
SWIDTH 936 0
DWIDTH 22 0
BBX 22 15 1 0
BITMAP
02F80BFFFFE0
0A0700000D00
0C0340000D00
1C02402F4D00
0C0340A40D00
0A0701800D00
1BFFFF800D00
740002800D00
600002800D00
600342800D00
600341800D00
740741D02D00
1FFB407FED00
000340000D00
000340000800
ENDCHAR
STARTCHAR uni091C094D091E
ENCODING -1
SWIDTH 629 0
DWIDTH 15 0
BBX 17 16 -1 -1
BITMAP
7FFFFFFF40
0000007000
0000006000
0000006000
01BFFFE000
0340006000
0700006000
0340006000
01FF906000
0000746000
0700186000
0700186000
0740246000
07BFE06000
0700006000
0700000000
ENDCHAR
STARTCHAR uni091C094D091E094D
ENCODING -1
SWIDTH 398 0
DWIDTH 10 0
BBX 13 16 -1 -1
BITMAP
7FFFFFC0
00000000
00000000
00000000
01BFFFC0
03400000
07000000
03400000
01FF9000
00007400
07001800
07001800
07402400
07BFE000
07000000
07000000
ENDCHAR
STARTCHAR uni091C094D091E094D092F
ENCODING -1
SWIDTH 975 0
DWIDTH 23 0
BBX 25 16 -1 -1
BITMAP
7FFFFFFFFFFF80
00000002803400
00000000C03400
00000000D03400
01BFFF80C03400
034001D1C03400
070000BF403400
034000A0003400
01FF90A0003400
00007460007400
0700183401B400
0700181BFF7400
07402400003400
07BFE000003400
07000000002000
07000000000000
ENDCHAR
STARTCHAR uni0915094D0928
ENCODING -1
SWIDTH 1003 0
DWIDTH 24 0
BBX 26 15 -1 0
BITMAP
7FFFFFFFFFFFD0
00003400001C00
00003400001C00
00BD36F9001C00
03903D07001C00
07003402801C00
06003401FFFC00
0A003403401C00
0A003407001C00
0A003403001C00
06003401001C00
0340B400001C00
01BFB400001C00
00003400001C00
00003400001C00
ENDCHAR
STARTCHAR uni0916094D0928
ENCODING -1
SWIDTH 958 0
DWIDTH 23 0
BBX 25 15 -1 0
BITMAP
7FFFFFFFFFFF40
000D0000006000
000C0000006000
000C0000006000
000C0BE4006000
000C291C006000
0028700BFFE000
0FE4700D006000
0E00701C006000
0700341C006000
02801BFC006000
00D00009006000
00740000006000
00280000006000
00090000006000
ENDCHAR
STARTCHAR uni0917094D0928
ENCODING -1
SWIDTH 736 0
DWIDTH 18 0
BBX 19 15 -1 0
BITMAP
7FFFFFFFFC
00D0000280
0090000240
0090000240
0090000240
0090000240
00902FFF40
00D0740240
01C0A00240
1F40600240
0000200240
0000000240
0000000240
0000000240
0000000240
ENDCHAR
STARTCHAR uni0918094D0928
ENCODING -1
SWIDTH 814 0
DWIDTH 20 0
BBX 21 15 -1 0
BITMAP
7FFFFFFFFFC0
034000003400
070000002400
070000002400
034000002400
01FE00003400
028002FFF400
07000A403400
070009002400
03401E002400
01BFFB002400
000000002400
000000002400
000000002400
000000002400
ENDCHAR
STARTCHAR uni091A094D0928
ENCODING -1
SWIDTH 829 0
DWIDTH 20 0
BBX 22 15 -1 0
BITMAP
7FFFFFFFFFD0
000000001800
000000001800
000000001800
1FFF80001800
00A400001800
01C001FFF800
018003402800
018006001800
01C006001800
00E00B001800
006FF7401800
000000001800
000000001800
000000001800
ENDCHAR
STARTCHAR uni091B094D0928
ENCODING -1
SWIDTH 977 0
DWIDTH 23 0
BBX 25 15 -1 0
BITMAP
7FFFFFFFFFFF80
02800000003400
03000000003400
07003E00003400
07000280003400
030000C0003400
028000D2FFF400
00FD00DA003400
039000D9003400
030000D9003400
070000D5003400
030000C0003400
03800280003400
01BFFE00003400
00000000003400
ENDCHAR
STARTCHAR uni091C094D0928
ENCODING -1
SWIDTH 831 0
DWIDTH 20 0
BBX 22 15 -1 0
BITMAP
7FFFFFFFFFD0
000000001800
000000001800
000000001800
000000001800
000000001800
07FFFFFFF800
001D07402800
000A07001800
000607001800
000601001800
000A00001800
001D00001800
1FF800001800
000000001800
ENDCHAR
STARTCHAR uni091D094D0928
ENCODING -1
SWIDTH 935 0
DWIDTH 22 0
BBX 24 16 -1 -1
BITMAP
7FFFFFFFFFFE
0000900000D0
0000900000D0
01BFD00000D0
0380000000D0
0700000000D0
0700000BFFD0
0340002800D0
01FFFFF400D0
0000B02400D0
0600301400D0
0700300000D0
0740700000D0
07BFD00000D0
0600000000D0
060000000000
ENDCHAR
STARTCHAR uni091F094D0928
ENCODING -1
SWIDTH 494 0
DWIDTH 12 0
BBX 13 21 -1 -6
BITMAP
7FFFFFC0
00003400
00003400
00003400
00003400
00BFF400
02900000
07000000
06000500
06000A00
07000A00
03801D00
01BFF400
00002400
00002400
01FFF400
03403400
07002400
07002400
02002400
00002400
ENDCHAR
STARTCHAR uni0920094D0928
ENCODING -1
SWIDTH 516 0
DWIDTH 12 0
BBX 14 21 -1 -6
BITMAP
7FFFFFE0
00002800
00002400
00003400
00BFE000
02906C00
07000900
06000A00
06000A00
06000A00
07000900
03801C00
00BFF400
00002400
00002400
01FFF400
03403400
07002400
07002400
02002400
00002400
ENDCHAR
STARTCHAR uni0921094D0928
ENCODING -1
SWIDTH 481 0
DWIDTH 12 0
BBX 13 21 -1 -6
BITMAP
7FFFFFC0
00002400
00002400
00002400
01BFF400
03400000
07000000
03400000
01FFE400
00002C00
06000C00
03001C00
01FFF400
00002400
00002400
01BFF400
03403400
07002400
03002400
02002400
00002400
ENDCHAR
STARTCHAR uni0924094D0928
ENCODING -1
SWIDTH 756 0
DWIDTH 18 0
BBX 20 15 -1 0
BITMAP
7FFFFFFFFD
00000001C0
00000001C0
00000001C0
00000001C0
00BFE001C0
03802FFFC0
07003401C0
06003001C0
06003401C0
06001001C0
06000001C0
07000001C0
03400001C0
01F80001C0
ENDCHAR
STARTCHAR uni0925094D0928
ENCODING -1
SWIDTH 855 0
DWIDTH 21 0
BBX 20 15 1 0
BITMAP
0BE0BFFFFE
28280000D0
341C0000D0
341C0000D0
00180000D0
00280000D0
7FE00BFFD0
A0002900D0
60002400D0
60002400D0
38007800D0
0BFF9800D0
00000000D0
00000000D0
0000000090
ENDCHAR
STARTCHAR uni0926094D0928
ENCODING -1
SWIDTH 955 0
DWIDTH 23 0
BBX 25 20 -1 -5
BITMAP
7FFFFFFFFFFF40
00002800006000
00002800006000
00002800006000
00BFF800006000
02900000006000
07000007FFE000
0600001D00A000
06000018006000
06000C1C006000
07001C04006000
03802C00006000
01BFEC00006000
00001C00006000
00000C00006000
00000000000000
00000800000000
00000A00000000
00000340000000
000001C0000000
ENDCHAR
STARTCHAR uni0927094D0928
ENCODING -1
SWIDTH 814 0
DWIDTH 20 0
BBX 21 15 -1 0
BITMAP
7FFC1FFFFFC0
034000003400
070000002400
070000002400
034000002400
01FE00003400
029002FFF400
030006403400
070009002400
030009002400
02801E002400
00BFE6002400
000000002400
000000002400
000000002400
ENDCHAR
STARTCHAR uni0928094D0928
ENCODING -1
SWIDTH 738 0
DWIDTH 18 0
BBX 19 15 -1 0
BITMAP
7FFFFFFFFC
0000000280
0000000280
0000000280
0000000280
0000000280
02FFFFFF80
0A00740280
0D00A00280
0900600280
0400100280
0000000280
0000000280
0000000280
0000000240
ENDCHAR
STARTCHAR uni092A094D0928
ENCODING -1
SWIDTH 782 0
DWIDTH 19 0
BBX 20 15 -1 0
BITMAP
7FFFFFFFFF
03400000A0
03000000A0
03000000A0
03000000A0
03000000A0
03000BFFE0
03401D00A0
02807800A0
00BFEC00A0
00000400A0
00000000A0
00000000A0
00000000A0
00000000A0
ENDCHAR
STARTCHAR uni092B094D0928
ENCODING -1
SWIDTH 1013 0
DWIDTH 24 0
BBX 26 15 -1 0
BITMAP
7FFFFFFFFFFFE0
03402800000D00
03002800000C00
03002AF9000C00
03002E47400C00
03002802800C00
03002801FFFC00
03402802800C00
02807803400C00
00BFA802400C00
00002800000C00
00002800000C00
00002800000C00
00002800000C00
00002800000C00
ENDCHAR
STARTCHAR uni092C094D0928
ENCODING -1
SWIDTH 810 0
DWIDTH 19 0
BBX 21 15 -1 0
BITMAP
7FFFFFFFFF80
000000003400
000000003400
00BE00003400
029000003400
07C000003400
067002FFF400
06180A003400
060609003400
060289003400
0600A5003400
034070003400
01BFD0003400
000000003400
000000003400
ENDCHAR
STARTCHAR uni092D094D0928
ENCODING -1
SWIDTH 757 0
DWIDTH 18 0
BBX 20 15 -1 0
BITMAP
7803FFFFFD
0A000001C0
03000001C0
03000001C0
03000001C0
03000001C0
03001BFFC0
03FFF401C0
03407001C0
03003401C0
03001001C0
00000001C0
00000001C0
00000001C0
00000001C0
ENDCHAR
STARTCHAR uni092E094D0928
ENCODING -1
SWIDTH 757 0
DWIDTH 18 0
BBX 20 15 -1 0
BITMAP
7FFFFFFFFD
03000001C0
03000001C0
03000001C0
03000001C0
03000001C0
03001BFFC0
03FFF401C0
03407001C0
03003401C0
03001001C0
00000001C0
00000001C0
00000001C0
00000001C0
ENDCHAR
STARTCHAR uni092F094D0928
ENCODING -1
SWIDTH 829 0
DWIDTH 20 0
BBX 22 15 -1 0
BITMAP
7FFFFFFFFFD0
001800002800
000D00001800
000D00001800
001C00001800
07F400001800
060001FFF800
060007402800
070006001800
02801F001800
00BFF6401800
000000001800
000000001800
000000001800
000000001800
ENDCHAR
STARTCHAR uni0935094D0928
ENCODING -1
SWIDTH 798 0
DWIDTH 19 0
BBX 21 15 -1 0
BITMAP
7FFFFFFFFF40
000000007000
000000007000
00BE00007000
029000007000
070000007000
060006FFF000
06000D007000
06000C007000
06000D007000
060014007000
034070007000
01BF90007000
000000007000
000000007000
ENDCHAR
STARTCHAR uni0936094D0928
ENCODING -1
SWIDTH 845 0
DWIDTH 20 0
BBX 20 15 1 0
BITMAP
1BE03FFFFE
38280000C0
300C0000C0
700C0000C0
200C0000C0
001C0000C0
00281BFFC0
FFE03800C0
A0003400C0
34002400C0
1C000000C0
0A000000C0
03400000C0
01C00000C0
00A00000C0
ENDCHAR
STARTCHAR uni0938094D0928
ENCODING -1
SWIDTH 831 0
DWIDTH 20 0
BBX 22 15 -1 0
BITMAP
7FFFFFFFFFD0
002800001800
002800001800
002800001800
002800001800
002800001800
007402FFF800
0FFFFF401800
0E0007001800
070003001800
028000001800
00D000001800
00A000001800
003400001800
001C00001800
ENDCHAR
STARTCHAR uni0939094D0928
ENCODING -1
SWIDTH 500 0
DWIDTH 12 0
BBX 14 17 -1 -2
BITMAP
7FFFFFD0
00001C00
00001C00
00001C00
01BFFC00
03800000
03000000
03400000
00FFFE00
02902E00
0300E600
07034600
07070600
07030600
03014000
02800000
00BFF400
ENDCHAR
STARTCHAR uni0915094D0930
ENCODING -1
SWIDTH 725 0
DWIDTH 17 0
BBX 19 16 -1 -1
BITMAP
7FFFFFFFF8
0000340000
0000340000
00BD36F900
03903D0740
0700340180
06003401C0
0A003401C0
0A003401C0
0A003401C0
0600340180
0340B40740
01FFB4FD00
000A340000
0028340000
0090000000
ENDCHAR
STARTCHAR uni0916094D0930
ENCODING -1
SWIDTH 698 0
DWIDTH 17 0
BBX 18 16 -1 -1
BITMAP
7FFFFFFFF0
000D000A00
000C000A00
000C000A00
000C0B8A00
000C290A00
0028700A00
0FE4700A00
0E00700A00
0700341E00
02801FFA00
00D0009A00
0074028A00
0028070A00
00090D0A00
0000240000
ENDCHAR
STARTCHAR uni0917094D0930
ENCODING -1
SWIDTH 494 0
DWIDTH 12 0
BBX 13 15 -1 0
BITMAP
7FFFFFC0
00D02800
00902800
00902800
00902800
00902800
00902800
00D02800
01C03800
1F40B800
0002A800
000A2800
00282800
00602800
01801800
ENDCHAR
STARTCHAR uni0918094D0930
ENCODING -1
SWIDTH 559 0
DWIDTH 13 0
BBX 15 16 -1 -1
BITMAP
7FFFFFF8
03800340
07000340
07000340
07000340
03400340
01FE0340
02800340
07000340
07000340
07000340
03800B40
01BFF740
0001D340
000A0340
00740000
ENDCHAR
STARTCHAR uni0919094D0930
ENCODING -1
SWIDTH 505 0
DWIDTH 12 0
BBX 14 19 -1 -4
BITMAP
7FFFFFD0
00003400
00003400
00003400
01BFF000
03400000
07000340
03400000
01FFE000
00006800
00001C00
00001C00
06001C00
03002800
01FFE000
002B4000
0071C000
00D0A000
02803400
ENDCHAR
STARTCHAR uni091A094D0930
ENCODING -1
SWIDTH 563 0
DWIDTH 14 0
BBX 15 16 -1 -1
BITMAP
7FFFFFFC
00000340
00000340
00000340
00000340
1FFF8340
00E00340
01800340
01800340
01800340
00D00B40
007FFB40
0001E340
00074340
001D0240
00240000
ENDCHAR
STARTCHAR uni091B094D0930
ENCODING -1
SWIDTH 581 0
DWIDTH 14 0
BBX 16 18 -1 -3
BITMAP
7FFFFFFD
02800280
03000280
07000280
07003F40
03000680
028000C0
00FD00D0
029000D0
030000D0
070000D0
030000C0
03800280
01BFFE00
000AA000
001C3400
00341D00
00500500
ENDCHAR
STARTCHAR uni091C094D0930
ENCODING -1
SWIDTH 547 0
DWIDTH 13 0
BBX 15 16 -1 -1
BITMAP
7FFFFFF4
00000700
00000700
00000700
00000700
07FFFF00
001D0700
000A0700
00060700
00060700
000A0700
001D1F00
1FF47B00
0001D700
00074600
00080000
ENDCHAR
STARTCHAR uni091D094D0930
ENCODING -1
SWIDTH 684 0
DWIDTH 16 0
BBX 18 16 -1 -1
BITMAP
7FFFFFFFE0
0000900D00
0000900D00
01BFD00D00
0380000D00
0700000D00
0700000D00
0340000D00
01FFFFFD00
0000B00D00
0600301D00
0700303D00
074070ED00
07BFD28D00
06000A0D00
0600280400
ENDCHAR
STARTCHAR uni091E094D0930
ENCODING -1
SWIDTH 598 0
DWIDTH 14 0
BBX 16 16 -1 -1
BITMAP
7FFFFFFE
000000D0
000000D0
000000D0
0BE400D0
001900D0
000600D0
000300D0
0003FFD0
000300D0
000701D0
000A07D0
0FF81CD0
0000B0D0
0002C0C0
00010000
ENDCHAR
STARTCHAR uni091F094D0930
ENCODING -1
SWIDTH 485 0
DWIDTH 12 0
BBX 13 17 -1 -2
BITMAP
7FFFFFC0
00003000
00003000
00003000
00BFF000
02900000
07000000
06000000
06000000
06000900
06000900
07000D00
03802C00
00BFE000
001EC000
0070A000
01D02800
ENDCHAR
STARTCHAR uni0920094D0930
ENCODING -1
SWIDTH 512 0
DWIDTH 12 0
BBX 14 18 -1 -3
BITMAP
7FFFFFE0
00002400
00002400
00003400
00BFE000
02906800
07000D00
06000900
06000900
06000900
06000900
07000900
03801C00
01BFE400
001E8000
0074A000
00D03400
01401400
ENDCHAR
STARTCHAR uni0921094D0930
ENCODING -1
SWIDTH 475 0
DWIDTH 11 0
BBX 13 19 -1 -4
BITMAP
7FFFFF80
00003400
00003400
00003400
01BFF000
03400000
07000000
03400000
01FFE000
00006800
00001C00
00001C00
06001C00
03002800
01FFE000
002A8000
0071D000
00D0A000
02803400
ENDCHAR
STARTCHAR uni0922094D0930
ENCODING -1
SWIDTH 485 0
DWIDTH 12 0
BBX 13 18 -1 -3
BITMAP
7FFFFFC0
00003400
00003400
00003400
00BFF400
02900000
07000000
06000000
0601F800
06035D00
06060900
07010900
03801D00
00BFF400
001EC000
0034A000
00A03400
00401400
ENDCHAR
STARTCHAR uni0923094D0930
ENCODING -1
SWIDTH 681 0
DWIDTH 16 0
BBX 18 15 -1 0
BITMAP
7FFFFFFFE0
0300700D00
0300700C00
0300700C00
0300700C00
0300700C00
0300700C00
0300700C00
0340601C00
0280907C00
00BF80DC00
0000034C00
00000D0C00
0000280C00
0000A00C00
ENDCHAR
STARTCHAR uni0924094D0930
ENCODING -1
SWIDTH 493 0
DWIDTH 12 0
BBX 13 15 -1 0
BITMAP
7FFFFFC0
00002800
00002800
00002800
00002800
01BFA800
03907800
06002800
06002800
05002800
0000B800
0007A800
001D2800
00A02800
03802800
ENDCHAR
STARTCHAR uni0925094D0930
ENCODING -1
SWIDTH 593 0
DWIDTH 14 0
BBX 14 16 1 -1
BITMAP
0BE00FE0
28280C00
341C0C00
341C0C00
00180C00
00280C00
7FE00C00
A0000C00
A0000C00
60001C00
38007C00
1BFFDC00
000B4C00
002D0C00
00A00C00
03800000
ENDCHAR
STARTCHAR uni0926094D0930
ENCODING -1
SWIDTH 489 0
DWIDTH 12 0
BBX 13 16 -1 -1
BITMAP
7FFFFFC0
00002800
00002800
00002800
00BFF800
02900000
07000000
06000000
06000000
06000C00
07001C00
03802C00
01BFEC00
00075C00
001D0C00
00140000
ENDCHAR
STARTCHAR uni0927094D0930
ENCODING -1
SWIDTH 560 0
DWIDTH 13 0
BBX 15 16 -1 -1
BITMAP
7FF87FF8
02800340
07000340
07000340
07000340
03400340
01FE0340
02800340
07000340
07000340
03000340
03800B40
01BFFB40
0001D340
00074340
00280000
ENDCHAR
STARTCHAR uni0928094D0930
ENCODING -1
SWIDTH 473 0
DWIDTH 11 0
BBX 13 15 -1 0
BITMAP
7FFFFF80
00003400
00003000
00003000
00003000
00003000
02FFF000
0A007000
0D00B000
0902B000
04073000
001C3000
00743000
01D03000
03403000
ENDCHAR
STARTCHAR uni092A094D0930
ENCODING -1
SWIDTH 503 0
DWIDTH 12 0
BBX 14 16 -1 -1
BITMAP
7FFFFFD0
03401C00
03001C00
03001C00
03001C00
03001C00
03001C00
03001C00
03401C00
02807C00
00BFEC00
00025C00
00091C00
00341C00
00D01C00
01400000
ENDCHAR
STARTCHAR uni092B094D0930
ENCODING -1
SWIDTH 741 0
DWIDTH 18 0
BBX 19 16 -1 -1
BITMAP
7FFFFFFFFC
0340280000
0300280000
03002AFA00
03002E4680
03002800C0
03002800D0
03402800D0
02807800D0
00BFE800D0
00076800C0
0009280280
002828BE00
00A0280000
01C0280000
0140000000
ENDCHAR
STARTCHAR uni092C094D0930
ENCODING -1
SWIDTH 491 0
DWIDTH 12 0
BBX 13 16 -1 -1
BITMAP
7FFFFFC0
00002800
00002800
00BE2800
02902800
07C02800
06702800
06182800
06062800
0601A800
06007800
03407800
01BFE800
000A2800
00282800
00A00000
ENDCHAR
STARTCHAR uni092D094D0930
ENCODING -1
SWIDTH 491 0
DWIDTH 12 0
BBX 13 15 -1 0
BITMAP
7803FFC0
0A002800
03002800
03002800
03002800
03002800
03002800
03FFF800
03403800
0300B800
0302A800
000A2800
00282800
00602800
01802800
ENDCHAR
STARTCHAR uni092E094D0930
ENCODING -1
SWIDTH 490 0
DWIDTH 12 0
BBX 13 15 -1 0
BITMAP
7FFFFFC0
03002800
03002800
03002800
03002800
03002800
03002800
03FFF800
03407800
0300B800
0302A800
000A2800
00282800
00A02800
01802800
ENDCHAR
STARTCHAR uni092F094D0930
ENCODING -1
SWIDTH 564 0
DWIDTH 14 0
BBX 15 16 -1 -1
BITMAP
7FFFFFFC
00180340
000D0240
000D0240
001C0240
07F40240
06000240
06000240
06000340
07000340
02800B40
00BFFB40
0001E240
00074240
001D0240
00740000
ENDCHAR
STARTCHAR uni0935094D0930
ENCODING -1
SWIDTH 484 0
DWIDTH 12 0
BBX 13 16 -1 -1
BITMAP
7FFFFFC0
00002400
00002400
00BD2400
02902400
07002400
06002400
06002400
06002400
06002400
07003400
03407400
01BFA400
000A2400
00282400
00A01000
ENDCHAR
STARTCHAR uni0936094D0930
ENCODING -1
SWIDTH 558 0
DWIDTH 13 0
BBX 13 15 1 0
BITMAP
1BE03F80
34283400
601C3400
600C3400
30183400
28343400
0BD03400
1BE03400
B82D7400
9007F400
001E3400
00B43400
07803400
01003400
00003400
ENDCHAR
STARTCHAR uni0938094D0930
ENCODING -1
SWIDTH 604 0
DWIDTH 15 0
BBX 16 15 -1 0
BITMAP
7FFFFFFE
002800D0
002800D0
002800D0
002800D0
002800D0
007400D0
0FFFFFD0
0E0007D0
07001DD0
028034D0
00D0A0D0
00A040D0
003400D0
001C00D0
ENDCHAR
STARTCHAR uni0939094D0930
ENCODING -1
SWIDTH 505 0
DWIDTH 12 0
BBX 14 17 -1 -2
BITMAP
7FFFFFD0
00001800
00001800
00001800
01BFF800
03400000
07000000
03400000
01FFFD00
02907A00
0700DA00
06028A00
06070A00
06090600
07000000
03400000
01BFF400
ENDCHAR
STARTCHAR uni0915093C094D0930
ENCODING -1
SWIDTH 725 0
DWIDTH 17 0
BBX 19 17 -1 -2
BITMAP
7FFFFFFFF8
0000340000
0000340000
00BD36F900
03903D0740
0700340180
06003401C0
0A003401C0
0A003401C0
0A003401C0
0600340180
0340B40740
01FFB4FD00
000A340000
0024340000
0090000000
0009000000
ENDCHAR
STARTCHAR uni0916093C094D0930
ENCODING -1
SWIDTH 698 0
DWIDTH 17 0
BBX 18 17 -1 -2
BITMAP
7FFFFFFFF0
000D000A00
000C000A00
000C000A00
000C0B8A00
000C290A00
0028700A00
0FE4700A00
0E00700A00
0740341E00
02801FFA00
00A0009A00
0034028A00
001C060A00
00091C0500
0000240000
0000028000
ENDCHAR
STARTCHAR uni0917093C094D0930
ENCODING -1
SWIDTH 494 0
DWIDTH 12 0
BBX 13 17 -1 -2
BITMAP
7FFFFFC0
00D02800
00902800
00902800
00902800
00902800
00902800
00D02800
01C02800
1F40B800
0002A800
000A2800
00282800
00702800
01C01800
00000000
000D0000
ENDCHAR
STARTCHAR uni091C093C094D0930
ENCODING -1
SWIDTH 547 0
DWIDTH 13 0
BBX 15 16 -1 -1
BITMAP
7FFFFFF4
00000700
00000700
00000700
00000700
07FFFF00
001D0700
000A0700
00060700
00060700
000A0700
001D1F00
1FF87700
0001D700
00074700
1C090000
ENDCHAR
STARTCHAR uni0921093C094D0930
ENCODING -1
SWIDTH 475 0
DWIDTH 11 0
BBX 13 19 -1 -4
BITMAP
7FFFFF80
00003400
00003400
00003400
01BFF000
03400000
07000000
03400000
01FFE000
00006800
00001C00
00001C00
06001C00
03002800
01FFE000
242A8000
0070D000
00D07000
02802400
ENDCHAR
STARTCHAR uni0922093C094D0930
ENCODING -1
SWIDTH 485 0
DWIDTH 12 0
BBX 13 18 -1 -3
BITMAP
7FFFFFC0
00003400
00003400
00003400
00BFF400
02900000
07000000
06000000
0601F800
06035D00
06060900
07010900
02801D00
00BFF400
241DC000
0034A000
00D03400
00401400
ENDCHAR
STARTCHAR uni0928093C094D0930
ENCODING -1
SWIDTH 473 0
DWIDTH 11 0
BBX 13 17 -1 -2
BITMAP
7FFFFF80
00003400
00003000
00003000
00003000
00003000
02FFF000
0A007000
0D00B000
0902B000
04073000
001C3000
00743000
01D03000
03403000
00000000
00340000
ENDCHAR
STARTCHAR uni092B093C094D0930
ENCODING -1
SWIDTH 741 0
DWIDTH 18 0
BBX 19 17 -1 -2
BITMAP
7FFFFFFFFC
0340280000
0300280000
03002AFA00
03002E4680
03002800C0
03002800D0
03402800D0
02807800D0
00BFE800D0
00076800C0
0009280280
002828BE00
00A0280000
01C0280000
0140000000
000C000000
ENDCHAR
STARTCHAR uni092F093C094D0930
ENCODING -1
SWIDTH 564 0
DWIDTH 14 0
BBX 15 17 -1 -2
BITMAP
7FFFFFFC
00180340
000D0240
000D0240
001C0240
07F40240
06000240
06000240
06000340
07000340
02800B40
00BFFB40
0001E240
00074240
001D0240
00740000
00018000
ENDCHAR
STARTCHAR uni0915094D0930094D
ENCODING -1
SWIDTH 518 0
DWIDTH 12 0
BBX 17 16 -1 -1
BITMAP
7FFFFFFF80
0000340000
0000340000
00BD36F900
03903D0740
0700340140
0600340000
0A00340000
0A00340000
0A00340000
0600340000
0340B40000
01FFB40000
000A340000
0028340000
0090000000
ENDCHAR
STARTCHAR uni0916094D0930094D
ENCODING -1
SWIDTH 469 0
DWIDTH 11 0
BBX 15 16 -1 -1
BITMAP
7FFFFFF8
000D0000
000C0000
000C0000
000C0B80
000C2900
00287000
0FE47000
0E007004
0700341C
02801FF4
00D00090
00740280
00280700
00090D00
00002400
ENDCHAR
STARTCHAR uni0917094D0930094D
ENCODING -1
SWIDTH 264 0
DWIDTH 6 0
BBX 11 15 -1 0
BITMAP
7FFE00
00D000
009000
009000
009000
009000
009000
00D000
01C034
1F4090
000280
000A00
002800
00A000
018000
ENDCHAR
STARTCHAR uni0918094D0930094D
ENCODING -1
SWIDTH 319 0
DWIDTH 8 0
BBX 12 16 -1 -1
BITMAP
7FFFFD
038000
070000
070000
070000
034000
01FE00
028000
070000
070000
070000
038009
01BFF4
0001D0
000A00
007400
ENDCHAR
STARTCHAR uni091A094D0930094D
ENCODING -1
SWIDTH 331 0
DWIDTH 8 0
BBX 12 16 -1 -1
BITMAP
7FFFFC
000000
000000
000000
000000
1FFF80
00E000
018000
018000
018001
00D00A
007FF8
0001E0
000780
001D00
002400
ENDCHAR
STARTCHAR uni091C094D0930094D
ENCODING -1
SWIDTH 312 0
DWIDTH 7 0
BBX 12 16 -1 -1
BITMAP
7FFFFC
000000
000000
000000
000000
07FFFC
001D00
000A00
000600
000600
000A06
001D1C
1FF870
0001C0
000700
000800
ENDCHAR
STARTCHAR uni091D094D0930094D
ENCODING -1
SWIDTH 441 0
DWIDTH 11 0
BBX 15 16 -1 -1
BITMAP
7FFFFFF0
00009000
00009000
01BFD000
03800000
07000000
07000000
03400000
01FFFFF8
0000B028
06003028
07003034
074070D0
07BFD280
06000A00
06002800
ENDCHAR
STARTCHAR uni091E094D0930094D
ENCODING -1
SWIDTH 374 0
DWIDTH 9 0
BBX 13 16 -1 -1
BITMAP
7FFFFF40
00000000
00000000
00000000
0BE40000
00190000
00060000
00030000
0003FFC0
000300C0
000701C0
000A0340
0FF81D00
00007400
0001D000
00014000
ENDCHAR
STARTCHAR uni091F094D0930094D
ENCODING -1
SWIDTH 485 0
DWIDTH 12 0
BBX 13 22 -1 -7
BITMAP
7FFFFFC0
00003000
00003000
00003000
00BFF000
02900000
07000000
06000000
06000000
06000900
06000900
07000D00
03802C00
00BFE400
001EC000
0070A000
01D02800
00060000
00024000
0001C000
0000A000
00002000
ENDCHAR
STARTCHAR uni0920094D0930094D
ENCODING -1
SWIDTH 512 0
DWIDTH 12 0
BBX 14 22 -1 -7
BITMAP
7FFFFFE0
00002400
00002400
00003400
00BFE000
02906800
07000D00
06000900
06000900
06000900
06000900
07000900
03801C00
01BFE400
001E8000
0034A000
00A03400
01811400
00034000
0001C000
0000A000
00001000
ENDCHAR
STARTCHAR uni0921094D0930094D
ENCODING -1
SWIDTH 475 0
DWIDTH 11 0
BBX 13 23 -1 -8
BITMAP
7FFFFF80
00003400
00003400
00003400
01BFF000
03400000
07000000
03400000
01FFE000
00006800
00001C00
00001C00
06001C00
03002800
01FFE000
002B8000
0071D000
00D07000
01402400
00070000
00028000
0000D000
00005000
ENDCHAR
STARTCHAR uni0922094D0930094D
ENCODING -1
SWIDTH 485 0
DWIDTH 12 0
BBX 13 22 -1 -7
BITMAP
7FFFFFC0
00003400
00003400
00003400
00BFF400
02900000
07000000
06000000
0601F800
06035D00
06060900
07010900
02801D00
00BFF800
001EC000
0034A000
00A03400
01811800
00034000
0001C000
0000A000
00001000
ENDCHAR
STARTCHAR uni0923094D0930094D
ENCODING -1
SWIDTH 457 0
DWIDTH 11 0
BBX 15 15 -1 0
BITMAP
7FFFFF40
03007000
03007000
03007000
03007000
03007000
03007000
03007000
03406018
02809074
00BF81D0
00000340
00000D00
00003400
0000A000
ENDCHAR
STARTCHAR uni0924094D0930094D
ENCODING -1
SWIDTH 268 0
DWIDTH 6 0
BBX 11 15 -1 0
BITMAP
7FFFFC
000000
000000
000000
000000
01BF80
039070
060024
060024
050024
0000B0
000780
001D00
00A000
038000
ENDCHAR
STARTCHAR uni0925094D0930094D
ENCODING -1
SWIDTH 358 0
DWIDTH 9 0
BBX 11 16 1 -1
BITMAP
0BE000
282800
341C00
341C00
001800
002800
7FE000
A00000
A00000
600000
380074
1BFFD0
000B40
002C00
00A000
038000
ENDCHAR
STARTCHAR uni0926094D0930094D
ENCODING -1
SWIDTH 489 0
DWIDTH 12 0
BBX 13 20 -1 -5
BITMAP
7FFFFFC0
00002800
00002800
00002800
00BFF800
02900000
07000000
06000000
06000000
06000C00
07001C00
03802C00
01BFEC00
00075C00
000D0C00
00240000
0000D000
00007000
00002800
00000400
ENDCHAR
STARTCHAR uni0927094D0930094D
ENCODING -1
SWIDTH 322 0
DWIDTH 8 0
BBX 12 16 -1 -1
BITMAP
7FF87C
038000
070000
070000
070000
034000
01FE00
028000
070000
070000
070000
03800A
01BFF8
0001D0
000740
002800
ENDCHAR
STARTCHAR uni0928094D0930094D
ENCODING -1
SWIDTH 247 0
DWIDTH 6 0
BBX 10 15 -1 0
BITMAP
7FFFF0
000000
000000
000000
000000
000000
02FFF0
0A0030
0D0070
0901D0
040740
001D00
003400
00D000
034000
ENDCHAR
STARTCHAR uni092A094D0930094D
ENCODING -1
SWIDTH 270 0
DWIDTH 6 0
BBX 11 16 -1 -1
BITMAP
7FFFC0
034000
030000
030000
030000
030000
030000
030000
034004
028074
00BFD0
000240
000900
003400
00D000
014000
ENDCHAR
STARTCHAR uni092B094D0930094D
ENCODING -1
SWIDTH 523 0
DWIDTH 13 0
BBX 17 16 -1 -1
BITMAP
BFFFFFFF40
0700340000
0600240000
060026F900
06002D0740
0600280000
0600240000
0700340000
0380B40000
01FFB40000
0007240000
001D240000
0034240000
00A0240000
0280240000
0200000000
ENDCHAR
STARTCHAR uni092C094D0930094D
ENCODING -1
SWIDTH 267 0
DWIDTH 6 0
BBX 11 16 -1 -1
BITMAP
7FFFF4
000000
000000
00BE00
029000
07C000
067000
061800
060600
060194
060074
034060
01BFC0
000600
002800
00A000
ENDCHAR
STARTCHAR uni092D094D0930094D
ENCODING -1
SWIDTH 257 0
DWIDTH 6 0
BBX 10 15 -1 0
BITMAP
7803F0
0A0000
030000
030000
030000
030000
030000
03FFF0
034070
0300D0
020240
000A00
002800
00A000
01C000
ENDCHAR
STARTCHAR uni092E094D0930094D
ENCODING -1
SWIDTH 261 0
DWIDTH 6 0
BBX 10 15 -1 0
BITMAP
7FFFF0
030000
030000
030000
030000
030000
030000
03FFF0
034070
0300D0
020240
000A00
002800
00A000
01C000
ENDCHAR
STARTCHAR uni092F094D0930094D
ENCODING -1
SWIDTH 323 0
DWIDTH 8 0
BBX 12 16 -1 -1
BITMAP
7FFFF4
001800
000D00
000D00
001C00
07F400
060000
060000
060000
070001
02801A
00BFF8
0001E0
000780
001D00
007400
ENDCHAR
STARTCHAR uni0935094D0930094D
ENCODING -1
SWIDTH 255 0
DWIDTH 6 0
BBX 10 16 -1 -1
BITMAP
7FFF80
000000
000000
00BD00
029000
070000
060000
060000
060000
060000
070010
0340A0
01BF80
000A00
002800
00A000
ENDCHAR
STARTCHAR uni0938094D0930094D
ENCODING -1
SWIDTH 347 0
DWIDTH 8 0
BBX 13 15 -1 0
BITMAP
7FFFFD00
00280000
00280000
00280000
00280000
00280000
00740000
0FFFFF40
0E000B00
07001C00
02807400
00D0D000
00A24000
00340000
001C0000
ENDCHAR
STARTCHAR uni0915093C094D0930094D
ENCODING -1
SWIDTH 518 0
DWIDTH 12 0
BBX 17 17 -1 -2
BITMAP
7FFFFFFF80
0000340000
0000340000
00BD36F900
03903D0740
0700340140
0600340000
0A00340000
0A00340000
0A00340000
0600340000
0340B40000
01FFB40000
000A340000
0028340000
0090000000
000D000000
ENDCHAR
STARTCHAR uni0916093C094D0930094D
ENCODING -1
SWIDTH 466 0
DWIDTH 11 0
BBX 15 17 -1 -2
BITMAP
7FFFFFF8
000D0000
000C0000
000C0000
000C0B80
000C2900
00287000
0FE47000
0E007004
0700341C
02801FF4
00D00090
00740280
00280700
00091D00
00002400
00000180
ENDCHAR
STARTCHAR uni0917093C094D0930094D
ENCODING -1
SWIDTH 264 0
DWIDTH 6 0
BBX 11 17 -1 -2
BITMAP
7FFE00
00D000
009000
009000
009000
009000
009000
00D000
01C034
1F4090
000280
000A00
002800
007000
01C000
000000
000900
ENDCHAR
STARTCHAR uni091C093C094D0930094D
ENCODING -1
SWIDTH 320 0
DWIDTH 8 0
BBX 12 17 -1 -2
BITMAP
7FFFFC
000000
000000
000000
000000
07FFFC
001D00
000A00
000600
000600
000A01
001D0D
1FF834
0000D0
000380
000E00
180000
ENDCHAR
STARTCHAR uni0928093C094D0930094D
ENCODING -1
SWIDTH 247 0
DWIDTH 6 0
BBX 10 17 -1 -2
BITMAP
7FFFF0
000000
000000
000000
000000
000000
02FFF0
0A0030
0D0070
0900D0
050340
000D00
002800
00A000
028000
010000
002800
ENDCHAR
STARTCHAR uni092B093C094D0930094D
ENCODING -1
SWIDTH 523 0
DWIDTH 13 0
BBX 17 17 -1 -2
BITMAP
BFFFFFFF40
0700340000
0600240000
060026F900
06002D0740
0600280000
0600240000
0700340000
0380B40000
01FFB40000
0007240000
001D240000
0034240000
00E0240000
0280240000
0100000000
0028000000
ENDCHAR
STARTCHAR uni092F093C094D0930094D
ENCODING -1
SWIDTH 323 0
DWIDTH 8 0
BBX 12 17 -1 -2
BITMAP
7FFFF4
001800
000D00
000D00
001C00
07F400
060000
060000
060000
070001
02801A
00BFF8
0001E0
000740
001D00
006400
000180
ENDCHAR
STARTCHAR uni0915094D0915
ENCODING -1
SWIDTH 1255 0
DWIDTH 30 0
BBX 32 15 -1 0
BITMAP
7FFFFFFFFFFFFFFD
00003400001C0000
00003400000C0000
00BD36F96F0DBE00
03903D07D00E46C0
07003402800D0090
06003402400C00A0
0A003402400C00A0
0A003402400C00A0
0A003402400C00A0
06003402801C0090
0340B401D02C01C0
01BFB4007FDC7F40
00003400000C0000
00003400000C0000
ENDCHAR
STARTCHAR uni0915094D0916
ENCODING -1
SWIDTH 1256 0
DWIDTH 30 0
BBX 32 15 -1 0
BITMAP
7FFFFFFFFFFFFFFD
00003400028001C0
00003400028001C0
00BD36F8028001C0
03903D1A0281B1C0
07003403028741C0
06003402474901C0
0A003402FD0D01C0
0A003401C00D01C0
0A003400A00901C0
06003400340702C0
0340B4001C02FDC0
01BFB4000A0001C0
00003400034001C0
0000340001C001C0
ENDCHAR
STARTCHAR uni0915094D091A
ENCODING -1
SWIDTH 1086 0
DWIDTH 26 0
BBX 28 15 -1 0
BITMAP
7FFFFFFFFFFFFD
000034000001C0
000034000001C0
00BD36E40001C0
03903D1C0001C0
0700340BFFD1C0
060034007401C0
0A0034009001C0
0A003400D001C0
0A0034009001C0
06003400A007C0
0340B4002FFEC0
01BF74000001C0
000034000001C0
000034000001C0
ENDCHAR
STARTCHAR uni0915094D091C
ENCODING -1
SWIDTH 1071 0
DWIDTH 26 0
BBX 27 15 -1 0
BITMAP
7FFFFFFFFFFFFC
00003400000280
00003400000280
00BD3400000280
038036F4FFFF80
07003D001A0280
06003400030280
0A003400034280
0A003400034280
0A003400034280
06003400030280
0340B4000B0280
01BFB40BF90280
00003400000280
00003400000240
ENDCHAR
STARTCHAR uni0915094D091F
ENCODING -1
SWIDTH 984 0
DWIDTH 24 0
BBX 25 15 -1 0
BITMAP
7FFFFFFFFFFFC0
00003400003000
00003400003000
00BD36F9003000
03903D07BFF000
07003402900000
06003407000000
0A003406000000
0A003406000000
0A003406000500
06003406000900
0340B407000D00
01BFB403801C00
00003401BFE400
00003400000000
ENDCHAR
STARTCHAR uni0915094D0923
ENCODING -1
SWIDTH 1183 0
DWIDTH 28 0
BBX 30 15 -1 0
BITMAP
7FFFFFFFFFFFFFE0
0000340340700D00
0000340340700D00
00BD340340700D00
039036FF40700D00
07003D0340700D00
0600340340700D00
0A00340340700D00
0A00340240700D00
0A00340280A00D00
06003400BF800D00
0340B40000000D00
01BFB40000000D00
0000340000000D00
0000340000000D00
ENDCHAR
STARTCHAR uni0915094D0924
ENCODING -1
SWIDTH 761 0
DWIDTH 18 0
BBX 20 15 -1 0
BITMAP
7FFFFFFFFE
00000D0000
00000D0000
00000D0000
00000D0000
0BFFFDBE40
00A00F41D0
01C00D00A0
01C00D0060
01C00D0060
01C00D0060
00D00D01D0
006F0D2F40
00000D0000
00000D0000
ENDCHAR
STARTCHAR uni0915094D0925
ENCODING -1
SWIDTH 1118 0
DWIDTH 27 0
BBX 28 15 -1 0
BITMAP
7FFFFFF06F407F
00003400D1D0A0
00003401C090A0
00BD34004090A0
0390340001D0A0
070036FFFF40A0
06003D034000A0
0A0034034000A0
0A0034034000A0
0A0034024000A0
06003401D002E0
0340B4007FFEA0
01BF74000000A0
000034000000A0
000034000000A0
ENDCHAR
STARTCHAR uni0915094D0926
ENCODING -1
SWIDTH 1009 0
DWIDTH 24 0
BBX 26 15 -1 0
BITMAP
7FFFFFFFFFFFE0
00003400000C00
00003400000C00
00BD36F9000C00
03903D07BFFC00
07003402D00000
06003402400000
0A003403400000
0A003403400000
0A003403400900
06003402400900
0340B401C01D00
01BF7400BFE900
00003400000900
00003400000900
ENDCHAR
STARTCHAR uni0915094D092A
ENCODING -1
SWIDTH 1007 0
DWIDTH 24 0
BBX 26 15 -1 0
BITMAP
7FFFFFFFFFFFD0
00003403401C00
00003403401C00
00BD3403401C00
039036FF401C00
07003D03401C00
06003403401C00
0A003403401C00
0A003402401C00
0A003401803C00
06003400BFDC00
0340B400001C00
01BFB400001C00
00003400001C00
00003400001C00
ENDCHAR
STARTCHAR uni0915094D092B
ENCODING -1
SWIDTH 1242 0
DWIDTH 30 0
BBX 31 15 -1 0
BITMAP
7FFFFFFFFFFFFFFC
0000340340280000
0000340340180000
00BD3403401AFA00
039036FF401E4680
07003D03401C00C0
06003403401800D0
0A00340340280090
0A00340280780090
0A003400BFA800D0
06003400001800C0
0340B40000180280
01BFB40000187E00
0000340000180000
0000340000180000
ENDCHAR
STARTCHAR uni0915094D092E
ENCODING -1
SWIDTH 994 0
DWIDTH 24 0
BBX 25 15 -1 0
BITMAP
7FFFFFFFFFFFC0
00003403402800
00003403002800
00BD3403002800
039036FF002800
07003D03002800
06003403002800
0A003403FFF800
0A003403402800
0A003403002800
06003403002800
0340B400002800
01BFB400002800
00003400002800
00003400001800
ENDCHAR
STARTCHAR uni0915094D092F
ENCODING -1
SWIDTH 1076 0
DWIDTH 26 0
BBX 27 15 -1 0
BITMAP
7FFFFFFFFFFFFC
000034001D0280
000034000A0280
00BD34000A0280
039034000D0280
070036FFF80280
06003D07000280
0A003403000280
0A003403000280
0A003403400280
06003401D00B80
0340B400BFFA80
01BFB400000280
00003400000280
00003400000280
ENDCHAR
STARTCHAR uni0915094D0932
ENCODING -1
SWIDTH 1178 0
DWIDTH 28 0
BBX 30 15 -1 0
BITMAP
7FFFFFFFFFFFFFE0
0000340000000C00
0000340000000C00
00BD36F900000C00
03903D07BE1B9C00
0700340296B46C00
0600340300E01C00
0A00340700900C00
0A00340700900C00
0A00340700900C00
0600340700400C00
0340B40300000C00
01BFB40280000C00
00003400BE000C00
0000340000000C00
ENDCHAR
STARTCHAR uni0915094D0935
ENCODING -1
SWIDTH 1013 0
DWIDTH 24 0
BBX 26 15 -1 0
BITMAP
7FFFFFFFFFFFE0
00003400000C00
00003400000C00
00BD36F96F0C00
03903D07D00C00
07003402800C00
06003402400C00
0A003402400C00
0A003402400C00
0A003402400C00
06003402801C00
0340B401D02C00
01BFB4007FDC00
00003400000C00
00003400000C00
ENDCHAR
STARTCHAR uni0915094D0936
ENCODING -1
SWIDTH 1194 0
DWIDTH 29 0
BBX 30 15 -1 0
BITMAP
7FFFFFFC1BE00BF0
0000340034280900
00003400701C0900
00BD3400601C0900
039036F9001C0900
07003D07401C0900
0600340280280900
0A003401FFE00900
0A003400D0000900
0A00340070000900
0600340028000900
0340B4000D000900
01BFB40007000900
0000340002800900
0000340000D00900
ENDCHAR
STARTCHAR uni0915094D0938
ENCODING -1
SWIDTH 1143 0
DWIDTH 27 0
BBX 29 15 -1 0
BITMAP
7FFFFFFFFFFFFF80
0000340003403400
0000340003403400
00BD36F803403400
03903D1B03403400
0700340243403400
0600340247003400
0A003402FFFFF400
0A003401D0003400
0A003400A0003400
0600340034003400
0340B40028003400
01BFB4000D003400
0000340007003400
0000340002403400
ENDCHAR
STARTCHAR uni0916094D0916
ENCODING -1
SWIDTH 1223 0
DWIDTH 29 0
BBX 31 15 -1 0
BITMAP
7FFFFFFFFFFFFFF8
000D000006000340
000C000006000300
000C000006000300
000C0B800606D300
000C2900060D0300
0028700009280300
0FE47007F8240300
0E00600740240300
0700700380280300
0280381AD01D0B00
00D01BF47007F700
0074000028000300
002800000D000300
0009000007000300
ENDCHAR
STARTCHAR uni0916094D0924
ENCODING -1
SWIDTH 984 0
DWIDTH 24 0
BBX 25 15 -1 0
BITMAP
7FFFFFFFFFFFC0
000D0000002400
000C0000002400
000C0000002400
000C0B80002400
000C2901BFF400
00287007402400
0FE4700A002400
0E006009002400
07007009002400
02803809002400
00D01BFD002400
0070000A002400
00280007402400
000D0002F42400
ENDCHAR
STARTCHAR uni0916094D092E
ENCODING -1
SWIDTH 965 0
DWIDTH 23 0
BBX 25 15 -1 0
BITMAP
7FFFFFFFFFFF40
000D0009007000
000C0009007000
000C0009007000
000C0B89007000
000C2909007000
00287009007000
0FE4700BFFF000
0E00600A007000
07007009007000
0280381D007000
00D01BF4007000
00740000007000
00280000007000
00090000007000
ENDCHAR
STARTCHAR uni0916094D092F
ENCODING -1
SWIDTH 1047 0
DWIDTH 25 0
BBX 27 15 -1 0
BITMAP
7FFFFFFFFFFFF4
000D0000240700
000C00001C0700
000C00001C0700
000C0B80280700
000C280BE00700
00287009000700
0FE47009000700
0E006009000700
0700700A000700
0280381F401F00
00D01BE6FFFB00
00740000000700
00280000000700
00090000000700
ENDCHAR
STARTCHAR uni0916094D0935
ENCODING -1
SWIDTH 975 0
DWIDTH 23 0
BBX 25 15 -1 0
BITMAP
7FFFFFFFFFFF80
000D0000003400
000C0000003400
000C0001BD3400
000C0B83803400
000C290A003400
0028700A003400
0FE46009003400
0E006009003400
07007009003400
0280341E003400
00D01FE740B400
00740001FF7400
00280000003400
00090000003400
ENDCHAR
STARTCHAR uni0916094D0936
ENCODING -1
SWIDTH 1123 0
DWIDTH 27 0
BBX 29 15 -1 0
BITMAP
7FFFFFC0BE407F40
000D000281C06000
000C000340D06000
000C000300D06000
000C0B8200D06000
000C290000C06000
0028700002C06000
0FE4701FFE406000
0E00601D00006000
0700700E00006000
0280381F40006000
00D01BE6C0006000
00740000E0006000
0028000074006000
000900001C006000
ENDCHAR
STARTCHAR uni0917094D0917
ENCODING -1
SWIDTH 744 0
DWIDTH 18 0
BBX 19 15 -1 0
BITMAP
7FFFFFFFFC
00D00D0280
0090090280
0090090280
0090090280
0090090280
0090090280
00D00D0280
01C01C0280
1F41F40280
0000000280
0000000280
0000000280
0000000280
0000000180
ENDCHAR
STARTCHAR uni0917094D0918
ENCODING -1
SWIDTH 823 0
DWIDTH 20 0
BBX 21 15 -1 0
BITMAP
7FFFFFFFFFC0
00D028002800
009034002800
009034002800
009034002800
009028002800
00900BF02800
00D019002800
01C034002800
1F4034002800
000034002800
000028007800
00000BFFA800
000000002800
000000002800
ENDCHAR
STARTCHAR uni0917094D091C
ENCODING -1
SWIDTH 801 0
DWIDTH 19 0
BBX 21 15 -1 0
BITMAP
7FFFFFFFFF80
00D000007000
009000003000
009000003000
009000003000
00903FFFF000
009001D07000
00D000A03000
01C000603000
1F4000603000
000000603000
000000D03000
0000FF803000
000000003000
000000003000
ENDCHAR
STARTCHAR uni0917094D0923
ENCODING -1
SWIDTH 945 0
DWIDTH 23 0
BBX 24 15 -1 0
BITMAP
7FFFFFFFFFFF
00D0240340A0
009024034090
009024034090
009024034090
009024034090
009024034090
00D024034090
01C028030090
1F401C0A0090
00000BF80090
000000000090
000000000090
000000000090
000000000090
ENDCHAR
STARTCHAR uni0917094D0926
ENCODING -1
SWIDTH 748 0
DWIDTH 18 0
BBX 20 15 -1 0
BITMAP
7FFFFFFFFD
00D0000180
0090000180
0090000180
009006FF80
0090290000
0090340000
00D0300000
01C0300000
1F403000C0
00003000C0
00002801C0
00000BFEC0
00000000C0
00000000C0
ENDCHAR
STARTCHAR uni0917094D0927
ENCODING -1
SWIDTH 823 0
DWIDTH 20 0
BBX 21 15 -1 0
BITMAP
7FFFFFC3FFC0
00D028002800
009034002800
009034002800
009034002800
009028002800
00900BF02800
00D019002800
01C034002800
1F4034002800
000034002800
000028007800
00000BFFA800
000000002800
000000002800
ENDCHAR
STARTCHAR uni0917094D092C
ENCODING -1
SWIDTH 755 0
DWIDTH 18 0
BBX 20 15 -1 0
BITMAP
7FFFFFFFFD
00D00001C0
00900001C0
009006F1C0
00901D01C0
00903D01C0
00903241C0
00D030D1C0
01C03031C0
1F403019C0
00003407C0
00002803C0
00000BFDC0
00000001C0
00000001C0
ENDCHAR
STARTCHAR uni0917094D092D
ENCODING -1
SWIDTH 755 0
DWIDTH 18 0
BBX 20 15 -1 0
BITMAP
7FFF902FFD
00D07001C0
00902401C0
00902401C0
00902401C0
00902401C0
00902401C0
00D02FFFC0
01C02401C0
1F402401C0
00002401C0
00000001C0
00000001C0
00000001C0
00000001C0
ENDCHAR
STARTCHAR uni0917094D092E
ENCODING -1
SWIDTH 754 0
DWIDTH 18 0
BBX 20 15 -1 0
BITMAP
7FFFFFFFFD
00D02401C0
00902401C0
00902401C0
00902401C0
00902401C0
00902401C0
00D02FFFC0
01C02401C0
1F402401C0
00002401C0
00000001C0
00000001C0
00000001C0
00000001C0
ENDCHAR
STARTCHAR uni0917094D092F
ENCODING -1
SWIDTH 828 0
DWIDTH 20 0
BBX 22 15 -1 0
BITMAP
7FFFFFFFFFD0
00D001D02800
009000A01800
009000A01800
009000901800
00903F801800
009034001800
00D030001800
01C030002800
1F4034002800
00001D007800
000007FFA800
000000001800
000000001800
000000001800
ENDCHAR
STARTCHAR uni0917094D0932
ENCODING -1
SWIDTH 924 0
DWIDTH 22 0
BBX 24 15 -1 0
BITMAP
7FFFFFFFFFFD
00D0000001C0
0090000001C0
0090000001C0
00900BE1B9C0
0090296B47C0
0090700E01C0
00D0600901C0
01C0600901C0
1F40600901C0
0000600401C0
0000700001C0
0000380001C0
00001BE001C0
0000000001C0
ENDCHAR
STARTCHAR uni0917094D0935
ENCODING -1
SWIDTH 747 0
DWIDTH 18 0
BBX 20 15 -1 0
BITMAP
7FFFFFFFFD
00D0000180
0090000180
009006E180
00901D0180
0090340180
0090300180
00D0300180
01C0300180
1F40300180
0000340280
0000280780
00000BFE80
0000000180
0000000180
ENDCHAR
STARTCHAR uni0917094D0938
ENCODING -1
SWIDTH 839 0
DWIDTH 20 0
BBX 22 15 -1 0
BITMAP
7FFFFFFFFFD0
00D001C01C00
009001C01C00
009001C01C00
009001C01C00
009001C01C00
009002801C00
00D0BFFFFC00
01C0A0001C00
1F4034001C00
00001C001C00
00000A001C00
000007001C00
000002801C00
000000D01C00
ENDCHAR
STARTCHAR uni0918094D092E
ENCODING -1
SWIDTH 818 0
DWIDTH 20 0
BBX 21 15 -1 0
BITMAP
7FFFFFFFFFC0
024007002400
070007002400
070007002400
070007002400
034007002400
01FE07002400
028007FFF400
070007002400
070007002400
070007002400
03400A002400
01BFF8002400
000000002400
000000002400
ENDCHAR
STARTCHAR uni0918094D092F
ENCODING -1
SWIDTH 867 0
DWIDTH 21 0
BBX 22 15 -1 0
BITMAP
7FFFFFFFFFF0
038000740A00
070000280A00
070000280A00
030000340A00
02400FE00A00
01FE0C000A00
03800C000A00
07000C000A00
07000D000A00
03000B402E00
03401FFFEA00
01BFF4000A00
000000000A00
000000000A00
ENDCHAR
STARTCHAR uni091A094D091A
ENCODING -1
SWIDTH 868 0
DWIDTH 21 0
BBX 22 15 -1 0
BITMAP
7FFFFFFFFFF0
000000000A00
000000000A00
000000000A00
000000000A00
1FFE1FFF0A00
00E002900A00
018003000A00
018003000A00
018003000A00
00D00B801E00
007FF9BFEA00
000000000A00
000000000A00
000000000A00
ENDCHAR
STARTCHAR uni091A094D091B
ENCODING -1
SWIDTH 922 0
DWIDTH 22 0
BBX 24 14 -1 1
BITMAP
7FFFFFFFFFFD
000002800180
000003400180
000003400180
000003400180
1FFF83402F80
00E0028001C0
018000BD0090
018002900090
018003400090
00D007400090
007FFB4000D0
0000028001C0
000000BFFE40
ENDCHAR
STARTCHAR uni091A094D092E
ENCODING -1
SWIDTH 830 0
DWIDTH 20 0
BBX 22 15 -1 0
BITMAP
7FFFFFFFFFD0
000003401800
000003401800
000003401800
1FFF83401800
00A403401800
01C003FFF800
018003402800
018003401800
01C003001800
00D00A001800
006FF8001800
000000001800
000000001800
000000001800
ENDCHAR
STARTCHAR uni091A094D092F
ENCODING -1
SWIDTH 904 0
DWIDTH 22 0
BBX 23 15 -1 0
BITMAP
7FFFFFFFFFFC
0000001C0280
000000090240
000000090240
0000001D0240
1FFF87F80240
00E007000240
018007000240
018007000240
018003400340
00D00B800B40
007FF8BFFA40
000000000240
000000000240
000000000240
ENDCHAR
STARTCHAR uni091B094D092F
ENCODING -1
SWIDTH 1068 0
DWIDTH 26 0
BBX 27 15 -1 0
BITMAP
7FFFFFFFFFFFFC
02800000000240
03000000000240
07003FFFF80240
070002C00A0240
030000C0030240
028000D0030240
00FD00D0070240
028000D1FD0240
030000D2800240
070000D1800340
030000C0D00B40
038002806FFA40
01BFFE00000240
00000000000240
ENDCHAR
STARTCHAR uni091B094D0935
ENCODING -1
SWIDTH 581 0
DWIDTH 14 0
BBX 16 17 -1 -2
BITMAP
7FFFFFFD
02800280
03000240
07000240
03003F40
028002C0
00FD00C0
029000D0
030000D0
030000C0
03400280
01FFFF40
00D00240
01800240
01800240
01D00700
007FF900
ENDCHAR
STARTCHAR uni091C094D0915
ENCODING -1
SWIDTH 1054 0
DWIDTH 25 0
BBX 27 15 -1 0
BITMAP
7FFFFFFFFFFFF8
00000000340000
00000000300000
000000BD36F900
000002903D0740
07FFFE00340280
001D0A00340180
000A0A00300180
00060A00300180
00060A00300180
000A0A00300180
001D0740B00740
1FF801FF70FD00
00000000300000
00000000300000
ENDCHAR
STARTCHAR uni091C094D091C
ENCODING -1
SWIDTH 903 0
DWIDTH 22 0
BBX 23 15 -1 0
BITMAP
7FFFFFFFFFFC
000000000280
000000000240
000000000240
000000000240
07FFF4FFFF40
001D001A0240
000A00030240
000600034240
000600034240
000A00030240
001D000B0240
1FF80FF90240
000000000240
000000000240
ENDCHAR
STARTCHAR uni091C094D091D
ENCODING -1
SWIDTH 990 0
DWIDTH 24 0
BBX 25 15 -1 0
BITMAP
7FFFFFFFFFFFC0
00000000D02800
00000000D02800
000001BFD02800
00000340002800
07FFFE00002800
001D0600002800
000A0740002800
000601FFFFF800
00060000A02800
000A0A00702800
001D0A00702800
1FF80B40A02800
00000AFF902800
00000A00001400
ENDCHAR
STARTCHAR uni091C094D091F
ENCODING -1
SWIDTH 815 0
DWIDTH 20 0
BBX 21 14 -1 1
BITMAP
7FFFFFFFFFC0
000000007000
000000003000
000000003000
000000BFF000
07FFFF900000
001D0B000000
000906000000
000A06000000
000A06000900
000906000900
001D07000D00
1FF403402C00
000001BFE000
ENDCHAR
STARTCHAR uni091C094D0921
ENCODING -1
SWIDTH 797 0
DWIDTH 19 0
BBX 21 15 -1 0
BITMAP
7FFFFFFFFF40
000000007000
000000007000
000000007000
000001BFF000
07FFFF400000
001D0A000000
000907000000
000A02FF9000
000A00007400
000900002800
001D05002800
1FF40A002800
000007003400
000002FFE000
ENDCHAR
STARTCHAR uni091C094D0924
ENCODING -1
SWIDTH 830 0
DWIDTH 20 0
BBX 22 15 -1 0
BITMAP
7FFFFFFFFFD0
000000002800
000000001800
000000001800
000000001800
07FFF9BFF800
001D07902800
000907001800
000A06001800
000A06001800
000906001800
001D06001800
1FF407001800
000003401800
000001B81800
ENDCHAR
STARTCHAR uni091C094D0926
ENCODING -1
SWIDTH 817 0
DWIDTH 20 0
BBX 21 15 -1 0
BITMAP
7FFFFFFFFFC0
000000002400
000000002400
000000002400
000000BFF400
07FFFF900000
001D07000000
000A06000000
00060A000000
000606001800
000A06001800
001D03402800
1FF801FFE800
000000001800
000000001800
ENDCHAR
STARTCHAR uni091C094D092C
ENCODING -1
SWIDTH 820 0
DWIDTH 20 0
BBX 21 15 -1 0
BITMAP
7FFFFFFFFFC0
000000002800
000000002400
000000BD2400
000002902400
07FFFF802400
001D0AA02400
000A0A282400
00060A0A2400
00060A02A400
000A0600B400
001D03407400
1FF801FFA400
000000002400
000000002400
ENDCHAR
STARTCHAR uni091C094D092E
ENCODING -1
SWIDTH 813 0
DWIDTH 20 0
BBX 21 15 -1 0
BITMAP
7FFFFFFFFF80
000006003400
000006003400
000006003400
000006003400
07FFFE003400
001D06003400
000A07FFF400
000607003400
000606003400
000A06003400
001D00003400
1FF800003400
000000003400
000000002400
ENDCHAR
STARTCHAR uni091C094D092F
ENCODING -1
SWIDTH 893 0
DWIDTH 21 0
BBX 23 15 -1 0
BITMAP
7FFFFFFFFFF8
000000180340
0000000D0340
0000000D0340
07FFF81C0340
001D0BF40340
000906000340
000A06000340
000A06000340
000A07000340
000902800B40
001D00BFF740
1FF400000340
000000000340
000000000340
ENDCHAR
STARTCHAR uni091C094D0935
ENCODING -1
SWIDTH 813 0
DWIDTH 20 0
BBX 21 15 -1 0
BITMAP
7FFFFFFFFF80
000000003400
000000002400
000000BD2400
000002902400
07FFFE002400
001D0A002400
000A0A002400
00060A002400
00060A003400
000A06003400
001D0340B400
1FF801FFB400
000000002400
000000002400
ENDCHAR
STARTCHAR uni091D094D092E
ENCODING -1
SWIDTH 936 0
DWIDTH 22 0
BBX 24 16 -1 -1
BITMAP
7FFFFFFFFFFE
0000901800D0
0000901800D0
01BFD01800D0
0380001800D0
0700001800D0
0700001800D0
0340001FFFD0
01FFFFF800D0
0000B01800D0
0600301800D0
0700300000D0
0740700000D0
07BFD00000D0
0600000000D0
060000000000
ENDCHAR
STARTCHAR uni091D094D092F
ENCODING -1
SWIDTH 1000 0
DWIDTH 24 0
BBX 26 16 -1 -1
BITMAP
7FFFFFFFFFFFD0
00009000901C00
00009000601800
01BFD000601800
03800000A01800
0700002F801800
07000034001800
03400034001800
01FFFFF4001800
0000B034002800
0600301D007800
07003007FF9800
07407000001800
07BFD000001800
06000000001800
06000000000000
ENDCHAR
STARTCHAR uni091E094D091B
ENCODING -1
SWIDTH 913 0
DWIDTH 22 0
BBX 24 14 -1 1
BITMAP
7FFFFFFFFFFD
000002800280
000003000280
0BE407000280
001D07003F40
000603000680
0007018000C0
0007FFFC00C0
0007079000C0
0006070000C0
0009070000C0
0FF8030000C0
000002400280
000001BFFE00
ENDCHAR
STARTCHAR uni091E094D091C
ENCODING -1
SWIDTH 932 0
DWIDTH 22 0
BBX 24 15 -1 0
BITMAP
7FFFFFFFFFFE
0000000000D0
0000000000C0
0000000000C0
0000000000C0
0BE800FFFFC0
001A000740C0
00070001C0C0
0003FC01C0C0
00030001C0C0
00060001C0C0
0009000280C0
0FF803FE00C0
0000000000C0
0000000000C0
ENDCHAR
STARTCHAR uni091E094D0936
ENCODING -1
SWIDTH 975 0
DWIDTH 23 0
BBX 25 15 -1 0
BITMAP
7FFFE06F803F80
000000D1D03400
00000180A03400
00000280603400
0BF80280603400
001A0000A03400
00070000D03400
0003FFFF803400
00030340003400
000301C0003400
000600A0003400
00090034003400
0FF8001C003400
0000000A003400
00000003403400
ENDCHAR
STARTCHAR uni091F094D091F
ENCODING -1
SWIDTH 494 0
DWIDTH 12 0
BBX 14 22 -1 -7
BITMAP
7FFFFFD0
00003000
00003000
00BFF000
02900000
07000000
06000000
06000400
06000900
07000D00
03402C00
01BFF400
00003000
00BFF000
02900000
07000000
06000000
06000400
06000900
07000D00
03402800
01BFE000
ENDCHAR
STARTCHAR uni091F094D0920
ENCODING -1
SWIDTH 495 0
DWIDTH 12 0
BBX 14 22 -1 -7
BITMAP
7FFFFFD0
00003000
00003000
00BFF000
02900000
07000000
06000000
06000400
06000900
07000D00
03402C00
01BFF400
00007400
00BFE000
02906800
07000D00
06000900
06000900
06000900
07000D00
02802C00
00BFE400
ENDCHAR
STARTCHAR uni091F094D092F
ENCODING -1
SWIDTH 990 0
DWIDTH 24 0
BBX 25 15 -1 0
BITMAP
7FFFFFFFFFFFC0
00003000002800
00003000002800
00003000002800
00BFFFFF902800
02900000702800
07000000242800
06000000242800
06000000702800
0600041FD02800
0600091C002800
0700090C002800
03801C0A00B800
00BFE402FFA800
00000000002800
ENDCHAR
STARTCHAR uni091F094D0935
ENCODING -1
SWIDTH 501 0
DWIDTH 12 0
BBX 14 17 -1 -2
BITMAP
7FFFFFD0
00003400
00003400
00003400
00BFF400
02900000
07000000
06000100
06000A00
07000A00
03401D00
01FFFC00
02900C00
03000C00
03000C00
03802800
01BFE000
ENDCHAR
STARTCHAR uni0920094D092F
ENCODING -1
SWIDTH 998 0
DWIDTH 24 0
BBX 26 15 -1 0
BITMAP
7FFFFFFFFFFFD0
00003400001800
00002400001800
00007000001800
00BFE1BF901800
02906B40701800
07000E00241800
06000900241800
06000900741800
0600090FD01800
0600091C001800
0700090C002800
03801C0A007800
01BFE402FF9800
00000000001800
ENDCHAR
STARTCHAR uni0921094D0921
ENCODING -1
SWIDTH 493 0
DWIDTH 12 0
BBX 13 22 -1 -7
BITMAP
7FFFFFC0
00003400
00003400
01BFF400
03400000
07000000
03400000
01FFE000
00006800
01001C00
07000C00
03402800
02FFE400
03400000
03000000
03400000
01FFE000
00006800
01001C00
07000C00
03402800
01FFE400
ENDCHAR
STARTCHAR uni0921094D0922
ENCODING -1
SWIDTH 493 0
DWIDTH 12 0
BBX 13 21 -1 -6
BITMAP
7FFFFFC0
00003400
00003400
00003400
01BFF400
03400000
07000000
03400000
01FFE000
00006800
01001C00
07000C00
03402800
01FFE400
02900000
0701F800
06035D00
06060900
07010900
02801D00
00BFF400
ENDCHAR
STARTCHAR uni0921094D092F
ENCODING -1
SWIDTH 973 0
DWIDTH 23 0
BBX 25 15 -1 0
BITMAP
7FFFFFFFFFFF80
00003400003400
00003400003000
00003400003000
01BFFFFF803000
03400001A03000
07000000703000
03400000A03000
01FFE02F803000
00006824003000
00001C28007000
06001C1D01B000
07001C07FF7000
03402800003000
01FFE000003000
ENDCHAR
STARTCHAR uni0921094D0935
ENCODING -1
SWIDTH 493 0
DWIDTH 12 0
BBX 13 18 -1 -3
BITMAP
7FFFFFC0
00003400
00003400
01BFF400
03400000
07000000
03400000
01FFE000
00006800
01001C00
07000C00
03402C00
01FFEC00
02900C00
03400C00
03001C00
02802800
00BFE000
ENDCHAR
STARTCHAR uni0922094D092F
ENCODING -1
SWIDTH 981 0
DWIDTH 24 0
BBX 25 15 -1 0
BITMAP
7FFFFFFFFFFFC0
00003400003400
00003400002400
00003400002400
00BFFFFF802400
02900001A02400
07000000302400
06000000302400
0601B800A02400
06035D2F902400
06060928003400
07010918003400
02801D0D00B400
00BFF406FF6400
00000000002400
ENDCHAR
STARTCHAR uni0923094D091F
ENCODING -1
SWIDTH 908 0
DWIDTH 22 0
BBX 23 14 -1 1
BITMAP
7FFFFFFFFFFC
030070000340
030070000340
030070000340
03007006FF40
030070290000
030070300000
030070700000
034060700000
028090700000
00BF807000A0
000000300090
0000002801D0
0000000BFF40
ENDCHAR
STARTCHAR uni0923094D0920
ENCODING -1
SWIDTH 936 0
DWIDTH 22 0
BBX 24 14 -1 1
BITMAP
7FFFFFFFFFFE
030070000280
030070000280
030070000240
03007006FF00
0300702902C0
030070300090
0300707000A0
034060700060
028090700060
00BF807000A0
0000003000A0
0000002801C0
0000000BFF40
ENDCHAR
STARTCHAR uni0923094D0921
ENCODING -1
SWIDTH 892 0
DWIDTH 21 0
BBX 23 15 -1 0
BITMAP
7FFFFFFFFFF8
030070000340
030070000340
030070000340
0300701BFF00
030070340000
030070700000
030070340000
0340601FFE00
028090000680
00BF800001C0
0000000001C0
0000006001C0
000000340280
0000001FFE00
ENDCHAR
STARTCHAR uni0923094D0922
ENCODING -1
SWIDTH 908 0
DWIDTH 22 0
BBX 23 14 -1 1
BITMAP
7FFFFFFFFFFC
030070000240
030070000240
030070000240
03007006FF40
030070290000
030070300000
030070300000
034060701B80
028090703490
00BF80703060
000000301060
0000002800D0
0000000BFF80
ENDCHAR
STARTCHAR uni0923094D0923
ENCODING -1
SWIDTH 1127 0
DWIDTH 27 0
BBX 29 15 -1 0
BITMAP
7FFFFFFFFFFFFF40
0300701802807000
0300701802807000
0300701802807000
0300701802807000
0300701802807000
0300701802807000
0300701802807000
0340601C02407000
0280900D07407000
00BF8007FD007000
0000000000007000
0000000000007000
0000000000007000
0000000000007000
ENDCHAR
STARTCHAR uni0923094D092E
ENCODING -1
SWIDTH 932 0
DWIDTH 22 0
BBX 24 15 -1 0
BITMAP
7FFFFFFFFFFE
0300702800D0
0300702800C0
0300702800C0
0300702800C0
0300702800C0
0300702800C0
0300702FFFC0
0340602800C0
0280902800C0
00BF801800C0
0000000000C0
0000000000C0
0000000000C0
0000000000C0
ENDCHAR
STARTCHAR uni0923094D092F
ENCODING -1
SWIDTH 998 0
DWIDTH 24 0
BBX 26 15 -1 0
BITMAP
7FFFFFFFFFFFD0
03007001901800
03007000601800
03007000601800
03007000A01800
0300703F801800
03007034001800
03007034001800
03406034001800
02809024002800
00BF801D007800
00000007FFA800
00000000001800
00000000001800
00000000001800
ENDCHAR
STARTCHAR uni0923094D0935
ENCODING -1
SWIDTH 923 0
DWIDTH 22 0
BBX 24 15 -1 0
BITMAP
7FFFFFFFFFFD
0300700001C0
0300700001C0
03007006F1C0
0300701D01C0
0300702401C0
0300703401C0
0300703401C0
0340603401C0
0280903401C0
00BF802401C0
0000001C03C0
0000000BFEC0
0000000001C0
0000000001C0
ENDCHAR
STARTCHAR uni0924094D0915
ENCODING -1
SWIDTH 992 0
DWIDTH 24 0
BBX 25 15 -1 0
BITMAP
7FFFFFFFFFFFC0
00000001800000
00000001800000
000006E19FA000
00001D01E46800
00BFF401C00C00
03907001800D00
07003001800900
06003001800900
06003001800D00
06003402800D00
06002807802800
07000BFA87E000
03400001800000
01F80001800000
ENDCHAR
STARTCHAR uni0924094D0916
ENCODING -1
SWIDTH 1014 0
DWIDTH 24 0
BBX 26 15 -1 0
BITMAP
7FFFFFFFFFFFE0
00000018000D00
00000018000C00
00000018000C00
000000181B4C00
01BFD018740C00
03807434A00C00
07002FE0900C00
06001D00900C00
06000A00A00C00
06000340742C00
060001C01FDC00
060000A0000C00
03400034000C00
01F8001C000C00
ENDCHAR
STARTCHAR uni0924094D0924
ENCODING -1
SWIDTH 542 0
DWIDTH 13 0
BBX 15 15 -1 0
BITMAP
7FFFFFF4
00000600
00000600
00000600
00000600
1FFFFE00
00A40600
01C00600
01C00600
01C00600
01C00600
01C00600
01C00600
00E00600
006E0600
ENDCHAR
STARTCHAR uni0924094D0925
ENCODING -1
SWIDTH 869 0
DWIDTH 21 0
BBX 22 15 -1 0
BITMAP
7FFF06F407F0
00000D1D0A00
00001C090A00
0000180A0A00
000000090A00
0000001C0A00
01BFFFF40A00
038034000A00
070034000A00
060024000A00
06001D001E00
060007FFEA00
060000000A00
034000000A00
01F800000600
ENDCHAR
STARTCHAR uni0924094D092A
ENCODING -1
SWIDTH 757 0
DWIDTH 18 0
BBX 20 15 -1 0
BITMAP
7FFFFFFFFD
00003401C0
00003401C0
00003401C0
00003401C0
01BFF401C0
03803401C0
07003401C0
06002401C0
06001803C0
06000BFDC0
06000001C0
06000001C0
03400001C0
01F80001C0
ENDCHAR
STARTCHAR uni0924094D092B
ENCODING -1
SWIDTH 992 0
DWIDTH 24 0
BBX 25 15 -1 0
BITMAP
7FFFFFFFFFFFC0
00003402800000
00003401800000
00003401AFA000
00003401E46800
01BFF401C00C00
03803401800D00
07003402800900
06002807800900
06000BFA800D00
06000001800C00
06000001802800
0600000187E000
03400001800000
01F80001800000
ENDCHAR
STARTCHAR uni0924094D092E
ENCODING -1
SWIDTH 764 0
DWIDTH 18 0
BBX 20 15 -1 0
BITMAP
7FFFFFFFFE
00002800D0
00002800C0
00002800C0
00002800C0
00BFF800C0
03902800C0
07002FFFC0
06002800C0
06002800C0
06001800C0
06000000C0
07000000C0
03400000C0
01B80000C0
ENDCHAR
STARTCHAR uni0924094D092F
ENCODING -1
SWIDTH 830 0
DWIDTH 20 0
BBX 22 15 -1 0
BITMAP
7FFFFFFFFFD0
000001D01800
000000601800
000000601800
000000601800
000000D01800
01BFFF801800
038034001800
070034001800
060034002800
06001D007800
060007FFA800
060000001800
034000001800
01F800001800
ENDCHAR
STARTCHAR uni0924094D0932
ENCODING -1
SWIDTH 957 0
DWIDTH 23 0
BBX 25 15 -1 0
BITMAP
7FFFFFFFFFFF40
00000000006000
00000000006000
00000000006000
00BF96F86EA000
03807D1AD1E000
0700280340A000
06002803406000
06002803406000
06002803006000
06002800006000
06001800006000
07000D00006000
034007F4006000
01B80000006000
ENDCHAR
STARTCHAR uni0924094D0935
ENCODING -1
SWIDTH 751 0
DWIDTH 18 0
BBX 20 15 -1 0
BITMAP
7FFFFFFFFD
00000001C0
0000000180
000006E180
00001D0180
00BFF40180
0390300180
0700300180
0600300180
0600300180
0600340180
0600280780
07000BFE80
0340000180
01F8000180
ENDCHAR
STARTCHAR uni0924094D0938
ENCODING -1
SWIDTH 876 0
DWIDTH 21 0
BBX 23 15 -1 0
BITMAP
7FFFFFFFFFF4
000000700700
000000700700
000000700700
000000700700
01BF90600700
038070900700
07003FFFFF00
060028000700
06000D000700
06000A000700
060003400700
060001C00700
034000A00700
01F800700700
ENDCHAR
STARTCHAR uni0925094D092F
ENCODING -1
SWIDTH 931 0
DWIDTH 22 0
BBX 22 15 1 0
BITMAP
0BE07FFFFFE0
282800A00D00
341C00300C00
201C00300C00
001800700C00
00282FD00C00
7FE028000C00
A00028000C00
A00028000C00
600018001C00
38007E006C00
0BFFD6FFDC00
000000000C00
000000000C00
000000000C00
ENDCHAR
STARTCHAR uni0925094D0935
ENCODING -1
SWIDTH 862 0
DWIDTH 21 0
BBX 20 15 1 0
BITMAP
0BE07FFFFF
28280000A0
341C0000A0
201C02F8A0
00180A40A0
00281C00A0
7FE01800A0
A0001800A0
A0001800A0
60001800A0
38007C00A0
0BFFDA01E0
000002FEA0
00000000A0
0000000090
ENDCHAR
STARTCHAR uni0926094D0917
ENCODING -1
SWIDTH 489 0
DWIDTH 12 0
BBX 13 18 -1 -3
BITMAP
7FFFFFC0
00002800
00002800
00002800
00BFF800
02900000
07000000
06000000
06000C00
07001C00
03402C00
01BFEC00
00241C00
00241C00
00240C00
00340000
00700000
07900000
ENDCHAR
STARTCHAR uni0926094D0918
ENCODING -1
SWIDTH 686 0
DWIDTH 16 0
BBX 18 16 -1 -1
BITMAP
7FFFFFFFE0
0000000D00
0000000900
0000000D00
00002FFD00
0000D00000
02BF800000
0A42800000
0902800000
0A02800600
03F6800600
0641D00E00
09007FFA00
0900300600
0A00700600
02FFD00000
ENDCHAR
STARTCHAR uni0926094D0926
ENCODING -1
SWIDTH 506 0
DWIDTH 12 0
BBX 14 16 -1 -1
BITMAP
7FFFFFD0
00001C00
00001C00
00001C00
01BFF800
03800000
03000000
03400000
01FF4000
02900000
03000900
03000900
03401D00
01FFF900
00000900
00000900
ENDCHAR
STARTCHAR uni0926094D0927
ENCODING -1
SWIDTH 686 0
DWIDTH 16 0
BBX 18 16 -1 -1
BITMAP
7FFFFFFFE0
0000000D00
0000000900
0000000D00
00006FFD00
0000D00000
02A1800000
0A42800000
0902800000
0A02800600
03F6800600
0641D00E00
09007FFA00
0900300600
0A00700600
02FFD00000
ENDCHAR
STARTCHAR uni0926094D092C
ENCODING -1
SWIDTH 481 0
DWIDTH 12 0
BBX 13 18 -1 -3
BITMAP
7FFFFFC0
00002800
00002800
00002800
00BFF800
02900000
07000000
06000000
06000000
06000C00
07001C00
03802C00
01FFEC00
02B40C00
031D0C00
03025800
0340B800
01BFE000
ENDCHAR
STARTCHAR uni0926094D092D
ENCODING -1
SWIDTH 499 0
DWIDTH 12 0
BBX 14 19 -1 -4
BITMAP
7FFFFFD0
00001800
00001800
00AFF800
02900000
03000000
07000000
07001800
03001800
02803800
00BFE800
0E001800
01801800
00C01800
00D01800
00FFF800
00D01800
00901800
00001800
ENDCHAR
STARTCHAR uni0926094D092E
ENCODING -1
SWIDTH 706 0
DWIDTH 17 0
BBX 19 16 -1 -1
BITMAP
7FFFFFFFF4
0000700A00
0000700600
01BFF00600
0380000600
0600000600
0A00000600
0900300600
0A00300600
0340B00600
01FFB00600
00003FFE00
0000340A00
0000300600
0000000600
0000000500
ENDCHAR
STARTCHAR uni0926094D092F
ENCODING -1
SWIDTH 583 0
DWIDTH 14 0
BBX 16 15 -1 0
BITMAP
7FFFFFFD
00034180
00034180
00BF0180
02800180
03000180
03000180
03400180
01FD0180
02800180
03000180
03000180
03400780
01FFFE80
00000180
ENDCHAR
STARTCHAR uni0926094D0935
ENCODING -1
SWIDTH 483 0
DWIDTH 12 0
BBX 13 18 -1 -3
BITMAP
7FFFFFC0
00002800
00002800
00002800
00BFF800
02900000
07000000
06000000
06000000
06000C00
07001C00
03802C00
01FFEC00
02901C00
03001C00
03001800
02802800
01BFE000
ENDCHAR
STARTCHAR uni0927094D092E
ENCODING -1
SWIDTH 817 0
DWIDTH 20 0
BBX 21 15 -1 0
BITMAP
7FF82FFFFFC0
038007002800
070007002400
070007002400
070007002400
034007002400
01FE07002400
028007FFF400
070007002400
070007002400
070007002400
03400A002400
01BFF8002400
000000002400
000000002400
ENDCHAR
STARTCHAR uni0927094D092F
ENCODING -1
SWIDTH 886 0
DWIDTH 21 0
BBX 23 15 -1 0
BITMAP
7FF82FFFFFF8
038000280300
0700000C0300
0700000C0300
0300002C0300
02400BE40300
01FE0A000300
03800A000300
07000A000300
070006000700
030007401F00
03400EBFF700
01BFF4000300
000000000300
000000000300
ENDCHAR
STARTCHAR uni0927094D0935
ENCODING -1
SWIDTH 810 0
DWIDTH 19 0
BBX 21 15 -1 0
BITMAP
7FF82FFFFF80
038000003400
070000003400
070000BD3400
070003903400
034006003400
01FE0A003400
02800A003400
07000A003400
07000A003400
07000A003400
03400B40B400
01BFF9FFB400
000000003400
000000003400
ENDCHAR
STARTCHAR uni0928094D0915
ENCODING -1
SWIDTH 973 0
DWIDTH 23 0
BBX 25 15 -1 0
BITMAP
7FFFFFFFFFFF80
00000003400000
00000003400000
00000BD36F9000
00003903D07400
00006003402800
06FFE003401800
0E00A003401C00
0C00A003401C00
0D00A003401C00
05006003401800
0000340B407400
00001FFB4FD000
00000003400000
00000003400000
ENDCHAR
STARTCHAR uni0928094D091A
ENCODING -1
SWIDTH 820 0
DWIDTH 20 0
BBX 21 15 -1 0
BITMAP
7FFFFFFFFFC0
000000002800
000000002400
000000002400
0000BFF82400
00000A402400
00000C002400
06FF5C002400
0D001C002400
0C001C002400
0D000E007400
000002FFA400
000000002400
000000002400
000000002400
ENDCHAR
STARTCHAR uni0928094D091B
ENCODING -1
SWIDTH 781 0
DWIDTH 19 0
BBX 20 14 -1 1
BITMAP
7FFFFFFFFF
0000D000D0
0001C00090
0001800090
0001801FD0
0001C001A0
02FFD00070
0A00BF0030
0D01E00030
0901C00030
0501800030
0001C00070
0000D00090
00007FFF80
ENDCHAR
STARTCHAR uni0928094D091F
ENCODING -1
SWIDTH 715 0
DWIDTH 17 0
BBX 19 14 -1 1
BITMAP
7FFFFFFFF4
0000000A00
0000000A00
0000000A00
00001BFE00
0000340000
06FFE00000
0D00D00000
0C00D00000
0D00D00080
0400D001C0
0000900180
0000740240
00001FFE00
ENDCHAR
STARTCHAR uni0928094D0921
ENCODING -1
SWIDTH 705 0
DWIDTH 17 0
BBX 19 15 -1 0
BITMAP
7FFFFFFFF4
0000000600
0000000600
0000000600
00002BFE00
0000640000
06FFD00000
0D00A00000
0C002FF900
0900000700
0000000240
0000500240
0000900240
0000A00740
00002FFD00
ENDCHAR
STARTCHAR uni0928094D0924
ENCODING -1
SWIDTH 717 0
DWIDTH 17 0
BBX 19 15 -1 0
BITMAP
7FFFFFFFF8
0000000700
0000000300
0000000300
0000000300
00002BFF00
06FFE40700
0D00D00300
0C00C00300
0D00C00300
0400C00300
0000C00300
0000C00300
0000A00300
00002F0300
ENDCHAR
STARTCHAR uni0928094D0925
ENCODING -1
SWIDTH 804 0
DWIDTH 19 0
BBX 21 15 -1 0
BITMAP
7FF42F803F80
0000A0A03000
000090703000
000090703000
000000703000
000000A03000
06FFFF803000
0D0280003000
0C0180003000
0D01C0007000
0000E001F000
00002FFF7000
000000003000
000000003000
000000003000
ENDCHAR
STARTCHAR uni0928094D0926
ENCODING -1
SWIDTH 724 0
DWIDTH 17 0
BBX 19 15 -1 0
BITMAP
7FFFFFFFF8
0000000340
0000000340
0000000340
00001BFF40
0000740000
06FFE00000
0D00900000
0C00900000
0D00900280
0400A00280
0000740780
00001FFE80
0000000280
0000000280
ENDCHAR
STARTCHAR uni0928094D0927
ENCODING -1
SWIDTH 753 0
DWIDTH 18 0
BBX 20 15 -1 0
BITMAP
7FFFFD2FFD
0001D001C0
00028001C0
00028001C0
00028001C0
0001D001C0
06FFFF41C0
0D01D001C0
0C028001C0
0D028001C0
00028001C0
0001D007C0
00007FFEC0
00000001C0
00000001C0
ENDCHAR
STARTCHAR uni0928094D092A
ENCODING -1
SWIDTH 742 0
DWIDTH 18 0
BBX 19 15 -1 0
BITMAP
7FFFFFFFFC
0000700280
0000700280
0000700280
0000700280
0000700280
02FFF00280
0A00700280
0D00300280
0D00280780
09000BFA80
0000000280
0000000280
0000000280
0000000280
ENDCHAR
STARTCHAR uni0928094D092B
ENCODING -1
SWIDTH 970 0
DWIDTH 23 0
BBX 25 15 -1 0
BITMAP
7FFFFFFFFFFF80
0000A003400000
00006003000000
000060036F9000
00006003D07000
00006003402800
06FFE003001800
0D006003001800
0C00740B001800
09001FF7001800
00000003002800
00000003007400
000000030FD000
00000003000000
00000003000000
ENDCHAR
STARTCHAR uni0928094D092D
ENCODING -1
SWIDTH 739 0
DWIDTH 18 0
BBX 19 15 -1 0
BITMAP
7FFF803FFC
0000A00280
0000300280
0000300280
0000300280
0000300280
02FFF00280
0A007FFF80
0D00300280
0900300280
0900300280
0000000280
0000000280
0000000280
0000000280
ENDCHAR
STARTCHAR uni0928094D092E
ENCODING -1
SWIDTH 735 0
DWIDTH 18 0
BBX 19 15 -1 0
BITMAP
7FFFFFFFFC
0000700240
0000700240
0000700240
0000700240
0000700240
02FFF00240
0A007FFF40
0D00700240
0900700240
0900600240
0000000240
0000000240
0000000240
0000000240
ENDCHAR
STARTCHAR uni0928094D092F
ENCODING -1
SWIDTH 801 0
DWIDTH 19 0
BBX 21 15 -1 0
BITMAP
7FFFFFFFFF80
000002807000
000000C03000
000000C03000
000002803000
06FFFE403000
0D00A0003000
0C0090003000
0D00A0003000
0400A0007000
00003401F000
00001BFF7000
000000003000
000000003000
000000003000
ENDCHAR
STARTCHAR uni0928094D0935
ENCODING -1
SWIDTH 732 0
DWIDTH 18 0
BBX 19 15 -1 0
BITMAP
7FFFFFFFFC
0000000240
0000000240
00000BD240
0000290240
0000700240
06FFE00240
0E00A00240
0C00A00240
0D00A00240
0400600340
0000340B40
00001BFA40
0000000240
0000000240
ENDCHAR
STARTCHAR uni0928094D0938
ENCODING -1
SWIDTH 867 0
DWIDTH 21 0
BBX 22 15 -1 0
BITMAP
7FFFFFFFFFF0
000000A00A00
000000A00A00
000000A00A00
000000A00A00
000000A00A00
06FF91D00A00
0D007FFFFE00
0C0038000A00
09001C000A00
00000A000A00
000003400A00
000002800A00
000000D00A00
000000700A00
ENDCHAR
STARTCHAR uni0928094D0939
ENCODING -1
SWIDTH 714 0
DWIDTH 17 0
BBX 19 16 -1 -1
BITMAP
7FFFFFFFF4
0000000700
0000000300
0000000700
00001BFF00
0000740000
06FFE00000
0A00700000
0D002FF900
0900340700
0000600340
0000A00240
0000A00000
0000600000
0000340000
00001FFF00
ENDCHAR
STARTCHAR uni092A094D091F
ENCODING -1
SWIDTH 489 0
DWIDTH 12 0
BBX 13 15 -1 0
BITMAP
7FFFFFC0
07001C00
03001C00
03001C00
03001C00
03001C00
02801C00
00FFF800
03900000
07000000
06000400
06000900
07000900
03801C00
01BFE400
ENDCHAR
STARTCHAR uni092A094D0920
ENCODING -1
SWIDTH 506 0
DWIDTH 12 0
BBX 14 15 -1 0
BITMAP
7FFFFFD0
07000D00
03000D00
03000D00
03000D00
03000C00
02802800
01FFF400
03802C00
07000D00
06000900
06000900
07000D00
03801C00
01BFE400
ENDCHAR
STARTCHAR uni092A094D0924
ENCODING -1
SWIDTH 495 0
DWIDTH 12 0
BBX 14 15 -1 0
BITMAP
7FFFFFD0
07002800
07001800
07001800
07001800
03001800
02801800
01FFF800
03802800
07001800
06001800
06001800
06001800
03401800
01F81800
ENDCHAR
STARTCHAR uni092A094D092A
ENCODING -1
SWIDTH 770 0
DWIDTH 18 0
BBX 20 15 -1 0
BITMAP
7FFFFFFFFE
03402800D0
03002800D0
03002800D0
03002800D0
03002800D0
03002800D0
03002800D0
03402800D0
02807D02D0
00BFD7FED0
00000000D0
00000000D0
00000000D0
00000000D0
ENDCHAR
STARTCHAR uni092A094D092B
ENCODING -1
SWIDTH 1003 0
DWIDTH 24 0
BBX 26 15 -1 0
BITMAP
7FFFFFFFFFFFD0
03402401C00000
03002401C00000
03002401DBE000
03002401E46C00
03002401C00900
03002401C00A00
03002401C00A00
03402801C00A00
02807D02C00A00
00BFD7FDC00900
00000001C01C00
00000001C7F400
00000001C00000
00000001C00000
ENDCHAR
STARTCHAR uni092A094D092E
ENCODING -1
SWIDTH 774 0
DWIDTH 19 0
BBX 20 15 -1 0
BITMAP
7FFFFFFFFF
03401C0090
03001C0090
03001C0090
03001C0090
03001C0090
03001C0090
03401FFFD0
02806C00D0
00BFEC0090
0000180090
0000000090
0000000090
0000000090
0000000090
ENDCHAR
STARTCHAR uni092A094D092F
ENCODING -1
SWIDTH 855 0
DWIDTH 21 0
BBX 22 15 -1 0
BITMAP
7FFFFFFFFFE0
034000600D00
030000340D00
030000340D00
030000700D00
03001FD00D00
030018000D00
030018000D00
034018000D00
02807C000D00
00BFDE002D00
000006FFED00
000000000D00
000000000D00
000000000900
ENDCHAR
STARTCHAR uni092A094D0932
ENCODING -1
SWIDTH 960 0
DWIDTH 23 0
BBX 25 15 -1 0
BITMAP
7FFFFFFFFFFF40
03400000007000
03000000006000
03000000006000
030002F86E6000
03000E5AD1E000
03001C03406000
03001803406000
03401803406000
02807803406000
00BFE801006000
00001800006000
00000D00006000
000007F4006000
00000000006000
ENDCHAR
STARTCHAR uni092A094D0935
ENCODING -1
SWIDTH 780 0
DWIDTH 19 0
BBX 20 15 -1 0
BITMAP
7FFFFFFFFF
03400000A0
03000000A0
030002F8A0
03000A40A0
03000C00A0
03001800A0
03001800A0
03401800A0
02807800A0
00BFEC00A0
00000E01E0
000006FEA0
00000000A0
00000000A0
ENDCHAR
STARTCHAR uni092A094D0938
ENCODING -1
SWIDTH 880 0
DWIDTH 21 0
BBX 23 15 -1 0
BITMAP
7FFFFFFFFFF4
034000700700
030000700700
030000700700
030000700700
030000700700
030000A00700
03002FFFFF00
034028000700
02807D000700
00BFDB000700
000003400700
000001C00700
000000A00700
000000700700
ENDCHAR
STARTCHAR uni092B094D091C
ENCODING -1
SWIDTH 1100 0
DWIDTH 26 0
BBX 28 15 -1 0
BITMAP
7FFFFFFFFFFFFE
034028000000D0
030028000000D0
030028000000D0
03002AFC3FFFD0
03002E400740D0
030028000180D0
0340280001C0D0
0280780001C0D0
00BFA80001C0D0
000028000180D0
000028000280D0
00002807FE00D0
000028000000D0
000028000000D0
ENDCHAR
STARTCHAR uni092B094D091F
ENCODING -1
SWIDTH 1006 0
DWIDTH 24 0
BBX 26 15 -1 0
BITMAP
7FFFFFFFFFFFD0
03402800002800
03002800002800
03002AFE002800
03002E46AFF800
03002801D00000
03002802400000
03402803400000
02807803400000
00BFE803400300
00002803400700
00002802400600
00002801D00D00
000028007FF800
00002800000000
ENDCHAR
STARTCHAR uni092B094D0924
ENCODING -1
SWIDTH 1034 0
DWIDTH 25 0
BBX 26 15 -1 0
BITMAP
7FFFFFFFFFFFF0
03402800000A00
03002800000A00
03002800000A00
03002AFE000A00
03002D06EFFE00
03002800E00A00
03402801800A00
02807801800A00
00BFA802800A00
00002802800A00
00002801800A00
00002801800A00
00002800D00A00
000028007E0A00
ENDCHAR
STARTCHAR uni092B094D092A
ENCODING -1
SWIDTH 1021 0
DWIDTH 25 0
BBX 26 15 -1 0
BITMAP
7FFFFFFFFFFFE0
03402802800D00
03002802800D00
03002802800D00
03002AFF800D00
03002E42800D00
03002802800D00
03002802800D00
03402801800D00
02807800D02D00
00BFA8007FED00
00002800000D00
00002800000D00
00002800000D00
00002800000D00
ENDCHAR
STARTCHAR uni092B094D092B
ENCODING -1
SWIDTH 1256 0
DWIDTH 30 0
BBX 32 15 -1 0
BITMAP
7FFFFFFFFFFFFFFD
03402802801C0000
03002802800C0000
03002802800DBE00
03002AFF800E46C0
03002E42800D0090
03002802800C00A0
03402802801C00A0
02807801D02C00A0
00BFA8007FDC00A0
00002800000C0090
00002800000C01C0
00002800000C7F40
00002800000C0000
00002800000C0000
ENDCHAR
STARTCHAR uni092B094D092F
ENCODING -1
SWIDTH 1120 0
DWIDTH 27 0
BBX 28 15 -1 0
BITMAP
7FFFFFFFFFFFFE
034028000A01C0
030028000300C0
030028000300C0
030028000A00C0
03002AFFF800C0
03002E428000C0
034028024000C0
028078024001C0
00BFA8028001C0
00002800D007C0
000028006FFDC0
000028000000C0
000028000000C0
000028000000C0
ENDCHAR
STARTCHAR uni092B094D0932
ENCODING -1
SWIDTH 1202 0
DWIDTH 29 0
BBX 30 15 -1 0
BITMAP
7FFFFFFFFFFFFFF0
0340280000000A00
0300280000000A00
03002AFE00000A00
03002E46AE47EA00
03002801D1A91E00
0300280280740A00
0340280280300A00
0280780240300A00
00BFA80240200A00
0000280240000A00
0000280280000A00
00002801D0000A00
000028007F400A00
0000280000000600
ENDCHAR
STARTCHAR uni092B094D0936
ENCODING -1
SWIDTH 1211 0
DWIDTH 29 0
BBX 31 15 -1 0
BITMAP
7FFFFFFF0BE407F4
03402800181C0700
03002800240D0700
0300280034090700
03002AF924090700
03002E07000D0700
03002802401C0700
03402802FFF40700
02807801D0000700
00BFA800A0000700
0000280034000700
000028001C000700
000028000A000700
0000280003400700
0000280001C00700
ENDCHAR
STARTCHAR uni092C094D091C
ENCODING -1
SWIDTH 883 0
DWIDTH 21 0
BBX 23 15 -1 0
BITMAP
7FFFFFFFFFF4
000000000700
000000000700
000000000700
00BE00000700
038007FFFF00
0790001D0700
0634000A0700
060D00060700
060700060700
0601C0060700
0340600D0700
01FFFFF80700
000000000700
000000000300
ENDCHAR
STARTCHAR uni092C094D091D
ENCODING -1
SWIDTH 962 0
DWIDTH 23 0
BBX 25 17 -1 -2
BITMAP
7FFFFFFFFFFF40
00000002807000
00000002807000
00BE06FF807000
02901D00007000
07D01800007000
06701800007000
061C1C00007000
06071FFFFFF000
0601A801D07000
06007400D07000
03407000D07000
01BFD900D07000
00000A01C07000
00000AFF402000
00000900000000
00000900000000
ENDCHAR
STARTCHAR uni092C094D0924
ENCODING -1
SWIDTH 786 0
DWIDTH 19 0
BBX 21 15 -1 0
BITMAP
7FFFFFFFFF40
00000000A000
00000000A000
00BE0000A000
02900000A000
078002FFE000
06600E00A000
06181C00A000
06061800A000
06019800A000
0600B800A000
03407800A000
01BFE800A000
00000D00A000
000007E06000
ENDCHAR
STARTCHAR uni092C094D0926
ENCODING -1
SWIDTH 775 0
DWIDTH 19 0
BBX 20 15 -1 0
BITMAP
7FFFFFFFFF
00000000A0
0000000090
00BE000090
029002FFD0
07800E4000
06601C0000
0618180000
060A180000
0602980060
0600BC0070
03407D00B0
01BFD7FFB0
0000000070
0000000060
ENDCHAR
STARTCHAR uni092C094D0927
ENCODING -1
SWIDTH 844 0
DWIDTH 20 0
BBX 22 15 -1 0
BITMAP
7FFFFFD2FFE0
00000D001C00
000018000C00
00BE18000C00
029018000C00
07C00D000C00
066007F40C00
06180D000C00
060618000C00
060298000C00
0600B8001C00
03407D002C00
01BFDBFFEC00
000000000C00
000000000C00
ENDCHAR
STARTCHAR uni092C094D092C
ENCODING -1
SWIDTH 783 0
DWIDTH 19 0
BBX 20 15 -1 0
BITMAP
7FFFFFFFFF
00000000A0
00000000A0
00BE02F8A0
02900A40A0
07C01F40A0
066019C0A0
06181870A0
06061818A0
06019806A0
0600BC01E0
03407D01E0
01BFD7FEA0
00000000A0
00000000A0
ENDCHAR
STARTCHAR uni092C094D092D
ENCODING -1
SWIDTH 764 0
DWIDTH 18 0
BBX 20 15 -1 0
BITMAP
7FFFD01FFE
00007400D0
00002800C0
00BE2800C0
02902800C0
07C02800C0
06602800C0
06182FFFC0
060A2800C0
0602A800C0
0600B800C0
03407400C0
01BFD000C0
00000000C0
00000000C0
ENDCHAR
STARTCHAR uni092C094D092F
ENCODING -1
SWIDTH 852 0
DWIDTH 20 0
BBX 22 15 -1 0
BITMAP
7FFFFFFFFFE0
000000600D00
000000340D00
00BE00340D00
029000700D00
07901FD00D00
062418000D00
060918000D00
060258000D00
0600AC000D00
06003E002D00
034062FFDD00
01BF80000D00
000000000D00
000000000D00
ENDCHAR
STARTCHAR uni092C094D0932
ENCODING -1
SWIDTH 961 0
DWIDTH 23 0
BBX 25 15 -1 0
BITMAP
7FFFFFFFFFFF40
00000000007000
00000000007000
00BE0000007000
038002F86E7000
07900E5AD1F000
06301C03407000
06181803407000
06061803407000
06019803407000
06007801007000
03407800007000
01BFDD00007000
000007F4007000
00000000007000
ENDCHAR
STARTCHAR uni092C094D0935
ENCODING -1
SWIDTH 776 0
DWIDTH 19 0
BBX 20 15 -1 0
BITMAP
7FFFFFFFFF
0000000090
0000000090
00BE02F490
02900A4090
07C01C0090
0670180090
0618180090
0606180090
0602980090
0600BC00D0
03407D01D0
01BFD6FE90
0000000090
0000000090
ENDCHAR
STARTCHAR uni092C094D0936
ENCODING -1
SWIDTH 926 0
DWIDTH 22 0
BBX 24 15 -1 0
BITMAP
7FFF42FD00FE
0000074740C0
0000090240C0
00BE090280C0
0290040280C0
0790000240C0
0630000740C0
061C1FFD00C0
06071D0000C0
0601AF0000C0
0600768000C0
034071D000C0
01BF90A000C0
0000003400C0
0000001C00C0
ENDCHAR
STARTCHAR uni092C094D0938
ENCODING -1
SWIDTH 897 0
DWIDTH 22 0
BBX 23 15 -1 0
BITMAP
7FFFFFFFFFFC
000000340340
000000240240
00BE00240240
029000240240
07C000340240
067000700240
06181FFFFF40
06061D000340
0601AE000240
060077400240
034071C00240
01BF90900240
000000700240
000000280240
ENDCHAR
STARTCHAR uni092D094D092F
ENCODING -1
SWIDTH 827 0
DWIDTH 20 0
BBX 22 15 -1 0
BITMAP
7803FFFFFFD0
0A0001D02800
030000A01800
030000A01800
030000901800
03003F801800
030034001800
03FFF0001800
034030002800
030034002800
02002D007800
000007FFA800
000000001800
000000001800
000000001800
ENDCHAR
STARTCHAR uni092D094D0932
ENCODING -1
SWIDTH 941 0
DWIDTH 23 0
BBX 24 15 -1 0
BITMAP
7803FFFFFFFF
0A0000000090
030000000090
030000000090
030006E4BE90
03001D1E96D0
0300240B00D0
03FFF4060090
034034060090
030034060090
030034010090
000034000090
000028000090
00000BF00090
000000000090
ENDCHAR
STARTCHAR uni092D094D0935
ENCODING -1
SWIDTH 755 0
DWIDTH 18 0
BBX 20 15 -1 0
BITMAP
7803FFFFFD
0A000001C0
03000001C0
030006F1C0
03001D01C0
03002401C0
03003401C0
03FFF401C0
03403401C0
03003401C0
03003401C0
00001C03C0
00000BFEC0
00000001C0
00000001C0
ENDCHAR
STARTCHAR uni092E094D0924
ENCODING -1
SWIDTH 765 0
DWIDTH 18 0
BBX 20 15 -1 0
BITMAP
7FFFFFFFFE
03000000D0
03000000C0
03000000C0
03000000C0
030006FFC0
03001D00C0
03FFF400C0
03403400C0
03003400C0
03003400C0
00003400C0
00003400C0
00002800C0
00000BC0C0
ENDCHAR
STARTCHAR uni092E094D0926
ENCODING -1
SWIDTH 766 0
DWIDTH 18 0
BBX 20 15 -1 0
BITMAP
7FFFFFFFFE
03000000D0
03000000D0
03000000D0
030006FFD0
03001D0000
0300280000
03FFF40000
0340240000
0300240060
03002800A0
00001D00E0
000007FFA0
00000000A0
0000000060
ENDCHAR
STARTCHAR uni092E094D092A
ENCODING -1
SWIDTH 762 0
DWIDTH 18 0
BBX 20 15 -1 0
BITMAP
7FFFFFFFFE
03003400C0
03002400C0
03002400C0
03002400C0
03002400C0
03002400C0
03FFF400C0
03402401C0
03001D02C0
030007FDC0
00000000C0
00000000C0
00000000C0
00000000C0
ENDCHAR
STARTCHAR uni092E094D092C
ENCODING -1
SWIDTH 768 0
DWIDTH 18 0
BBX 20 15 -1 0
BITMAP
7FFFFFFFFE
03000000D0
03000000D0
030006F4D0
03000D00D0
03002E00D0
03002680D0
03FFF4A0D0
03403424D0
03003409D0
03002402D0
00001D02D0
000007FDD0
00000000D0
00000000D0
ENDCHAR
STARTCHAR uni092E094D092D
ENCODING -1
SWIDTH 768 0
DWIDTH 18 0
BBX 20 15 -1 0
BITMAP
7FFFE01FFE
03007400D0
03001800D0
03001800D0
03001800D0
03001800D0
03001800D0
03FFFFFFD0
03401800D0
03001800D0
03001800D0
00000000D0
00000000D0
00000000D0
00000000D0
ENDCHAR
STARTCHAR uni092E094D092E
ENCODING -1
SWIDTH 759 0
DWIDTH 18 0
BBX 20 15 -1 0
BITMAP
7FFFFFFFFE
03002801C0
03002800C0
03002800C0
03002800C0
03002800C0
03002800C0
03FFFFFFC0
03402801C0
03002800C0
03002400C0
00000000C0
00000000C0
00000000C0
00000000C0
ENDCHAR
STARTCHAR uni092E094D092F
ENCODING -1
SWIDTH 834 0
DWIDTH 20 0
BBX 22 15 -1 0
BITMAP
7FFFFFFFFFD0
030000901C00
030000601800
030000601800
030000A01800
03002F801800
030034001800
03FFF4001800
034034001800
030024002800
02001D007800
000007FF9800
000000001800
000000001800
000000001800
ENDCHAR
STARTCHAR uni092E094D0932
ENCODING -1
SWIDTH 945 0
DWIDTH 23 0
BBX 24 15 -1 0
BITMAP
7FFFFFFFFFFF
0300000000A0
0300000000A0
0300000000A0
030006E4BEA0
03001D1E92E0
0300240700E0
03FFF40700A0
0340340700A0
0300340700A0
0300340100A0
0000240000A0
00001D0000A0
00000BF000A0
000000000090
ENDCHAR
STARTCHAR uni092E094D0935
ENCODING -1
SWIDTH 761 0
DWIDTH 18 0
BBX 20 15 -1 0
BITMAP
7FFFFFFFFE
03000000C0
03000000C0
030006F0C0
03000D00C0
03002800C0
03002400C0
03FFF400C0
03403400C0
03003400C0
03002801C0
00001D02C0
000007FDC0
00000000C0
00000000C0
ENDCHAR
STARTCHAR uni092E094D0936
ENCODING -1
SWIDTH 884 0
DWIDTH 21 0
BBX 23 15 -1 0
BITMAP
7FFD0BF403F8
03001D1D0300
030024090300
0300240A0300
0300100A0300
030000090300
0300001D0300
03FFFFF40300
034074000300
030018000300
030009000300
010007000300
000002800300
000000D00300
000000700300
ENDCHAR
STARTCHAR uni092E094D0938
ENCODING -1
SWIDTH 816 0
DWIDTH 20 0
BBX 21 15 -1 0
BITMAP
7FFFFFFFFFC0
030002402400
030002402400
030002402400
030002402400
030002402400
030007002400
03FFFFFFF400
0341D0002400
0300A0002400
030034002400
00001C002400
00000A002400
000007002400
000002802400
ENDCHAR
STARTCHAR uni092E094D0939
ENCODING -1
SWIDTH 758 0
DWIDTH 18 0
BBX 20 16 -1 -1
BITMAP
7FFFFFFFFD
03000000C0
03000000C0
03000000C0
030006FFC0
03001D0000
0300180000
03FFFC0000
03000BFE40
03000E01C0
0200180090
0000280090
0000280000
0000180000
00000D0000
000006FFC0
ENDCHAR
STARTCHAR uni092F094D092F
ENCODING -1
SWIDTH 897 0
DWIDTH 22 0
BBX 23 15 -1 0
BITMAP
7FFFFFFFFFF8
001800180340
000D000D0240
000D000D0240
001C001C0240
07F407F40240
060006000240
060006000240
060006000340
070007000340
02801B800B40
00BFF4BFF640
000000000240
000000000240
000000000240
ENDCHAR
STARTCHAR uni0930094D092F
ENCODING -1
SWIDTH 713 0
DWIDTH 17 0
BBX 19 15 -1 0
BITMAP
7FFFFFFFF4
0000640700
00001C0700
00001C0700
00001C0700
2800280700
0BFFE00700
0009000700
0009000700
0009000700
0007401F00
0001FFF700
0000000700
0000000700
0000000700
ENDCHAR
STARTCHAR uni0930094D0939
ENCODING -1
SWIDTH 619 0
DWIDTH 15 0
BBX 16 16 -1 -1
BITMAP
7FFFFFFF
00000060
00000060
00000060
0002FFE0
28064000
0BFD0000
000A0000
0002FF80
000741A0
00090030
000D0030
000D0010
00090000
00074000
0001FFE0
ENDCHAR
STARTCHAR uni0932094D0915
ENCODING -1
SWIDTH 1182 0
DWIDTH 28 0
BBX 30 15 -1 0
BITMAP
7FFFFFFFFFFFFFE0
0000000000D00000
0000000000D00000
00000006F4DBE400
00BE1B9E40F41D00
0296B47800D00600
0300E02800D00700
0700902800D00700
0700902800D00700
0700902800D00700
0700401800D00600
0700000D02D01D00
03800006FED3F400
01BE000000D00000
0000000000D00000
ENDCHAR
STARTCHAR uni0932094D0916
ENCODING -1
SWIDTH 1195 0
DWIDTH 29 0
BBX 30 15 -1 0
BITMAP
7FFFFFFFFFFFFFF0
000000000D000A00
000000000C000900
000000000C000900
00BE1B900C0B8900
0296B4740C290900
0300E01828700900
0700901FE4600900
0700900E00600900
0700900700700900
0700500280341D00
07000000D01BE900
0380000070000900
01BE000028000900
000000000D000900
ENDCHAR
STARTCHAR uni0932094D0917
ENCODING -1
SWIDTH 950 0
DWIDTH 23 0
BBX 24 15 -1 0
BITMAP
7FFFFFFFFFFF
0000000340A0
0000000340A0
0000000340A0
00BE1B8340A0
0296B40340A0
0300E00340A0
0700900340A0
0700900700A0
070090B900A0
0700400000A0
0700000000A0
0380000000A0
01BE000000A0
0000000000A0
ENDCHAR
STARTCHAR uni0932094D091C
ENCODING -1
SWIDTH 1035 0
DWIDTH 25 0
BBX 27 15 -1 0
BITMAP
7FFFFFFFFFFFF4
00000000000A00
00000000000A00
00000000000A00
00BE1B87FFFE00
0296B400680A00
0300E0000D0A00
07009000090A00
07009000090A00
07009000090A00
070000000D0A00
070000001C0A00
0380007FF40A00
01BE0000000A00
00000000000600
ENDCHAR
STARTCHAR uni0932094D091F
ENCODING -1
SWIDTH 929 0
DWIDTH 22 0
BBX 24 14 -1 1
BITMAP
7FFFFFFFFFFE
000000000180
000000000180
000000000180
00BE1B96FF80
0296B46D0000
0300E0280000
070090240000
070090240000
070090240020
070000240030
070000280070
0380001D00A0
01BE0007FF80
ENDCHAR
STARTCHAR uni0932094D0920
ENCODING -1
SWIDTH 953 0
DWIDTH 23 0
BBX 25 14 -1 1
BITMAP
7FFFFFFFFFFF40
0000000001C000
0000000001C000
00000000018000
00BE1B96FF4000
0296B47D01D000
0300E028007000
07009024003000
07009024003000
07009024003000
07000024003000
07000024007000
0380001D00A000
01BE0007FF8000
ENDCHAR
STARTCHAR uni0932094D0921
ENCODING -1
SWIDTH 916 0
DWIDTH 22 0
BBX 24 15 -1 0
BITMAP
7FFFFFFFFFFD
000000000180
000000000180
000000000180
00BE1B9BFF80
0296B47D0000
0300E0280000
070090180000
0700900BFE40
0700900001D0
070000000090
070000140090
038000240090
01BE001801D0
0000000BFF40
ENDCHAR
STARTCHAR uni0932094D0922
ENCODING -1
SWIDTH 924 0
DWIDTH 22 0
BBX 24 14 -1 1
BITMAP
7FFFFFFFFFFD
000000000180
000000000180
000000000180
00BE1B96FF80
0296B47D0000
0300E0280000
070090240000
070090240B90
070090242860
070040242430
070000241030
0380001D00A0
01BE0007FF80
ENDCHAR
STARTCHAR uni0932094D0924
ENCODING -1
SWIDTH 929 0
DWIDTH 22 0
BBX 24 15 -1 0
BITMAP
7FFFFFFFFFFE
0000000000C0
0000000000C0
0000000000C0
00BE1B9000C0
0296B47BFFC0
0300E02901C0
0700903400C0
0700903000C0
0700903000C0
0700003000C0
0700003000C0
0380003400C0
01BE002800C0
0000000BC0C0
ENDCHAR
STARTCHAR uni0932094D0925
ENCODING -1
SWIDTH 1061 0
DWIDTH 25 0
BBX 27 15 -1 0
BITMAP
7FFFFF42F802F8
000000074A0340
00000009030340
00000009030340
00BE1B90030340
0296B470030340
0300E0240A0340
0700901FF80340
07009018000340
0700901C000340
0700000A000B40
07000002FFF740
03800000000340
01BE0000000340
00000000000340
ENDCHAR
STARTCHAR uni0932094D0926
ENCODING -1
SWIDTH 939 0
DWIDTH 23 0
BBX 24 15 -1 0
BITMAP
7FFFFFFFFFFF
000000000090
000000000090
000000000090
00BE1B96FFD0
0296B47E4000
0300E0180000
070090280000
070090280000
070090280060
070040180060
0700000D00A0
03800006FFA0
01BE00000060
000000000060
ENDCHAR
STARTCHAR uni0932094D092A
ENCODING -1
SWIDTH 939 0
DWIDTH 23 0
BBX 24 15 -1 0
BITMAP
7FFFFFFFFFFF
000000280090
000000280090
000000280090
00BE1BF80090
0296B4280090
0300E0280090
070090280090
0700901800D0
0700900D02D0
07005007FE90
070000000090
038000000090
01BE00000090
000000000090
ENDCHAR
STARTCHAR uni0932094D092B
ENCODING -1
SWIDTH 1176 0
DWIDTH 28 0
BBX 30 15 -1 0
BITMAP
7FFFFFFFFFFFFFE0
0000002800C00000
0000002800C00000
0000002800DBE400
00BE1BF800F41C00
0296B42800D00A00
0300E02800C00600
0700901800C00600
0700900D02C00600
07005007FDC00600
0700000000C00A00
0700000000C01D00
0380000000C3F400
01BE000000C00000
0000000000C00000
ENDCHAR
STARTCHAR uni0932094D092C
ENCODING -1
SWIDTH 949 0
DWIDTH 23 0
BBX 24 15 -1 0
BITMAP
7FFFFFFFFFFF
0000000000A0
0000000000A0
00000002F8A0
00BE1B9E00A0
0296B47E40A0
0300E018D0A0
0700901870A0
070090181CA0
0700901806A0
0700001C01E0
0700000D01E0
03800006FEA0
01BE000000A0
0000000000A0
ENDCHAR
STARTCHAR uni0932094D092D
ENCODING -1
SWIDTH 931 0
DWIDTH 22 0
BBX 24 15 -1 0
BITMAP
7FFFFFD01FFE
0000007400D0
0000002800C0
0000002800C0
00BE1BF800C0
0296B42800C0
0300E02800C0
0700902FFFC0
0700902800C0
0700902800C0
0700001800C0
0700000000C0
0380000000C0
01BE000000C0
0000000000C0
ENDCHAR
STARTCHAR uni0932094D092E
ENCODING -1
SWIDTH 931 0
DWIDTH 22 0
BBX 24 15 -1 0
BITMAP
7FFFFFFFFFFE
0000002800D0
0000002800C0
0000002800C0
00BE1BF800C0
0296B42800C0
0300E02800C0
0700902FFFC0
0700902800C0
0700902800C0
0700001800C0
0700000000C0
0380000000C0
01BE000000C0
0000000000C0
ENDCHAR
STARTCHAR uni0932094D092F
ENCODING -1
SWIDTH 1033 0
DWIDTH 25 0
BBX 26 15 -1 0
BITMAP
7FFFFFFFFFFFF0
00000000740A00
00000000280A00
00000000280A00
00BE1BA0280A00
0291F468340A00
0700A01FE00A00
0700900C000A00
0700900C000A00
0700000D000A00
0700000A002E00
03400002FFEA00
01BE0000000A00
00000000000A00
00000000000A00
ENDCHAR
STARTCHAR uni0932094D0932
ENCODING -1
SWIDTH 1112 0
DWIDTH 27 0
BBX 28 15 -1 0
BITMAP
7FFFFFFFFFFFFF
000000000000A0
000000000000A0
000000000000A0
00BE1B96E4BEA0
0296B47D1E92E0
0300E0240700E0
070090240700A0
070090240700A0
070090240700A0
070000240000A0
070000240000A0
0380001D0000A0
01BE0007F000A0
00000000000090
ENDCHAR
STARTCHAR uni0932094D0935
ENCODING -1
SWIDTH 940 0
DWIDTH 23 0
BBX 24 15 -1 0
BITMAP
7FFFFFFFFFFF
000000000090
000000000090
00000002F490
00BE1B9E4090
0296B47C0090
0300E0280090
070090280090
070090280090
070090180090
0700401800D0
0700000D02D0
03800006FE90
01BE00000090
000000000090
ENDCHAR
STARTCHAR uni0932094D0938
ENCODING -1
SWIDTH 1068 0
DWIDTH 26 0
BBX 27 15 -1 0
BITMAP
7FFFFFFFFFFFFC
00000000280240
00000000240240
00000000240240
00BE1B90240240
0296B470240240
0300E024700240
0700901FFFFF40
0700900D000240
07009006000240
07000003400240
07000001C00240
03800000A00240
01BE0000740240
00000000280240
ENDCHAR
STARTCHAR uni0932094D0939
ENCODING -1
SWIDTH 922 0
DWIDTH 22 0
BBX 24 16 -1 -1
BITMAP
7FFFFFFFFFFD
0000000001C0
0000000000C0
0000000001C0
00BE1B9AFFC0
0296B46D0000
0300E0180000
0700901C0000
07009007FE40
0700900D01C0
0700001800D0
070000280090
038000280040
01BE00180000
0000000D0000
00000007FFC0
ENDCHAR
STARTCHAR uni0933094D092F
ENCODING -1
SWIDTH 1050 0
DWIDTH 25 0
BBX 27 15 -1 0
BITMAP
7FFFFFFFFFFFF4
00000000280700
000000001C0300
00BE4BE01C0300
0291F46C280300
0700A00FE40300
0600A00A000300
0600A009000300
0600A009000700
0600A00A000700
0700A00F401F00
0341F419BFF700
01BF5BE0000300
00000000000300
00000000000300
ENDCHAR
STARTCHAR uni0935094D092F
ENCODING -1
SWIDTH 852 0
DWIDTH 20 0
BBX 22 15 -1 0
BITMAP
7FFFFFFFFFE0
000000600D00
000000340D00
00BE00340D00
029000700D00
07001FD00D00
060018000D00
060018000D00
060018000D00
06001C000D00
06002E002D00
034062FFDD00
01BF80000D00
000000000D00
000000000D00
ENDCHAR
STARTCHAR uni0935094D0932
ENCODING -1
SWIDTH 961 0
DWIDTH 23 0
BBX 25 15 -1 0
BITMAP
7FFFFFFFFFFF40
00000000007000
00000000007000
00BE0000007000
029002F86E7000
07000E5AD1F000
06001C03407000
06001803407000
06001803407000
06001802407000
06002800007000
03407C00007000
01BFDD00007000
000006F4007000
00000000007000
ENDCHAR
STARTCHAR uni0935094D0935
ENCODING -1
SWIDTH 776 0
DWIDTH 19 0
BBX 20 15 -1 0
BITMAP
7FFFFFFFFF
0000000090
0000000090
00BE02F490
02900A4090
07001C0090
0600180090
0600180090
0600180090
0600180090
06002C00D0
03407D01D0
01BFD6FE90
0000000090
0000000090
ENDCHAR
STARTCHAR uni0935094D0939
ENCODING -1
SWIDTH 754 0
DWIDTH 18 0
BBX 20 16 -1 -1
BITMAP
7FFFFFFFFD
00000001C0
00000001C0
00BE0001C0
029006FFC0
07001D0000
0600280000
06001C0000
06000BFE40
06000D02C0
06002800D0
0340740090
01BFA40050
0000280000
00001D0000
000007FFC0
ENDCHAR
STARTCHAR uni0936094D0915
ENCODING -1
SWIDTH 1093 0
DWIDTH 26 0
BBX 26 15 1 0
BITMAP
1BE03FFFFFFFE0
34280000C00000
700C0000C00000
700C06F0DBE400
000C0D00E41C00
001C2800D00A00
00282400C00600
FFE02400C00600
A0002400C00600
34002400C00600
1C002801C00A00
0A001D02C01D00
034007FDC3F400
01C00000C00000
00A00000C00000
ENDCHAR
STARTCHAR uni0936094D091A
ENCODING -1
SWIDTH 950 0
DWIDTH 23 0
BBX 22 15 1 0
BITMAP
0BE03FFFFFF0
282800000A00
300C00000A00
700C00000A00
700C00000A00
001C3FFF0A00
002802900A00
FFE003000A00
A00007000A00
340003000A00
1C0002801E00
0A0000BFEA00
034000000A00
01C000000A00
00A000000A00
ENDCHAR
STARTCHAR uni0936094D091B
ENCODING -1
SWIDTH 968 0
DWIDTH 23 0
BBX 23 15 1 0
BITMAP
1BE07FFFFFF8
342806400700
701C09000700
701C0D000700
001C0D00BE00
001C09000700
002806000240
FFE003F40240
A0000B400280
34000D000280
1C000D000240
0A0009000240
034006000700
01C002FFF900
009000000000
ENDCHAR
STARTCHAR uni0936094D091F
ENCODING -1
SWIDTH 854 0
DWIDTH 21 0
BBX 20 15 1 0
BITMAP
1BE03FFFFE
34280001C0
700C0001C0
700C0001C0
000C02FFC0
001C0E4000
00281C0000
FFE0180000
A000280000
3400280024
1C00180034
0A00180030
03400D00A0
01C006FF80
00A0000000
ENDCHAR
STARTCHAR uni0936094D0924
ENCODING -1
SWIDTH 864 0
DWIDTH 21 0
BBX 20 15 1 0
BITMAP
1BE03FFFFF
38280000A0
300C0000A0
700C0000A0
200C0000A0
001C06FFE0
00280D00A0
FFE01800A0
A0002800A0
34002800A0
1C002800A0
0A002800A0
03401800A0
01C01D00A0
00A007D0A0
ENDCHAR
STARTCHAR uni0936094D092E
ENCODING -1
SWIDTH 885 0
DWIDTH 21 0
BBX 21 15 1 0
BITMAP
1BE07FFFFF80
38280A007000
300C0A003000
700C0A003000
200C0A003000
001C0A003000
00280A003000
FFE00BFFF000
A0000A007000
34000A003000
1C0005003000
0A0000003000
034000003000
01C000003000
00A000003000
ENDCHAR
STARTCHAR uni0936094D092F
ENCODING -1
SWIDTH 940 0
DWIDTH 23 0
BBX 22 15 1 0
BITMAP
1BE03FFFFFF0
342800600900
700C00240900
700C00240900
000C00700900
001C1FD00900
00281C000900
FFE018000900
A0001C000900
34001C000D00
1C000A002D00
0A0002FFD900
034000000900
01C000000900
00A000000900
ENDCHAR
STARTCHAR uni0936094D0932
ENCODING -1
SWIDTH 1039 0
DWIDTH 25 0
BBX 25 15 1 0
BITMAP
1BE03FFFFFFF40
34280000006000
300C0000006000
700C0000006000
100C06F87EA000
001C0D1A91E000
0028180340A000
FFE02803006000
A0002803006000
34002803006000
1C002800006000
0A001800006000
03400D00006000
01C007F4006000
00A00000006000
ENDCHAR
STARTCHAR uni0936094D0935
ENCODING -1
SWIDTH 850 0
DWIDTH 20 0
BBX 20 15 1 0
BITMAP
1BE03FFFFE
34280000D0
700C0000D0
700C06F4D0
000C0E40D0
001C1800D0
00282800D0
FFE02800D0
A0002800D0
34002800D0
1C002800D0
0A001D02D0
034007FED0
01C00000D0
00A00000D0
ENDCHAR
STARTCHAR uni0936094D0936
ENCODING -1
SWIDTH 1009 0
DWIDTH 24 0
BBX 24 15 1 0
BITMAP
1BE002FD00FE
3428074740C0
300C090240C0
700C090280C0
100C040280C0
001C000240C0
0028000740C0
FFE01FFD00C0
A0001D0000C0
34000A0000C0
1C00034000C0
0A0001C000C0
034000A000C0
01C0003400C0
00A0001C00C0
ENDCHAR
STARTCHAR uni0937094D0915
ENCODING -1
SWIDTH 1039 0
DWIDTH 25 0
BBX 27 15 -1 0
BITMAP
7FFFFFFFFFFFF4
03800000600000
03900000600000
032401B867F800
03080740791A00
03060900700340
03018C00600240
03006C00600240
03402C00600240
02807C00600240
00BFDD00600340
00000A01E00B00
000002FFA1F900
00000000600000
00000000600000
ENDCHAR
STARTCHAR uni0937094D091F
ENCODING -1
SWIDTH 493 0
DWIDTH 12 0
BBX 13 15 -1 0
BITMAP
7FFFFFC0
07801C00
03600C00
03180C00
03074C00
0301DC00
02803C00
00FFF800
03900000
07000000
06000100
06000A00
07000900
03801C00
01BFF400
ENDCHAR
STARTCHAR uni0937094D0920
ENCODING -1
SWIDTH 511 0
DWIDTH 12 0
BBX 14 15 -1 0
BITMAP
7FFFFFE0
02FFFD00
03FFFD00
03FFFD00
03FFFD00
03FFFD00
02FFE800
01FFF400
03401D00
07000900
06000A00
06000A00
07000900
03801C00
01BFF400
ENDCHAR
STARTCHAR uni0937094D0923
ENCODING -1
SWIDTH 980 0
DWIDTH 24 0
BBX 25 15 -1 0
BITMAP
7FFFFFFFFFFFC0
03800D00C03400
03D00D00C02400
03740D00C02400
031C0D00C02400
03060D00C02400
03018D00C02400
0300AD00C02400
03402D01C02400
02807A02802400
00BFD2FE002400
00000000002400
00000000002400
00000000002400
00000000002400
ENDCHAR
STARTCHAR uni0937094D092A
ENCODING -1
SWIDTH 980 0
DWIDTH 24 0
BBX 25 15 -1 0
BITMAP
7FFFFFFFFFFFC0
03800D00C03400
03D00D00C02400
03740D00C02400
031C0D00C02400
03060D00C02400
03018D00C02400
0300AD00C02400
03402D01C02400
02807A02802400
00BFD2FE002400
00000000002400
00000000002400
00000000002400
00000000002400
ENDCHAR
STARTCHAR uni0937094D092B
ENCODING -1
SWIDTH 1036 0
DWIDTH 25 0
BBX 27 15 -1 0
BITMAP
7FFFFFFFFFFFF4
03800D00600000
03900D00600000
03240D006BE800
03090D00791A00
03024D00700340
03009D00600240
03003D00A00240
03402E01E00240
028072FFA00240
00BF8000600340
00000000600A00
0000000061F800
00000000600000
00000000600000
ENDCHAR
STARTCHAR uni0937094D092E
ENCODING -1
SWIDTH 791 0
DWIDTH 19 0
BBX 21 15 -1 0
BITMAP
7FFFFFFFFF40
03800D006000
03D00D006000
03740D006000
031C0D006000
03060D006000
03018D006000
0300AFFFE000
03402D006000
02807D006000
00BFDD006000
000000006000
000000006000
000000006000
000000006000
ENDCHAR
STARTCHAR uni0937094D092F
ENCODING -1
SWIDTH 877 0
DWIDTH 21 0
BBX 23 15 -1 0
BITMAP
7FFFFFFFFFF4
038000240700
039000180700
0324001C0700
030900280700
03030BE00700
0301C9000700
03006D000700
03402D000700
02807E000B00
00BFD7401F00
000001FFFB00
000000000700
000000000700
000000000700
ENDCHAR
STARTCHAR uni0937094D0935
ENCODING -1
SWIDTH 802 0
DWIDTH 19 0
BBX 21 15 -1 0
BITMAP
7FFFFFFFFF80
038000003000
039000003000
032401BC3000
030807403000
03060A003000
030189003000
03006D003000
03402D003000
02807D003000
00BFD9007000
00000740B000
000001FF7000
000000003000
000000003000
ENDCHAR
STARTCHAR uni0937094D0937
ENCODING -1
SWIDTH 804 0
DWIDTH 19 0
BBX 21 15 -1 0
BITMAP
7FFFFFFFFF80
03800E003000
03D00F403000
03740D903000
031C0D343000
03060D1C3000
03018D063000
0300AD01B000
03402D00B000
02807B00B000
00BFD2FF7000
000000003000
000000003000
000000003000
000000003000
ENDCHAR
STARTCHAR uni0938094D0915
ENCODING -1
SWIDTH 1089 0
DWIDTH 26 0
BBX 28 15 -1 0
BITMAP
7FFFFFFFFFFFFD
002800001C0000
002800000C0000
0028006F0DBE00
002801D00E46C0
002802800D0090
007402400C00A0
0FFFFF400C0060
0E0002400C0060
070002400C00A0
028002801C00A0
00D001D02C01C0
00A0007FDC3F40
003400000C0000
001C00000C0000
ENDCHAR
STARTCHAR uni0938094D0916
ENCODING -1
SWIDTH 990 0
DWIDTH 24 0
BBX 25 15 -1 0
BITMAP
7FFFFFFFFFFFC0
00280034002800
00280034002800
00280034002800
002800342E2800
00280030A42800
007400B0C02800
0FFFFFD1C02800
0E002801C02800
07000D00C02800
02800600A07800
00D002802FA800
00A001D0002800
00340060002800
001C0024002800
ENDCHAR
STARTCHAR uni0938094D091C
ENCODING -1
SWIDTH 970 0
DWIDTH 23 0
BBX 25 15 -1 0
BITMAP
7FFFFFFFFFFF80
00280000003000
00280000003000
00280000003000
00280000003000
0028003FFFF000
00740001D07000
0FFFFE00603000
0E000000703000
07000000703000
02800000603000
00D00000A03000
00A001FF803000
00340000003000
001C0000003000
ENDCHAR
STARTCHAR uni0938094D091F
ENCODING -1
SWIDTH 844 0
DWIDTH 20 0
BBX 22 15 -1 0
BITMAP
7FFFFFFFFFE0
002800001800
002800001800
002800001800
0028006FF800
002800D00000
007402800000
0FFFFF400000
0E0002400000
070002400200
028002400300
00D002800700
00A001D00A00
0034007FF800
001C00000000
ENDCHAR
STARTCHAR uni0938094D0924
ENCODING -1
SWIDTH 852 0
DWIDTH 20 0
BBX 22 15 -1 0
BITMAP
7FFFFFFFFFE0
002800000D00
002800000D00
002800000D00
002800000D00
0028006FFD00
007401D00D00
0FFFFF400D00
0E0003400D00
070003400D00
028003400D00
01C003400D00
00A002400D00
003401C00D00
001800BD0D00
ENDCHAR
STARTCHAR uni0938094D0925
ENCODING -1
SWIDTH 960 0
DWIDTH 23 0
BBX 25 15 -1 0
BITMAP
7FFFF02F807F40
002800A1D07000
002800C0607000
002800C0607000
002800C0607000
00280000A07000
00740001D07000
0FFFFFFF807000
0E000240007000
0700028000B000
028001D001F000
00C0007FFE7000
00A00000007000
00340000007000
001C0000007000
ENDCHAR
STARTCHAR uni0938094D0926
ENCODING -1
SWIDTH 851 0
DWIDTH 20 0
BBX 22 15 -1 0
BITMAP
7FFFFFFFFFE0
002800000D00
002800000D00
002800000D00
0028006FFD00
002801D00000
007402800000
0FFFFF400000
0E0002400000
070002400600
028002800A00
00D000D00E00
00A0007FFA00
003400000600
001C00000600
ENDCHAR
STARTCHAR uni0938094D092A
ENCODING -1
SWIDTH 857 0
DWIDTH 21 0
BBX 22 15 -1 0
BITMAP
7FFFFFFFFFF0
002802800900
002802800900
002802800900
002802800900
002802800900
007402800900
0FFFFF800900
0E0001800D00
070000D02D00
0280006FE900
00D000000900
00A000000900
003400000900
001C00000900
ENDCHAR
STARTCHAR uni0938094D092B
ENCODING -1
SWIDTH 1092 0
DWIDTH 26 0
BBX 28 15 -1 0
BITMAP
7FFFFFFFFFFFFE
002802800C0000
002802800C0000
002802800DBE40
002802800E41C0
002802800D00A0
007402800C0060
0FFFFF801C0060
0E0001D02C0060
0700007FDC0060
028000000C00A0
00D000000C01D0
00A000000C3F40
003400000C0000
001C00000C0000
ENDCHAR
STARTCHAR uni0938094D092C
ENCODING -1
SWIDTH 857 0
DWIDTH 21 0
BBX 22 15 -1 0
BITMAP
7FFFFFFFFFF0
002800000900
002800000900
0028006F4900
002800E00900
002802E00900
007402580900
0FFFFF460900
0E0002418900
07000240A900
028002802D00
00D001D02D00
00A0007FE900
003400000900
001C00000900
ENDCHAR
STARTCHAR uni0938094D092E
ENCODING -1
SWIDTH 850 0
DWIDTH 20 0
BBX 22 15 -1 0
BITMAP
7FFFFFFFFFE0
002802800D00
002801800D00
002801800D00
002801800D00
002801800D00
007401800D00
0FFFFFFFFD00
0E0002800D00
070001800D00
028001800D00
00D000000D00
00A000000D00
003400000D00
001C00000D00
ENDCHAR
STARTCHAR uni0938094D092F
ENCODING -1
SWIDTH 920 0
DWIDTH 22 0
BBX 24 15 -1 0
BITMAP
7FFFFFFFFFFD
0028000901C0
0028000601C0
0028000701C0
0028000A01C0
002802F801C0
0074024001C0
0FFFFF4001C0
0E00034001C0
0700028001C0
028001D007C0
00D0007FF9C0
00A0000001C0
0034000001C0
001C000001C0
ENDCHAR
STARTCHAR uni0938094D0932
ENCODING -1
SWIDTH 1027 0
DWIDTH 25 0
BBX 26 15 -1 0
BITMAP
7FFFFFFFFFFFF0
00280000000A00
00280000000900
00280000000900
0028006E4BE900
002801D1E96D00
00740240700D00
0FFFFF40700900
0E000340700900
07000340700900
02800340000900
00D00240000900
00A001C0000900
003400BF000900
001C0000000900
ENDCHAR
STARTCHAR uni0938094D0935
ENCODING -1
SWIDTH 842 0
DWIDTH 20 0
BBX 22 15 -1 0
BITMAP
7FFFFFFFFFE0
002800000C00
002800000C00
0028006F0C00
002801D00C00
002802800C00
007403400C00
0FFFFF400C00
0E0003400C00
070003400C00
028002401C00
00D001D02C00
00A0007FDC00
003400000C00
001C00000C00
ENDCHAR
STARTCHAR uni0938094D0938
ENCODING -1
SWIDTH 871 0
DWIDTH 21 0
BBX 23 15 -1 0
BITMAP
7FFFFFFFFFF4
002800600600
002800600600
002800600600
002800600600
002800A00600
007400D00600
0FFFFFFFFE00
0E0028000A00
07001C000600
02800A000600
00D003400600
00A001800600
003400D00600
001C00700600
ENDCHAR
STARTCHAR uni0939094D0923
ENCODING -1
SWIDTH 1136 0
DWIDTH 27 0
BBX 29 21 -1 -6
BITMAP
7FFFFFFFFFFFFF80
0000241C01803000
0000240C01803000
0000240C01803000
01BFF40C01803000
0380000C01803000
0300000C01803000
0340000C01803000
01FF900C01803000
0290740A03403000
03001802FE003000
0700180000003000
0700040000003000
0300000000003000
0280000000003000
00BFF40000000000
0000000000000000
0002400000000000
0001800000000000
0000A00000000000
0000340000000000
ENDCHAR
STARTCHAR uni0939094D092E
ENCODING -1
SWIDTH 746 0
DWIDTH 18 0
BBX 20 17 -1 -2
BITMAP
7FFFFFFFFD
0000280180
0000240180
0000240180
01BFF40180
0340000180
0700000180
0340000180
01FFF40180
0290240180
0700280180
06002FFF80
0600280280
0600280180
0700140180
0380000180
00BFF40140
ENDCHAR
ENDFONT
